<svg width="24" height="24" viewBox="0 0 24 24" fill="none" xmlns="http://www.w3.org/2000/svg">
    <title>Aave Icon</title>
    <path d="M24 12C24 5.37258 18.6274 0 12 0C5.37258 0 0 5.37258 0 12C0 18.6274 5.37258 24 12 24C18.6274 24 24 18.6274 24 12Z" fill="#B6509E"/>
    <path d="M19.4296 17.5749L13.6989 4.04107C13.3756 3.34133 12.8952 3 12.2618 3H11.7551C11.1218 3 10.6413 3.34133 10.3181 4.04107L7.82399 9.9376H5.93705C5.37358 9.94187 4.91495 10.3856 4.91058 10.9403V10.9531C4.91495 11.5035 5.37358 11.9515 5.93705 11.9557H6.95041L4.56989 17.5749C4.52621 17.6987 4.5 17.8267 4.5 17.9589C4.5 18.2747 4.60046 18.5221 4.77955 18.7141C4.95863 18.9061 5.21634 19 5.53957 19C5.75359 18.9957 5.95889 18.9317 6.12924 18.808C6.31269 18.6843 6.43936 18.5051 6.53982 18.3003L9.16058 11.9515H10.9776C11.5411 11.9472 11.9997 11.5035 12.0041 10.9488V10.9232C11.9997 10.3728 11.5411 9.9248 10.9776 9.92053H10.008L12.0085 5.05227L17.4596 18.296C17.5601 18.5008 17.6868 18.68 17.8702 18.8037C18.0406 18.9275 18.2502 18.9915 18.4599 18.9957C18.7831 18.9957 19.0365 18.9019 19.2199 18.7099C19.4034 18.5179 19.4995 18.2704 19.4995 17.9547C19.5038 17.8267 19.482 17.6944 19.4296 17.5749Z" fill="white"/>
</svg>
