<svg width="24" height="24" viewBox="0 0 24 24" fill="none" xmlns="http://www.w3.org/2000/svg">
    <title>AMP Icon</title>
    <path d="M11.9903 23.5939C18.3987 23.5939 23.5938 18.3988 23.5938 11.9903C23.5938 5.58186 18.3987 0.38678 11.9903 0.38678C5.5818 0.38678 0.386719 5.58186 0.386719 11.9903C0.386719 18.3988 5.5818 23.5939 11.9903 23.5939Z" fill="#F2E3EE"/>
    <path d="M11.9903 23.9807C18.6124 23.9807 23.9807 18.6124 23.9807 11.9903C23.9807 5.36825 18.6124 0 11.9903 0C5.36825 0 0 5.36825 0 11.9903C0 18.6124 5.36825 23.9807 11.9903 23.9807Z" fill="#D9327C"/>
    <path fill-rule="evenodd" clip-rule="evenodd" d="M11.5263 6.32392C11.4296 6.40127 11.3136 6.53665 11.2362 6.78806C11.1589 7.03947 10.7334 8.27718 10.1919 9.82432H13.8084C13.2669 8.27718 12.8414 7.03947 12.764 6.78806C12.6867 6.53665 12.5706 6.40127 12.474 6.32392C12.3773 6.24656 12.2419 6.18854 11.9905 6.18854C11.7391 6.18854 11.623 6.24656 11.5263 6.32392ZM6.1887 9.82432H8.64478C9.2443 8.06445 9.76646 6.59467 9.84381 6.32392C9.99853 5.85977 10.2499 5.45365 10.6367 5.16356C11.0235 4.87347 11.4876 4.7381 11.9711 4.7381C12.4546 4.7381 12.9188 4.85413 13.3055 5.16356C13.6923 5.45365 13.9437 5.85977 14.0984 6.32392C14.1951 6.59467 14.698 8.04511 15.2975 9.82432H17.7922C18.1984 9.82432 18.5271 10.1531 18.5271 10.5592C18.5271 10.9653 18.1984 11.2941 17.7922 11.2941H15.839H14.3112H9.6891H8.1613H6.1887C5.78257 11.2941 5.47314 10.9653 5.47314 10.5592C5.47314 10.1531 5.80191 9.82432 6.1887 9.82432ZM6.1887 12.7252C5.78257 12.7252 5.47314 13.054 5.47314 13.4601C5.47314 13.8662 5.80191 14.195 6.1887 14.195H7.15566L6.76887 15.3167L6.38209 16.4383L6.22738 16.8638C6.092 17.2506 6.30473 17.6567 6.67218 17.7921C7.05896 17.9275 7.46509 17.7147 7.60046 17.3473L7.75518 16.9218L8.14196 15.8001C8.29667 15.336 8.49007 14.7945 8.7028 14.195H15.3168C15.5102 14.7752 15.7036 15.336 15.8777 15.8001L16.2644 16.9218L16.4192 17.3473C16.5545 17.7341 16.9607 17.9275 17.3474 17.7921C17.7342 17.6567 17.9276 17.2506 17.7922 16.8638L17.6375 16.4383L17.2507 15.3167L16.864 14.195H17.8309C18.237 14.195 18.5658 13.8662 18.5658 13.4601C18.5658 13.054 18.237 12.7252 17.8309 12.7252H16.3611H14.8333H9.22496H7.69716H6.1887ZM17.0767 17.0765L17.7536 16.8445C17.7536 16.8445 17.7536 16.8445 17.0767 17.0765ZM17.0767 17.0765C16.3998 17.3086 16.3998 17.3086 16.3998 17.3086L17.0767 17.0765ZM6.92359 17.0765L7.60046 17.3086C7.60046 17.3086 7.60046 17.3086 6.92359 17.0765ZM6.92359 17.0765C6.24671 16.8445 6.24671 16.8445 6.24671 16.8445L6.92359 17.0765Z" fill="white"/>
</svg>
