<svg width="24" height="24" viewBox="0 0 24 24" fill="none" xmlns="http://www.w3.org/2000/svg">
    <title>ApeCoin Icon</title>
    <g clip-path="url(#clip0_1576_3479)">
        <path d="M11.9999 6.10352e-05C18.6065 6.10352e-05 23.9665 5.37499 23.9665 12.0001C23.9665 18.6251 18.6065 24.0001 11.9999 24.0001C5.3932 24.0001 0.0332031 18.6251 0.0332031 12.0001C0.0332031 5.36831 5.3932 6.10352e-05 11.9999 6.10352e-05Z" fill="url(#paint0_radial_1576_3479)"/>
        <path d="M20.1399 8.2496C20.0865 8.54376 20.0332 8.68414 19.9599 8.85128C19.8865 9.03178 19.7999 9.23234 19.7265 9.63345C19.6932 9.79389 19.6799 9.91423 19.6665 10.0145V10.0212V10.0279C19.6465 10.195 19.6332 10.3087 19.5665 10.5092C19.5132 10.6697 19.4199 10.9438 19.1999 11.2379C19.0199 11.4786 18.7199 11.873 18.3265 11.9198C18.2932 11.9198 18.2199 11.9265 18.1932 11.9131C17.0599 11.3315 16.0932 10.9036 15.7532 10.8101C15.3599 10.6964 15.4132 9.84738 15.4532 9.09194C15.4732 8.75768 15.4932 8.43679 15.4732 8.1627C15.4199 7.21339 15.2532 6.1705 14.4265 5.66242C13.9332 5.36158 13.2932 5.26799 12.6865 5.26799C12.7999 5.21451 12.9265 5.14097 13.0599 5.06075H13.0665C13.4265 4.8535 13.8665 4.59278 14.3132 4.54598C14.4599 4.53261 14.5999 4.51256 14.7399 4.49919C15.6332 4.39891 16.3999 4.312 17.2132 4.59278C17.5799 4.7198 18.3332 5.14097 18.5332 5.5354C18.6732 5.80949 18.8999 6.03011 19.3665 6.45796C19.6065 6.68526 19.7665 6.81228 19.8799 6.90587L19.8865 6.91256C20.0465 7.04626 20.0799 7.073 20.1265 7.17328C20.2665 7.4808 20.2132 7.80169 20.1399 8.2496Z" fill="white"/>
        <path d="M16.0002 12.1605C16.0668 12.1805 16.0868 12.2608 16.0535 12.3209C15.9335 12.5014 15.8002 12.7488 15.6402 13.0429C15.5602 13.19 15.4868 13.3237 15.4268 13.4307C15.2068 13.805 15.1868 14.1259 15.1735 14.38C15.1602 14.6474 15.1468 14.7677 14.9868 14.8747C14.8535 14.9616 14.7202 14.995 13.7935 15.1354C13.6335 15.1622 13.5602 15.1889 13.4935 15.2223C13.4802 15.229 13.4735 15.229 13.4602 15.2357C13.3935 15.2624 13.3335 15.2089 13.3335 15.1354C13.3402 15.0084 13.3469 14.8479 13.3469 14.6474V14.6073C13.3535 14.4268 13.3468 14.273 13.3402 14.1594C13.3268 13.9187 13.3268 13.8184 13.3868 13.7181C13.4668 13.5911 13.5268 13.5577 13.6268 13.4908C13.7668 13.4039 13.9602 13.2836 14.2402 12.8959C14.3935 12.6886 14.4269 12.575 14.4469 12.4814C14.4535 12.4413 14.4602 12.4279 14.5735 12.341C14.6935 12.2474 15.0669 11.9666 15.5469 12.0468C15.6735 12.0535 15.8335 12.1003 16.0002 12.1605Z" fill="white"/>
        <path d="M12.3199 16.4725C12.2999 16.4992 12.2732 16.5126 12.2399 16.5126C12.1399 16.5193 12.0732 16.4925 12.0266 16.439C11.9332 16.3187 11.9466 16.0847 11.9666 15.951L12.3599 15.8441C12.3999 16.0513 12.4132 16.3521 12.3199 16.4725Z" fill="white"/>
        <path d="M12.3535 15.0485C12.3468 15.1086 12.3401 15.1688 12.3401 15.2356C12.3401 15.2624 12.3401 15.2891 12.3401 15.3092C12.3401 15.376 12.3401 15.4763 12.3335 15.5231C12.2135 15.5699 12.1068 15.5699 11.9668 15.5632C11.9668 15.5231 11.9668 15.4629 11.9668 15.4228C11.9668 15.3894 11.9668 15.3627 11.9668 15.3292C11.9668 15.2958 11.9668 15.2624 11.9668 15.229C11.9668 15.1554 11.9668 15.0284 11.9868 14.995C12.0268 14.9883 12.0601 14.9816 12.1001 14.9749C12.1801 14.9549 12.2868 14.9348 12.3535 14.9482C12.3601 14.9749 12.3601 15.015 12.3535 15.0485Z" fill="white"/>
        <path d="M11.6265 16.3454C11.6065 16.546 11.5465 16.8 11.3532 16.8334C11.2665 16.8535 11.2265 16.8267 11.1999 16.8C11.0732 16.6797 11.0532 16.3254 11.0665 16.0646C11.1532 16.0646 11.2599 16.0446 11.3932 16.0245C11.4732 16.0111 11.5532 15.9911 11.6199 15.9777C11.6332 16.078 11.6399 16.2117 11.6265 16.3454Z" fill="white"/>
        <path d="M11.5399 15.6234L11.1133 15.7705C11.1333 15.6033 11.1666 15.3694 11.1733 15.2156C11.1799 15.1086 11.2133 15.0752 11.2199 15.0685C11.2199 15.0685 11.2266 15.0618 11.2466 15.0618H11.2533H11.2599L11.5266 15.0485C11.5399 15.1755 11.5399 15.4496 11.5399 15.6234Z" fill="white"/>
        <path d="M10.8469 15.4897C10.8202 15.5566 10.7936 15.7371 10.7736 15.8641L10.2402 15.8507C10.2736 15.6836 10.3136 15.5165 10.3602 15.3828C10.4069 15.2491 10.4536 15.1488 10.5002 15.1221C10.5536 15.0886 10.6736 15.0819 10.7469 15.1421C10.8669 15.2357 10.9002 15.356 10.8469 15.4897Z" fill="white"/>
        <path d="M10.6467 17.1276C10.6067 17.1811 10.56 17.2145 10.5 17.2212C10.44 17.2279 10.3933 17.2145 10.36 17.1811C10.1933 17.0273 10.2067 16.5193 10.2133 16.2719C10.4333 16.2184 10.6733 16.1783 10.7867 16.1716C10.8067 16.3789 10.8133 16.907 10.6467 17.1276Z" fill="white"/>
        <path d="M9.94676 15.8307C9.92009 15.8975 9.89343 15.9644 9.87343 16.0246C9.81343 16.0446 9.62009 16.0246 9.42676 15.9844L9.56009 15.1421C9.78009 15.0819 10.0334 15.0619 10.0934 15.1287C10.1801 15.2156 10.0201 15.6502 9.94676 15.8307Z" fill="white"/>
        <path d="M9.70674 17.2613C9.60007 17.3883 9.44674 17.4485 9.2334 17.4485C9.08007 17.4485 9.02674 17.3883 9.00007 17.3482C8.88007 17.1543 9.00007 16.7064 9.1134 16.4189L9.84007 16.4657C9.84674 16.5192 9.8534 16.5794 9.8534 16.6462C9.86674 16.8401 9.84007 17.0942 9.70674 17.2613Z" fill="white"/>
        <path d="M15.6933 11.1309C15.0399 10.9437 15.0999 9.98774 15.1533 9.06518C15.1733 8.7376 15.1933 8.43008 15.1733 8.17604C15.1199 7.31365 14.9799 6.37103 14.2866 5.94317C13.5399 5.48858 12.3199 5.58885 11.5666 5.68913C11.2933 5.77604 11.0333 5.82952 10.8333 5.81615C10.3866 5.7961 10.0399 5.60222 9.73993 5.44178C9.49993 5.31476 9.29327 5.20111 9.09993 5.20111C9.0866 5.20111 9.07993 5.20111 9.0666 5.20111C8.47993 5.24122 8.21327 5.38161 7.97327 5.60223C7.91327 5.65571 7.83993 5.81615 7.59327 6.52479C7.4666 6.87911 7.4466 7.07966 7.4266 7.26685C7.4066 7.44066 7.3866 7.62117 7.29327 7.88858C7.2266 8.06908 7.17993 8.22952 7.13327 8.38328C7.01327 8.79108 6.91993 9.11197 6.63327 9.49303C6.59993 9.53983 6.55993 9.60668 6.5066 9.68022C6.43993 9.7805 6.35993 9.90752 6.25327 10.0613C6.17993 10.1682 6.0066 10.556 6.01327 10.6763C6.0266 10.8635 6.0866 10.9838 6.15993 11.1175C6.2266 11.2512 6.3066 11.405 6.3266 11.6189V11.6524C6.35327 11.9866 6.3066 12.1538 5.6666 12.722C5.25993 13.0897 4.97327 13.4373 4.77993 13.698C4.75993 13.7181 4.7866 13.7515 4.81327 13.7515C4.81993 13.7515 4.8266 13.7515 4.83327 13.7515C4.8466 13.7515 4.85993 13.7515 4.8666 13.7515C4.87993 13.7515 4.89327 13.7515 4.89993 13.7515C4.91327 13.7515 4.9266 13.7515 4.93327 13.7515C5.0866 13.7716 5.23993 13.8318 5.3466 13.9454C5.3666 13.9655 5.39327 13.9721 5.41993 13.9588C5.5266 13.9187 5.63993 13.9253 5.7466 13.932C5.87327 13.9454 6.0066 13.9788 6.09327 14.059C6.1266 14.0925 6.17327 14.1058 6.21993 14.0992C6.31993 14.0791 6.4266 14.0791 6.5266 14.1192C6.59993 14.146 6.65993 14.1861 6.71327 14.2395C6.75993 14.2863 6.83993 14.2997 6.89993 14.2663C6.9266 14.2529 6.9466 14.2395 6.97993 14.2329C7.11993 14.1861 7.27327 14.2128 7.4066 14.2596C7.47327 14.2863 7.53993 14.3064 7.59993 14.3465C7.69993 14.4134 7.75993 14.507 7.8066 14.6072C7.83993 14.6875 7.9466 14.7142 8.01993 14.6674C8.1066 14.6072 8.17327 14.6006 8.2466 14.6273C8.27327 14.6407 8.29993 14.654 8.31327 14.6741C8.3666 14.7343 8.4466 14.7877 8.51993 14.7744C8.7266 14.7276 8.97993 14.761 9.1666 14.8546C9.23327 14.888 9.29993 14.9482 9.35326 15.0284L9.35993 14.9883C9.35993 14.9749 9.37326 14.9549 9.39326 14.9549L9.43993 14.9415C9.5466 14.9081 10.0866 14.7543 10.2933 14.9749C10.2999 14.9816 10.3199 14.9816 10.3266 14.9749C10.3533 14.9415 10.3799 14.9281 10.3933 14.9148C10.5266 14.8345 10.7666 14.8278 10.9199 14.9616C10.9533 14.9883 10.9999 14.9816 11.0266 14.9415C11.0399 14.9214 11.0599 14.9014 11.0733 14.888C11.1266 14.8412 11.1999 14.8212 11.2733 14.8212L11.5666 14.8078C11.6399 14.8011 11.8733 14.7877 11.9466 14.7744C11.9533 14.7744 11.9599 14.7744 11.9666 14.7744C11.9999 14.7677 12.0333 14.761 12.0733 14.7543C12.2199 14.7209 12.3799 14.6875 12.5133 14.7476C12.6399 14.8078 12.6266 14.9549 12.6133 15.0819C12.6066 15.1354 12.5999 15.1889 12.5999 15.2423C12.5999 15.2691 12.5999 15.2891 12.5999 15.3159C12.5999 15.4295 12.6066 15.5298 12.5799 15.61L12.5933 15.6702C12.6066 15.7304 12.6733 15.7638 12.7266 15.7304C12.8266 15.6702 12.9266 15.59 12.9599 15.5432C12.9599 15.5365 12.9666 15.5365 12.9666 15.5298C12.9733 15.5164 12.9799 15.4897 12.9866 15.4362C13.0066 15.3292 13.0266 15.1019 13.0266 14.6473C13.0266 14.6206 13.0266 14.6072 13.0266 14.6006C13.0333 14.4334 13.0266 14.293 13.0199 14.1794C13.0066 13.932 12.9999 13.7382 13.1199 13.5376C13.2399 13.3437 13.3533 13.2702 13.4666 13.2033C13.5933 13.1231 13.7399 13.0295 13.9866 12.6953C14.1066 12.5281 14.1199 12.4613 14.1333 12.4078C14.1599 12.2808 14.1999 12.2072 14.3866 12.0668C14.5399 11.9532 14.9999 11.6056 15.6199 11.7058C15.8266 11.7393 16.1533 11.8462 16.4799 11.9799C16.4933 11.9866 16.5066 11.9866 16.5133 11.9933C16.5199 11.9933 16.5266 12 16.5266 12C16.8066 12.1136 17.0799 12.2407 17.2599 12.3409C17.3133 12.3677 17.3799 12.3543 17.4133 12.3075C17.4666 12.2407 17.5333 12.2006 17.5933 12.1604C17.6199 12.1471 17.6399 12.1337 17.6599 12.1136C17.7199 12.0602 17.7199 11.9532 17.6466 11.9131C16.7733 11.4585 15.9666 11.2111 15.6933 11.1309ZM9.47993 11.3382C9.27993 12.2206 7.91327 13.1967 7.2866 13.1967H7.27327C7.2666 13.1967 7.25327 13.1967 7.23993 13.1967C7.2266 13.1967 7.21327 13.19 7.19993 13.19C7.19327 13.19 7.1866 13.1833 7.17993 13.1833C7.0666 13.1499 6.91327 13.0629 6.79327 12.9426C6.71327 12.8624 6.6466 12.7688 6.6266 12.6685C6.61993 12.6485 6.61993 12.6351 6.61327 12.615C6.57993 12.4613 6.53993 12.2741 6.67327 11.9666C6.69327 11.9265 6.7066 11.8863 6.71993 11.8529C6.7266 11.8396 6.7266 11.8262 6.73327 11.8195C6.7466 11.7861 6.75993 11.7526 6.77327 11.7259C6.79327 11.6791 6.8066 11.639 6.81993 11.6056C6.8266 11.5922 6.8266 11.5788 6.83327 11.5655C6.87327 11.4585 6.87327 11.4184 6.87993 11.3783C6.8866 11.3448 6.8866 11.3047 6.89993 11.2512C6.93993 11.0841 6.95993 10.9437 6.97993 10.8167C7.01327 10.5894 7.03993 10.3955 7.15993 10.215C7.17993 10.1816 7.2066 10.1549 7.2266 10.1348C7.23327 10.1281 7.2466 10.1214 7.25327 10.1081C7.25993 10.1014 7.27327 10.0947 7.27993 10.088C7.3066 10.068 7.33993 10.0479 7.37327 10.0345C7.3866 10.0279 7.39993 10.0212 7.4066 10.0212C7.43327 10.0145 7.45327 10.0078 7.47993 10.0011C7.59327 9.97437 7.71993 9.96768 7.87327 9.98774C8.03993 10.0011 8.19326 10.0345 8.3266 10.068C8.43993 10.1014 8.53993 10.1348 8.6266 10.1682C8.63327 10.1682 8.6466 10.1749 8.65327 10.1816C8.6666 10.1883 8.6866 10.195 8.69993 10.2017C8.7266 10.2084 8.7466 10.2217 8.7666 10.2284C8.79327 10.2418 8.81993 10.2485 8.83993 10.2618L8.85993 10.2685C8.95327 10.3153 9.03993 10.3621 9.1066 10.4089C9.13993 10.4357 9.17327 10.4624 9.19993 10.4891C9.2066 10.4958 9.21993 10.5092 9.2266 10.5159C9.23326 10.5226 9.2466 10.5359 9.25326 10.5426C9.53993 10.8167 9.5266 11.1376 9.47993 11.3382ZM10.1133 7.98217L10.0866 8.14261C10.0266 8.50362 9.8866 8.99832 9.3666 9.12534C8.8666 9.24568 8.7466 9.27242 8.39327 9.29248C8.3866 9.29248 8.37993 9.29248 8.3666 9.29248C8.1066 9.29248 7.6066 9.12534 7.51993 8.71754C7.4666 8.45682 7.57993 8.26295 7.7666 7.94874C7.79993 7.89526 7.83327 7.84178 7.8666 7.78161C8.11993 7.35376 8.21993 7.04624 8.29993 6.79888C8.37993 6.55821 8.43993 6.35766 8.6066 6.19053C8.6466 6.15041 8.6866 6.11699 8.73993 6.08356C8.77327 6.06351 8.8066 6.04345 8.83993 6.0234C8.8866 5.99665 8.93993 5.9766 8.9866 5.96323C9.09993 5.92312 9.2266 5.90975 9.35326 5.90975C9.59326 5.90975 9.83993 5.9766 10.0133 6.11699C10.0933 6.17716 10.1999 6.30417 10.2666 6.67186C10.2999 6.85905 10.2466 7.20668 10.1133 7.98217ZM13.8199 9.0117C13.6399 9.31922 13.5466 9.48635 13.3866 9.61337C13.0799 9.86741 12.7199 9.92757 12.4266 9.92757C12.2133 9.92757 12.0333 9.89415 11.9266 9.87409C11.6199 9.82061 11.0533 9.71365 10.8666 9.26573C10.8266 9.17883 10.8266 9.11866 10.8266 9.05181C10.8266 8.97827 10.8266 8.86462 10.7933 8.58384V8.56378C10.7799 8.43677 10.7599 8.28969 10.7999 8.10919L10.8066 8.08913C10.9133 7.54763 10.9399 7.46072 10.9666 7.41392C11.0199 7.30696 11.1533 7.26685 11.2599 7.32033C11.3666 7.37381 11.4066 7.50083 11.3599 7.6078C11.3466 7.64122 11.3199 7.75487 11.2333 8.17604L11.2266 8.1961C11.1999 8.31643 11.2133 8.40334 11.2266 8.51699V8.53704C11.2599 8.84456 11.2599 8.98495 11.2599 9.05849C11.2599 9.07186 11.2599 9.08523 11.2599 9.09192C11.2599 9.09192 11.2599 9.0986 11.2599 9.10529C11.2933 9.17883 11.3599 9.23899 11.4399 9.28579C11.5133 9.3259 11.5866 9.25236 11.5733 9.17214C11.4866 8.69749 11.4933 8.15598 11.6733 7.82172C11.7333 7.70807 11.8466 7.52089 11.9466 7.34707C11.9599 7.32702 11.9666 7.31365 11.9799 7.29359C11.9866 7.28022 11.9999 7.26685 12.0066 7.24679C12.0533 7.16657 12.0933 7.09972 12.1333 7.03955C12.1399 7.03287 12.1399 7.02618 12.1466 7.01281C12.1466 7.00612 12.1533 6.99944 12.1533 6.99944C12.1599 6.98607 12.1666 6.9727 12.1733 6.96601C12.1733 6.95933 12.1799 6.95933 12.1799 6.95264V6.94596C12.1799 6.93927 12.1866 6.93259 12.1866 6.93259C12.1933 6.9259 12.1933 6.91922 12.1999 6.91253C12.2266 6.87242 12.2533 6.83899 12.2799 6.80557C12.3399 6.72534 12.2733 6.62507 12.1799 6.66518C12.0266 6.73203 11.9266 6.81225 11.9066 6.83231C11.8133 6.90585 11.6733 6.89248 11.5999 6.79888C11.5266 6.70529 11.5399 6.5649 11.6333 6.49136C11.7466 6.40445 12.3399 5.96991 13.0466 6.17047C13.5599 6.31755 13.8266 6.70529 13.9266 6.85236C14.0066 6.9727 14.2599 7.3337 14.2466 7.84178C14.2733 8.22284 14.1133 8.50362 13.8199 9.0117Z" fill="white"/>
        <path d="M9.20671 6.35767C9.17338 6.44457 9.12671 6.55822 9.08005 6.67187C8.97338 6.94597 8.84671 7.26017 8.78671 7.37382C8.68671 7.56769 8.60671 7.69471 8.54005 7.78831C8.46671 7.90196 8.40671 7.99555 8.36671 8.11588C8.28671 8.3365 8.27338 8.58385 8.32671 8.85126C8.19338 8.83789 7.96671 8.74429 7.94005 8.62396C7.92005 8.53705 7.97338 8.43677 8.13338 8.17605C8.16671 8.12257 8.20005 8.0624 8.24005 8.00223C8.51338 7.53427 8.62671 7.18663 8.71338 6.9326C8.80004 6.6585 8.84671 6.53817 8.98671 6.44457C9.05338 6.39778 9.12671 6.37104 9.20671 6.35767Z" fill="white"/>
        <path d="M8.94019 16.1449C8.78686 16.4524 8.60019 16.7398 8.48686 16.8802C8.38686 16.6195 8.22019 16.0178 8.26686 15.5298C8.26686 15.5164 8.26686 15.5031 8.27353 15.4897C8.29353 15.3426 8.33352 15.2022 8.40019 15.0953C8.44686 15.0217 8.57352 14.9816 8.72019 14.9816C8.82686 14.9816 8.94686 15.0084 9.04686 15.0619C9.10019 15.0886 9.17353 15.1488 9.18019 15.3226C9.19353 15.5499 9.08019 15.8574 8.94019 16.1449Z" fill="white"/>
        <path d="M17.1933 12.6886C17.2067 12.6953 17.2133 12.7153 17.2067 12.7287C17.16 12.8223 17.1067 12.8825 17.0467 12.956C16.9667 13.0496 16.88 13.1499 16.8 13.317C16.6867 13.5443 16.6467 13.7582 16.6267 14.293C16.6067 14.9214 16.6267 15.2758 16.6467 15.5365C16.6667 15.7838 16.6733 15.9376 16.6333 16.1783C16.5467 16.6663 16.3333 16.9939 16.0667 17.4084C15.7333 17.9231 15.3933 18.4579 14.82 18.6251C14.7667 18.6384 14.7667 18.6384 14.62 18.6451C14.4933 18.6451 14.2733 18.6451 13.8667 18.6585C13.1267 18.6852 12.7533 18.6986 12.4333 18.7588C12.1 18.8256 11.9267 18.8925 11.7533 18.966C11.6 19.0262 11.4533 19.0863 11.18 19.1465C11.0133 19.1799 10.7667 19.2134 9.92668 19.2201C9.05334 19.2201 8.52668 19.2201 7.83334 19.1398C6.88001 19.0329 6.40001 18.9727 6.08001 18.8056C5.32668 18.4045 5.01334 17.6824 4.48668 16.4858V16.4791C4.48001 16.4657 4.50001 16.4524 4.51334 16.4591C4.54001 16.4724 4.56668 16.4858 4.59334 16.4992C4.61334 16.5058 4.64001 16.5125 4.66668 16.5192C4.71334 16.5259 4.76668 16.5259 4.81334 16.5192C4.82001 16.5192 4.83334 16.5125 4.84001 16.5125C4.84001 16.5125 4.84001 16.5125 4.84668 16.5125C4.85334 16.5058 4.86668 16.5125 4.87334 16.5192C4.90668 16.6128 4.96001 16.693 5.04668 16.7398C5.13334 16.7866 5.24001 16.7933 5.33334 16.7866C5.43334 16.7866 5.54001 16.7799 5.64001 16.7666C5.69334 16.7599 5.74668 16.7866 5.76668 16.8401C5.86001 17.0674 5.97334 17.2279 6.14668 17.2546C6.15334 17.2546 6.16668 17.2546 6.18668 17.2546C6.22001 17.2546 6.27334 17.2479 6.34001 17.2078C6.42668 17.161 6.54668 17.1877 6.61334 17.2613C6.65334 17.3014 6.69334 17.3415 6.72668 17.3682C6.90668 17.5554 7.34001 17.6423 7.70668 17.6423C7.90668 17.6423 8.08668 17.6156 8.18668 17.5621C8.34001 17.4886 8.34001 17.3749 8.32667 17.3348C8.31334 17.2546 8.30001 17.1744 8.29334 17.0941C8.29334 17.0875 8.30668 17.0808 8.31334 17.0875C8.33334 17.1343 8.36001 17.1944 8.43334 17.2078C8.44001 17.2078 8.44667 17.2078 8.46001 17.2078C8.56001 17.2078 8.72001 17.2412 8.74668 17.3415C8.76001 17.3883 8.78001 17.4351 8.80668 17.4819C8.86668 17.5755 8.99334 17.6958 9.24001 17.6958H9.26001C9.54001 17.6958 9.76001 17.6022 9.90668 17.4217C9.91334 17.4084 9.92668 17.395 9.93334 17.3883C9.98668 17.3148 10.1467 17.3081 10.2133 17.3749C10.2867 17.4485 10.3867 17.4819 10.4933 17.4819C10.5133 17.4819 10.5267 17.4819 10.5467 17.4819C10.6733 17.4685 10.78 17.4017 10.8667 17.288C10.92 17.2145 10.96 17.1209 10.9867 17.0206C10.9933 16.9939 11.0333 16.9805 11.06 17.0006C11.1133 17.0474 11.2 17.1008 11.3267 17.1008C11.36 17.1008 11.3933 17.1008 11.4267 17.0875C11.6733 17.0407 11.7933 16.8334 11.8533 16.6061C11.8533 16.5994 11.8667 16.5994 11.8733 16.5994C11.9333 16.673 12.0533 16.7599 12.2533 16.7599C12.2667 16.7599 12.2733 16.7599 12.2867 16.7599C12.3933 16.7532 12.48 16.7064 12.5467 16.6262C12.62 16.5259 12.6533 16.3855 12.66 16.2384C12.66 16.185 12.7 16.1382 12.7467 16.1181C12.9533 16.0245 13.2 15.844 13.2733 15.717C13.2933 15.6769 13.3333 15.6435 13.3733 15.6368C13.5267 15.6033 13.6 15.5766 13.66 15.5499C13.7133 15.5298 13.7533 15.5097 13.8733 15.4897C14.82 15.3426 15 15.3159 15.2067 15.1755C15.5133 14.9682 15.5267 14.6875 15.54 14.4201C15.5533 14.1928 15.5667 13.932 15.7467 13.6245C15.8133 13.5109 15.8867 13.3705 15.9667 13.2234C16.1 12.9694 16.2933 12.6217 16.4267 12.4279C16.46 12.3811 16.5133 12.3677 16.5667 12.3944C16.8667 12.5081 17.1333 12.6418 17.1933 12.6886Z" fill="white"/>
        <path d="M8.02673 15.5031C7.98673 15.8307 7.96673 16.2652 8.02007 16.8401C8.0334 17.0006 8.0534 17.1677 8.08007 17.3348C8.0334 17.3616 7.90007 17.395 7.66673 17.3883C7.32673 17.3816 6.9934 17.2947 6.8934 17.1878L6.88006 17.1744C6.80006 17.1075 6.74007 17.0607 6.7334 16.9471C6.7334 16.907 6.74673 16.8669 6.78673 16.8134C6.80673 16.78 6.8334 16.7465 6.86673 16.6997C6.92673 16.6195 6.9934 16.5259 7.06673 16.3989C7.28007 16.0379 7.36007 15.9242 7.46673 15.7839C7.4734 15.7705 7.48673 15.7638 7.4934 15.7504C7.5534 15.6702 7.62673 15.5699 7.7334 15.4028C7.8134 15.2825 7.88007 15.1889 7.9334 15.1086C8.02673 14.9816 8.08673 14.9148 8.12007 14.8813C8.1134 14.9348 8.10007 15.0151 8.08673 15.0886C8.06673 15.2022 8.04006 15.3426 8.02673 15.5031Z" fill="white"/>
        <path d="M7.86644 10.4156L7.85977 10.4223C7.81311 10.4824 7.76644 10.556 7.70644 10.6897C7.54644 11.0507 7.53978 11.2579 7.53978 11.4251C7.53978 11.512 7.53978 11.5788 7.51311 11.659C7.49978 11.7125 7.47311 11.7727 7.43978 11.8462C7.34644 12.0668 7.21978 12.3543 7.27311 12.7421C7.19311 12.7019 7.07977 12.6217 7.05977 12.5749C7.05311 12.5549 7.05311 12.5348 7.04644 12.5148C7.01978 12.3944 6.99978 12.3142 7.07978 12.1337C7.27978 11.6657 7.30644 11.5521 7.31978 11.4251C7.31978 11.3983 7.32644 11.3783 7.33311 11.3382C7.37311 11.151 7.39978 10.9972 7.41978 10.8702C7.44644 10.6763 7.46644 10.5493 7.53311 10.4557C7.55978 10.4223 7.62644 10.4022 7.71978 10.4022C7.75978 10.4022 7.79978 10.4022 7.84644 10.4089H7.85977C7.85977 10.4156 7.85978 10.4156 7.86644 10.4156Z" fill="white"/>
        <path d="M7.5999 15.0284C7.58657 14.9148 7.56657 14.8011 7.52657 14.7009C7.52657 14.6942 7.51324 14.6674 7.50657 14.6608C7.4999 14.6474 7.49324 14.634 7.4799 14.6206C7.47324 14.614 7.47324 14.614 7.46657 14.6073C7.4599 14.6006 7.45324 14.5939 7.44657 14.5872C7.44657 14.5872 7.44657 14.5872 7.4399 14.5872C7.4399 14.5872 7.43324 14.5805 7.42657 14.5805C7.4199 14.5738 7.40657 14.5738 7.3999 14.5672C7.3999 14.5672 7.39324 14.5605 7.38657 14.5605C7.38657 14.5605 7.38657 14.5605 7.3799 14.5605H7.37324C7.30657 14.5337 7.2399 14.507 7.17324 14.5003C7.16657 14.5003 7.14657 14.5003 7.14657 14.5003C7.1399 14.5003 7.12657 14.5003 7.1199 14.5003C7.11324 14.5003 7.11324 14.5003 7.10657 14.5003H7.0999H7.09324C7.0799 14.507 7.0599 14.507 7.04657 14.5137C7.0399 14.5137 7.03324 14.5204 7.02657 14.527C7.0199 14.527 7.01324 14.5337 7.00657 14.5404C6.9999 14.5471 6.99324 14.5538 6.98657 14.5605C6.98657 14.5605 6.9799 14.5738 6.97324 14.5805C6.97324 14.5872 6.96657 14.5872 6.96657 14.5872C6.9399 14.6273 6.91324 14.6674 6.88657 14.7075C6.82657 14.8011 6.7599 14.9014 6.69324 14.995C6.63324 15.0819 6.57324 15.1688 6.51324 15.2557C6.4799 15.3025 6.44657 15.3493 6.41324 15.4028C6.40657 15.4095 6.3999 15.4162 6.3999 15.4296C6.4399 15.4362 6.4799 15.4429 6.51324 15.4496C6.5999 15.463 6.68657 15.483 6.77324 15.4964C6.95324 15.5231 7.1399 15.5298 7.32657 15.5231C7.33324 15.5231 7.34657 15.5231 7.35324 15.5231C7.3999 15.4563 7.45324 15.3828 7.5199 15.2825C7.5599 15.229 7.59324 15.1755 7.62657 15.122C7.61324 15.0886 7.60657 15.0619 7.5999 15.0284Z" fill="white"/>
        <path d="M6.94678 15.7906C6.93345 15.931 6.77345 16.2987 6.52678 16.6463C6.32011 16.9404 6.19345 17.0073 6.17345 17.0073C6.07345 16.9939 5.97345 16.7466 5.90012 16.5059C5.86678 16.4056 5.84012 16.3053 5.82012 16.2251C5.76678 16.0379 5.76012 15.7906 5.76678 15.6301C5.97345 15.7438 6.34012 15.7772 6.85345 15.7772C6.88012 15.7839 6.91345 15.7839 6.94678 15.7906Z" fill="white"/>
        <path d="M6.58678 14.6273C6.58678 14.634 6.58012 14.634 6.58012 14.6407C6.49345 14.7677 6.40678 14.9014 6.31345 15.0284C6.26678 15.0953 6.22012 15.1621 6.17345 15.229C6.14678 15.2624 6.11345 15.3025 6.08678 15.3493C6.01345 15.3293 5.94012 15.3159 5.86678 15.2958C5.80678 15.2758 5.74678 15.2624 5.69345 15.2357C5.68012 15.229 5.67345 15.229 5.66012 15.2223C5.65345 15.2023 5.64012 15.1889 5.62012 15.1755C5.64012 15.1354 5.66012 15.0886 5.68012 15.0485C5.72012 14.9683 5.76012 14.8947 5.80012 14.8212C5.88012 14.6875 5.97345 14.5471 6.10678 14.4602C6.11345 14.4535 6.12012 14.4535 6.12678 14.4468C6.18012 14.4134 6.22678 14.3933 6.29345 14.3867C6.30012 14.3867 6.34678 14.3867 6.36678 14.3867C6.37345 14.3867 6.37345 14.3867 6.37345 14.3867H6.38012C6.39345 14.3933 6.41345 14.3933 6.42678 14.4C6.43345 14.4 6.44012 14.4067 6.44012 14.4067C6.45345 14.4134 6.46678 14.4201 6.48012 14.4335C6.46012 14.4201 6.50678 14.4669 6.50678 14.4669C6.56012 14.507 6.57345 14.5538 6.58678 14.6273Z" fill="white"/>
        <path d="M5.88663 14.2529C5.72663 14.3866 5.60663 14.5671 5.50663 14.7543C5.4533 14.8546 5.39996 14.9616 5.34663 15.0685C5.33996 15.0819 5.33329 15.0886 5.32663 15.1019C5.27996 15.0886 5.22663 15.0752 5.17996 15.0618C5.12663 15.0485 5.07996 15.0284 5.02663 15.0017C5.00663 14.9883 4.97996 14.9816 4.95996 14.9682C5.00663 14.8746 5.06663 14.7877 5.11996 14.7008C5.19996 14.5805 5.27996 14.4602 5.3733 14.3465C5.40663 14.3064 5.44663 14.2596 5.49329 14.2262C5.53996 14.1994 5.59996 14.2061 5.65996 14.2061C5.71996 14.2128 5.78663 14.2128 5.83996 14.2329C5.86663 14.2396 5.87996 14.2529 5.88663 14.2529Z" fill="white"/>
        <path d="M5.63357 16.4457C5.6269 16.4524 5.62023 16.4591 5.61357 16.4658C5.6069 16.4658 5.60023 16.4658 5.60023 16.4725C5.56023 16.4791 5.52023 16.4791 5.48023 16.4791C5.4069 16.4858 5.3269 16.4858 5.25357 16.4858C5.21357 16.4858 5.17357 16.4791 5.15357 16.4524C5.1269 16.4123 5.12023 16.3321 5.1069 16.2786C5.05357 15.9978 5.05357 15.7103 5.0869 15.4296C5.23357 15.483 5.38023 15.5232 5.53357 15.5499C5.50023 15.8039 5.55357 16.1783 5.5869 16.292C5.60023 16.3388 5.61357 16.3922 5.63357 16.4457Z" fill="white"/>
        <path d="M5.16003 14.166C5.03337 14.3265 4.91337 14.4936 4.8067 14.6674C4.7667 14.741 4.71337 14.8145 4.68003 14.888C4.6267 14.8747 4.58003 14.8546 4.53337 14.8212C4.49337 14.8011 4.46003 14.7744 4.4267 14.7476C4.42003 14.741 4.39337 14.7209 4.38003 14.7075C4.37337 14.7075 4.37337 14.7008 4.3667 14.7008C4.38003 14.6674 4.40003 14.6273 4.41337 14.6072C4.44003 14.5471 4.47337 14.4869 4.50003 14.4334C4.56003 14.3265 4.6267 14.2262 4.70003 14.1259C4.7267 14.0925 4.75337 14.0457 4.80003 14.0323C4.84003 14.0189 4.89337 14.0256 4.9267 14.0323C5.0267 14.0457 5.10003 14.0925 5.16003 14.166Z" fill="white"/>
        <path d="M4.17328 14.8546C4.17328 14.8479 4.18661 14.8479 4.19328 14.8546C4.22661 14.9014 4.27328 14.9415 4.31995 14.9816C4.33995 15.0017 4.36661 15.0151 4.38661 15.0284C4.39328 15.0284 4.39328 15.0351 4.39328 15.0418C4.33994 15.2557 4.30661 15.483 4.30661 15.7103C4.30661 15.7237 4.28661 15.7237 4.28661 15.7103C4.21328 15.4429 4.13328 15.0151 4.17328 14.8546Z" fill="white"/>
        <path d="M4.80017 15.3293C4.77351 15.5231 4.76017 15.717 4.76684 15.9109C4.77351 16.0178 4.78017 16.1248 4.79351 16.2251C4.77351 16.2184 4.74684 16.2184 4.72017 16.2251C4.72684 16.2251 4.71351 16.2251 4.70684 16.2251C4.70017 16.2251 4.70017 16.2251 4.69351 16.2251C4.66684 16.2184 4.66684 16.2184 4.64017 16.205C4.61351 16.185 4.58017 16.1515 4.56684 16.1181C4.51351 16.0312 4.50684 15.9176 4.50017 15.8173C4.49351 15.6167 4.50684 15.4162 4.54684 15.2223C4.58017 15.2357 4.60684 15.249 4.65351 15.2691C4.70684 15.2891 4.75351 15.3092 4.80017 15.3293Z" fill="white"/>
        <mask id="mask0_1576_3479" style="mask-type:alpha" maskUnits="userSpaceOnUse" x="0" y="0" width="24" height="24">
            <path d="M11.9999 6.10352e-05C18.6065 6.10352e-05 23.9665 5.37499 23.9665 12.0001C23.9665 18.6251 18.6065 24.0001 11.9999 24.0001C5.3932 24.0001 0.0332031 18.6251 0.0332031 12.0001C0.0332031 5.36831 5.3932 6.10352e-05 11.9999 6.10352e-05Z" fill="url(#paint1_radial_1576_3479)"/>
        </mask>
        <g mask="url(#mask0_1576_3479)">
            <g opacity="0.8">
                <path d="M9.88011 25.4106C9.00677 25.4106 8.17344 25.3571 7.47344 25.3037L7.2801 25.2903L7.08677 25.2636C7.0001 25.2502 6.88677 25.2368 6.7801 25.2301C6.10677 25.1566 4.8601 25.0229 3.4801 24.3744L3.26677 24.2741L3.06677 24.1605C0.420104 22.6697 -0.57323 20.4301 -1.10656 19.2268C-1.1399 19.1532 -1.1799 19.0597 -1.2199 18.9727C-1.48656 18.4179 -1.6599 17.9232 -1.80656 17.4686L-1.8399 17.3683L-1.86656 17.268C-2.25323 15.8975 -2.34656 14.7143 -2.17323 13.5443C-1.9999 12.3677 -1.5599 11.2981 -0.806563 10.1817L-0.41323 9.53988C-0.33323 9.41286 -0.279896 9.26578 -0.246563 9.11871C0.0534372 7.63459 0.72677 6.59169 1.0601 6.0903C1.15344 5.48194 1.3001 4.88695 1.51344 4.31202L1.54677 4.22512L1.5801 4.13821C1.58677 4.12484 1.59344 4.10478 1.60677 4.06467C1.75344 3.61676 2.10677 2.56049 3.0001 1.45074L3.33344 1.04294L3.67344 0.735423C4.55344 -0.0668056 5.60677 -0.661792 6.74677 -1.00274C7.3801 -1.18993 8.0401 -1.31026 8.7001 -1.35037L8.76677 -1.35706L8.8601 -1.36374C8.97344 -1.37043 9.08677 -1.37043 9.2001 -1.37043C9.61344 -1.37043 10.0268 -1.337 10.4334 -1.26346C10.6868 -1.22335 10.9468 -1.25009 11.1868 -1.35037C11.8934 -1.64452 12.6401 -1.84508 13.3934 -1.94536C13.4601 -1.95204 13.5134 -1.95873 13.5534 -1.96541C13.6734 -1.97878 13.8668 -2.00552 14.0934 -2.02558C14.4934 -2.06569 15.1068 -2.11249 15.7734 -2.11249C17.0734 -2.11249 18.2001 -1.94536 19.2001 -1.59772L19.2868 -1.57098L19.3734 -1.53756C21.6001 -0.708588 22.7268 0.468013 23.5401 1.49754L23.5801 1.54434L23.6934 1.64461C24.4268 2.21955 25.0468 2.92149 25.5334 3.71704L25.6868 3.96439L25.8134 4.22512C26.8934 6.44461 26.5534 8.4903 26.4201 9.2591L26.4134 9.29921C26.3201 9.86746 26.1734 10.4223 25.9734 10.9638C25.9001 11.4853 25.7801 11.9934 25.6068 12.4881C25.3201 13.3705 24.8934 14.1995 24.3468 14.9549C24.0334 15.4028 23.6801 15.8173 23.2868 16.1984C23.1468 16.3321 23.0601 16.5059 23.0334 16.6998C23.0134 16.8201 23.0001 16.9338 22.9734 17.0474C22.6534 18.7588 21.9134 19.9421 21.6068 20.4168L20.6868 21.7404C19.5801 23.131 18.2668 24.0402 16.6801 24.5349L16.2934 24.6552L15.8801 24.7287C15.4068 24.8156 14.9201 24.8558 14.4401 24.8558C14.3734 24.8558 14.3068 24.8558 14.2334 24.8558H14.2134L14.1334 24.8624H14.0468C13.8601 24.8691 13.6801 24.8959 13.5068 24.9493C12.4601 25.2636 11.3001 25.4106 9.88011 25.4106Z" stroke="url(#paint2_linear_1576_3479)" stroke-width="0.16558" stroke-miterlimit="10"/>
                <path d="M9.87976 24.5014C9.03976 24.5014 8.23309 24.4479 7.55976 24.3944L7.39976 24.381L7.23976 24.361C7.13976 24.3476 7.01976 24.3342 6.89976 24.3209C6.24643 24.2473 5.15976 24.1337 3.93976 23.5587L3.75976 23.4718L3.59309 23.3782C1.25309 22.0613 0.393094 20.1092 -0.126906 18.9459C-0.166906 18.8657 -0.206906 18.7587 -0.253572 18.6652C-0.493572 18.1704 -0.653572 17.7159 -0.786906 17.2947L-0.813572 17.2078L-0.833572 17.1276C-1.17357 15.9108 -1.26691 14.8679 -1.11357 13.8585C-0.960239 12.8423 -0.580239 11.9064 0.0930946 10.917L0.599761 10.0947C0.686428 9.94761 0.746428 9.78716 0.779761 9.62003C1.02643 8.2295 1.68643 7.24009 1.98643 6.79218L2.03976 6.71195C2.04643 6.69858 2.05309 6.68521 2.05976 6.67184C2.07976 6.61168 2.09309 6.55819 2.11309 6.49803C2.19309 5.92978 2.33309 5.36822 2.52643 4.82003L2.57976 4.67296C2.58643 4.6529 2.59976 4.62616 2.61976 4.54594C2.75976 4.11808 3.05976 3.22895 3.83309 2.27296L4.11309 1.93201L4.39976 1.67129C5.15976 0.982706 6.06643 0.467943 7.05309 0.173792C7.61309 0.00666133 8.19309 -0.0936172 8.77976 -0.127043L8.83309 -0.133729L8.91309 -0.140414C9.01309 -0.147099 9.10643 -0.147099 9.19976 -0.147099C9.61976 -0.147099 10.0398 -0.267433 10.4464 -0.18721C10.7664 -0.120358 11.0931 -0.153784 11.3864 -0.287489C11.9398 -0.534843 12.6864 -0.628436 13.5398 -0.7354C13.5998 -0.742085 13.6531 -0.74877 13.6931 -0.755455C13.8064 -0.768826 13.9864 -0.788882 14.1998 -0.808937C14.5798 -0.842363 15.1598 -0.88916 15.7798 -0.88916C16.9598 -0.88916 17.9664 -0.742085 18.8598 -0.427879L18.9331 -0.401138L18.9998 -0.374397C20.9598 0.367664 21.9331 1.36376 22.6864 2.33312C22.7264 2.38661 22.7731 2.44009 22.7864 2.46014L22.8064 2.47351L22.9464 2.60053L22.9664 2.62059C23.6198 3.12198 24.1731 3.74371 24.5998 4.44566L24.7264 4.6529L24.8331 4.87351C25.7664 6.77881 25.4731 8.51697 25.3464 9.25903L25.3398 9.29914C25.2531 9.84064 25.1064 10.3621 24.9064 10.8702C24.8464 11.3649 24.7331 11.8529 24.5731 12.3209C24.3198 13.103 23.9464 13.8384 23.4598 14.5003C23.1331 14.9682 22.7531 15.3961 22.3331 15.7771C22.1398 15.9509 22.0131 16.1983 21.9864 16.459C21.9664 16.6529 21.9398 16.8401 21.9064 17.0273C21.6264 18.5381 20.9731 19.581 20.6731 20.0423L19.9398 21.1253C18.9531 22.4022 17.7798 23.2312 16.3598 23.6724L16.0398 23.7727L15.6931 23.8328C15.2798 23.9064 14.8598 23.9398 14.4331 23.9398C14.3731 23.9398 14.3064 23.9398 14.2398 23.9398H14.1798C14.1798 23.9398 14.1664 23.9398 14.1398 23.9398L14.0664 23.9465H13.9931L13.8464 23.9532C13.6531 23.9599 13.4598 23.9933 13.2731 24.0535C12.3264 24.361 11.2331 24.5014 9.87976 24.5014Z" stroke="url(#paint3_linear_1576_3479)" stroke-width="0.16558" stroke-miterlimit="10"/>
                <path d="M9.88025 23.4318C9.08025 23.4318 8.30025 23.3783 7.64025 23.3315L7.51358 23.3248L7.38691 23.3047C7.27358 23.2914 7.14025 23.2713 7.01358 23.2579C6.39358 23.1911 5.44691 23.0841 4.39358 22.5894L4.25358 22.5226L4.12025 22.449C2.09358 21.3125 1.34691 19.6279 0.860247 18.5181C0.820247 18.4245 0.77358 18.3175 0.726913 18.2173C0.51358 17.7827 0.366914 17.3616 0.246914 16.9805L0.226914 16.9136L0.206914 16.8468C-0.0930862 15.7772 -0.173086 14.8813 -0.0397527 14.0256C0.0935806 13.1565 0.43358 12.3476 1.03358 11.4719L1.10691 11.3716L1.18691 11.2713C1.23358 11.2111 1.28025 11.151 1.32691 11.0908L1.62691 10.5359C1.72691 10.3554 1.79358 10.1549 1.82691 9.95432C2.02025 8.71087 2.61358 7.81504 2.89358 7.40056C2.90691 7.37382 2.92691 7.34708 2.94025 7.32702L3.00025 7.23343C3.02025 7.17995 3.05358 7.11309 3.08025 7.04624C3.10691 6.95933 3.14025 6.85906 3.17358 6.75209C3.24025 6.22396 3.36691 5.70251 3.54691 5.20112L3.56691 5.14095L3.58691 5.08078C3.60691 5.03399 3.62025 4.98719 3.64691 4.90697C3.78025 4.51254 4.02025 3.77048 4.67358 2.96825L4.90025 2.69415L5.12691 2.48691C5.77358 1.89861 6.54025 1.46407 7.38025 1.21003C7.86691 1.06296 8.36691 0.976049 8.87358 0.949308H8.91358H8.98025C9.06025 0.942622 9.14025 0.942623 9.22025 0.942623C9.65358 0.942623 10.0869 0.996104 10.5069 1.10975C10.8736 1.20335 11.2536 1.16324 11.5936 0.996105C12.1336 0.73538 12.8536 0.454601 13.7002 0.347637C13.7602 0.340952 13.8069 0.334266 13.8469 0.327581C13.9536 0.314211 14.1202 0.294155 14.3202 0.274099C14.6736 0.240673 15.2202 0.200562 15.8002 0.200562C16.8602 0.200562 17.7536 0.334266 18.5269 0.601676L18.5869 0.621731L18.6402 0.641787C20.4402 1.32368 21.2536 2.2195 21.8669 3.00836C22.0002 3.18218 22.0202 3.20892 22.1136 3.28914L22.2269 3.38942L22.2736 3.43622C22.5736 3.66351 23.1736 4.13817 23.7069 5.02062L23.8069 5.18775L23.8936 5.36156C24.6736 6.95933 24.4336 8.40335 24.3136 9.09192L24.3069 9.13204C24.2202 9.64011 24.0802 10.1348 23.8869 10.6162L23.8802 10.663C23.8269 11.1176 23.7269 11.5655 23.5802 12C23.3602 12.6819 23.0336 13.317 22.6136 13.8986C22.2602 14.4067 21.8402 14.8546 21.3602 15.2357C21.2469 15.3292 21.1536 15.4429 21.0869 15.5699C21.0202 15.6969 20.9802 15.844 20.9736 15.9911C20.9602 16.2786 20.9269 16.566 20.8736 16.8468C20.6336 18.1571 20.0602 19.0596 19.7736 19.5142L19.1936 20.3699C18.3202 21.5331 17.2936 22.2886 16.0469 22.6696L15.7936 22.7499L15.5136 22.7967C15.1602 22.8568 14.8002 22.8902 14.4402 22.8902C14.3869 22.8902 14.3269 22.8902 14.2669 22.8902H14.2536H14.1936C14.1802 22.8902 14.1536 22.8903 14.0869 22.8969L14.0269 22.9036H13.9669L13.6669 22.917C13.4602 22.9237 13.2536 22.9638 13.0536 23.0306C12.1869 23.2914 11.1669 23.4318 9.88025 23.4318Z" stroke="url(#paint4_linear_1576_3479)" stroke-width="0.155227" stroke-miterlimit="10"/>
                <path d="M9.87982 22.3554C9.11315 22.3554 8.35982 22.302 7.71982 22.2552L7.62649 22.2485L7.53315 22.2351C7.39982 22.2151 7.26649 22.2017 7.12649 22.1883C6.53982 22.1215 5.73982 22.0345 4.84649 21.6134L4.73982 21.5599L4.63982 21.5064C2.92649 20.5437 2.29315 19.1131 1.83315 18.0769C1.78649 17.9699 1.73315 17.8563 1.68649 17.7493C1.49315 17.3549 1.36649 16.9738 1.25982 16.6529L1.24649 16.5995L1.23315 16.5527C0.733153 14.761 0.91982 13.5109 1.90649 12.0802L1.95982 12L2.01982 11.9265C2.08649 11.8396 2.14649 11.7593 2.20649 11.6858C2.29982 11.5655 2.38649 11.4451 2.48649 11.3181C2.54649 11.2379 2.59982 11.151 2.63315 11.0574L2.74649 10.7699C2.79315 10.6496 2.82649 10.5159 2.83315 10.3889C2.93315 9.23901 3.48649 8.40335 3.76649 7.98887C3.78649 7.95544 3.81982 7.91533 3.82649 7.89528L3.89315 7.795L3.91315 7.76826C3.94649 7.7014 4.01315 7.55433 4.07315 7.40057C4.10649 7.2936 4.15315 7.13316 4.20649 6.98608C4.20649 6.9794 4.20649 6.97271 4.20649 6.96603C4.25982 6.48469 4.36649 6.01004 4.53315 5.55544L4.54649 5.50865L4.56649 5.46185C4.59315 5.38831 4.61982 5.32146 4.64649 5.23455C4.76649 4.88023 4.95982 4.28525 5.48649 3.63678L5.65315 3.42954L5.81982 3.27578C7.06649 2.13929 8.45982 2.04569 8.92649 2.01227H8.95982H9.00649C9.07315 2.01227 9.13315 2.00558 9.19315 2.00558C9.74649 2.00558 10.2932 2.11923 10.7998 2.33316C10.8932 2.37327 10.9865 2.38664 11.0865 2.37996C11.1865 2.37327 11.2798 2.34653 11.3665 2.29973C11.8398 2.02564 12.7065 1.52425 13.8132 1.39054C13.8665 1.38386 13.9132 1.37717 13.9532 1.37048C14.0532 1.35711 14.2065 1.33706 14.3998 1.32369C14.7332 1.29026 15.2398 1.25684 15.7798 1.25684C16.7198 1.25684 17.4998 1.37048 18.1598 1.59778L18.1998 1.61115L18.2398 1.62452C19.7865 2.21282 20.4532 2.94152 20.9998 3.65015C21.1465 3.83734 21.2132 3.92425 21.3798 4.07132L21.4665 4.15154L21.5332 4.22508L21.5865 4.26519C21.8465 4.46575 22.3332 4.84681 22.7665 5.56213L22.8398 5.68915L22.9065 5.82285C23.5332 7.1131 23.3398 8.27633 23.2332 8.90475L23.2265 8.94486C23.1532 9.39945 23.0198 9.84736 22.8398 10.2685L22.8265 10.302C22.8265 10.3086 22.8198 10.322 22.8198 10.3354C22.8132 10.3755 22.8065 10.4156 22.7998 10.4557L22.7932 10.5025C22.7532 10.8903 22.6665 11.2646 22.5398 11.6323C22.3532 12.2073 22.0732 12.7554 21.7198 13.2435C21.3665 13.7449 20.9732 14.1527 20.5265 14.4802C20.3332 14.6206 20.1732 14.8078 20.0598 15.0217C19.9465 15.2357 19.8865 15.4763 19.8865 15.717C19.8798 16.0178 19.8532 16.3187 19.7998 16.6195C19.5932 17.7293 19.1265 18.478 18.8332 18.9326L18.4132 19.561C17.6598 20.6106 16.7732 21.2858 15.7065 21.6134L15.6532 21.6334C15.5598 21.6602 15.4732 21.6869 15.3798 21.7003L15.3132 21.7137C15.0198 21.7671 14.7198 21.7939 14.4198 21.7939C14.3665 21.7939 14.3198 21.7939 14.2598 21.7939H14.2665C14.2398 21.7939 14.2132 21.7939 14.1798 21.7939C14.1598 21.7939 14.1065 21.7939 14.0065 21.8006H13.9598H13.9198C13.7798 21.8073 13.5998 21.8139 13.4398 21.8206C13.2198 21.8273 13.0065 21.8741 12.7998 21.9476C12.0398 22.2284 11.0998 22.3554 9.87982 22.3554Z" stroke="url(#paint5_linear_1576_3479)" stroke-width="0.14488" stroke-miterlimit="10"/>
                <path d="M9.88002 21.2858C9.14669 21.2858 8.42002 21.239 7.80669 21.1855L7.74002 21.1788L7.67335 21.1721C7.52669 21.1521 7.38002 21.1387 7.24002 21.1186C6.70002 21.0585 6.03335 20.9849 5.30002 20.644L5.22668 20.6106L5.16002 20.5705C3.75335 19.7816 3.22669 18.5916 2.80669 17.6423C2.75335 17.522 2.70002 17.4017 2.64668 17.288C2.48002 16.9537 2.36668 16.6195 2.28002 16.3253L2.26668 16.2919L2.26002 16.2585C1.84668 14.781 1.98002 13.8451 2.78002 12.6819L2.81335 12.6284L2.85335 12.5816C2.92002 12.4947 2.98668 12.4078 3.04668 12.3276C3.25335 12.0535 3.45335 11.7861 3.76002 11.4652C3.82668 11.3916 3.86669 11.3047 3.87335 11.2044L3.89335 10.8568L3.88668 10.7432L3.89335 10.6228C3.92668 9.67352 4.40002 8.95151 4.66002 8.57045C4.68668 8.52366 4.72002 8.47686 4.74002 8.45012L4.78002 8.38327L4.82002 8.32979C4.86668 8.24956 4.99335 7.98884 5.08668 7.72812C5.12002 7.62115 5.18002 7.41391 5.24002 7.25346C5.25335 7.19998 5.26002 7.18661 5.27335 7.07965C5.32002 6.67853 5.40668 6.2841 5.54668 5.90305L5.56002 5.8763L5.57335 5.84956C5.61335 5.74929 5.64002 5.66238 5.67335 5.56878C5.77335 5.26126 5.92668 4.80667 6.33335 4.30527L6.44668 4.17157L6.56002 4.07129C7.43335 3.27575 8.38668 3.12867 9.02668 3.08188H9.04668H9.08002C9.12669 3.08188 9.17335 3.08188 9.22002 3.08188C9.76668 3.08188 10.4267 3.3426 10.7667 3.50305C10.8467 3.54316 10.94 3.56321 11.0267 3.56321C11.12 3.56321 11.2067 3.54984 11.2934 3.5231C11.5067 3.44288 11.7134 3.35597 11.92 3.24901C12.36 2.99497 13.0867 2.5738 13.9867 2.46683C14.0334 2.46015 14.08 2.45346 14.12 2.44678C14.2134 2.43341 14.3534 2.42004 14.5334 2.39998C14.84 2.37324 15.3134 2.33313 15.8067 2.33313C16.6267 2.33313 17.2867 2.42672 17.8334 2.61391L17.86 2.62059L17.8867 2.63397C19.18 3.12199 19.6933 3.68355 20.1867 4.31864C20.3467 4.5192 20.46 4.66628 20.6934 4.8802L20.7533 4.93369L20.8067 4.98717C20.8534 5.03397 20.9067 5.08076 20.96 5.12087C21.18 5.29469 21.5534 5.58215 21.88 6.12366L21.9334 6.20388L21.9734 6.29079C22.4534 7.26683 22.3 8.17603 22.2067 8.72422L22.2 8.76433C22.14 9.1387 22.0334 9.50639 21.88 9.85402C21.84 9.94761 21.8067 10.0412 21.7934 10.1415C21.78 10.2083 21.7734 10.2685 21.7667 10.3287L21.76 10.3755C21.7267 10.6897 21.66 10.9972 21.5533 11.298C21.4 11.7727 21.1734 12.2273 20.88 12.6284C20.4467 13.2501 19.94 13.6913 19.3334 13.9721C19.1867 14.039 19.06 14.1459 18.9667 14.2796C18.8734 14.4134 18.8267 14.5738 18.82 14.7342C18.82 14.8011 18.8133 14.8546 18.82 14.888C18.8467 15.356 18.8867 15.8908 18.78 16.439C18.6134 17.3482 18.2334 17.9565 17.94 18.3978C17.94 18.3978 16.62 20.2362 15.42 20.6039L15.2934 20.644L15.1534 20.6707C14.92 20.7108 14.68 20.7309 14.4467 20.7309C14.4 20.7309 14.3534 20.7309 14.3067 20.7309H14.3C14.2667 20.7309 14.2334 20.7309 14.1934 20.7309C14.1467 20.7309 14.0667 20.7309 13.9534 20.7376H13.9267H13.9C13.44 20.751 13.0067 20.771 12.8867 20.7911C12.82 20.8044 12.76 20.8178 12.7 20.8445C12 21.1454 11.1134 21.2858 9.88002 21.2858Z" stroke="url(#paint6_linear_1576_3479)" stroke-width="0.134533" stroke-miterlimit="10"/>
                <path d="M9.87991 20.2095C9.18658 20.2095 8.48658 20.1627 7.88658 20.1159H7.85324L7.81991 20.1092C7.65991 20.0891 7.49991 20.0691 7.35324 20.0557C6.84658 20.0022 6.31991 19.9421 5.75324 19.6747L5.71991 19.6546L5.68658 19.6346C4.58658 19.0195 4.17991 18.0969 3.78658 17.2011C3.73324 17.0741 3.67324 16.9404 3.61324 16.8134C3.47991 16.546 3.38658 16.2652 3.29991 15.9978L3.29324 15.9844L3.28658 15.9644C2.95991 14.7878 3.03991 14.1928 3.65991 13.2903L3.67991 13.2635L3.69991 13.2368C3.77324 13.1432 3.83991 13.0563 3.89991 12.9761C4.19991 12.5816 4.45324 12.2474 5.03324 11.7125C5.07324 11.6724 5.10658 11.619 5.11991 11.5655C5.13324 11.5053 5.13324 11.4518 5.11324 11.3917L5.00658 11.0975C4.98658 11.0039 4.97324 10.9103 4.95991 10.81L4.95324 10.7298V10.6697C4.97324 10.0212 5.31324 9.51311 5.53991 9.17884C5.57324 9.12536 5.60658 9.07857 5.63324 9.03177L5.65324 8.99834L5.67991 8.96492C5.79991 8.80447 5.99324 8.35656 6.09324 8.08246C6.11991 7.99556 6.18658 7.76826 6.24658 7.60113C6.28658 7.47411 6.31324 7.34709 6.32658 7.22007C6.35991 6.89918 6.43324 6.57829 6.54658 6.27745L6.55324 6.26408L6.55991 6.25071C6.60658 6.12369 6.64658 6.01673 6.67991 5.91645C6.76658 5.64904 6.87324 5.34152 7.15324 4.99389L7.21324 4.92703L7.26658 4.87355C7.88658 4.31199 8.56658 4.19166 9.09324 4.15823H9.10658H9.12658C9.15324 4.15823 9.18658 4.15823 9.21324 4.15823C9.72658 4.15823 10.1132 4.36547 10.3732 4.50586L10.4332 4.53929L10.4399 4.54597C10.5132 4.58609 10.5732 4.61951 10.6332 4.64625C10.7932 4.72648 10.9799 4.74653 11.1532 4.69974C11.5066 4.60614 12.0599 4.39221 12.4332 4.18497L12.4399 4.17829C12.8332 3.95099 13.4199 3.61004 14.1132 3.52982C14.1599 3.52313 14.1999 3.51645 14.2399 3.50976C14.3199 3.49639 14.4532 3.48302 14.6199 3.46965C14.9066 3.44291 15.3399 3.40948 15.7932 3.40948C16.4932 3.40948 17.0399 3.48302 17.4732 3.6301L17.4866 3.63678L17.4999 3.64347C18.5332 4.0379 18.9132 4.4457 19.3332 4.9872C19.5066 5.20781 19.6666 5.41506 19.9732 5.68915L19.9999 5.71589L20.0266 5.74263C20.1066 5.82954 20.1999 5.90308 20.2932 5.97662C20.4799 6.11701 20.7266 6.31756 20.9532 6.69194L20.9799 6.73205L20.9999 6.77884C21.3266 7.44737 21.2199 8.08915 21.1399 8.55712L21.1332 8.59723C21.0866 8.89138 20.9999 9.18553 20.8799 9.45962C20.8066 9.62007 20.7599 9.7872 20.7332 9.95433C20.7132 10.0546 20.7066 10.1281 20.6932 10.2017L20.6866 10.2552C20.6599 10.4958 20.6066 10.7365 20.5332 10.9705C20.4132 11.3449 20.2332 11.6992 19.9999 12.0134C19.6066 12.5816 19.1732 12.9293 18.5932 13.1164C18.3132 13.2034 18.0799 13.3839 17.9199 13.6312L17.8732 13.7047L17.8199 13.7649C17.6732 13.932 17.7132 14.5805 17.7399 14.9749C17.7666 15.4028 17.7932 15.844 17.7132 16.2585C17.5799 16.9671 17.2799 17.4485 17.0066 17.8696C17.0066 17.8696 15.9999 19.327 15.0932 19.6011L15.0266 19.6212L14.9599 19.6346C14.7866 19.668 14.6132 19.6813 14.4332 19.6813C14.3932 19.6813 14.3532 19.6813 14.3132 19.6813C14.2732 19.6813 14.2332 19.6813 14.1866 19.6813C14.1266 19.6813 14.0266 19.6813 13.8732 19.6947H13.8599H13.8466C13.2399 19.7148 12.8666 19.7281 12.6666 19.7683C12.5266 19.795 12.3932 19.8351 12.2666 19.8886C11.7266 20.0958 10.9666 20.2095 9.87991 20.2095Z" stroke="url(#paint7_linear_1576_3479)" stroke-width="0.134533" stroke-miterlimit="10"/>
            </g>
        </g>
    </g>
    <defs>
        <radialGradient id="paint0_radial_1576_3479" cx="0" cy="0" r="1" gradientUnits="userSpaceOnUse" gradientTransform="translate(11.9999 13.2566) rotate(90) scale(13.483 13.4455)">
            <stop offset="0.1667" stop-color="#073183"/>
            <stop offset="1" stop-color="#0054F9"/>
        </radialGradient>
        <radialGradient id="paint1_radial_1576_3479" cx="0" cy="0" r="1" gradientUnits="userSpaceOnUse" gradientTransform="translate(11.9999 13.2566) rotate(90) scale(13.483 13.4455)">
            <stop offset="0.1667" stop-color="#073183"/>
            <stop offset="1" stop-color="#0054F9"/>
        </radialGradient>
        <linearGradient id="paint2_linear_1576_3479" x1="-1.65301" y1="-2.693" x2="25.8548" y2="26.0977" gradientUnits="userSpaceOnUse">
            <stop offset="0.2057" stop-color="#89D0FF"/>
            <stop offset="0.3984" stop-color="#EBBF9A"/>
            <stop offset="0.6015" stop-color="#EB8280"/>
            <stop offset="0.8411" stop-color="#A281FF"/>
        </linearGradient>
        <linearGradient id="paint3_linear_1576_3479" x1="-0.582306" y1="-1.45729" x2="24.777" y2="25.1933" gradientUnits="userSpaceOnUse">
            <stop offset="0.2057" stop-color="#89D0FF"/>
            <stop offset="0.3984" stop-color="#EBBF9A"/>
            <stop offset="0.6015" stop-color="#EB80DA"/>
            <stop offset="0.8411" stop-color="#A281FF"/>
        </linearGradient>
        <linearGradient id="paint4_linear_1576_3479" x1="0.493821" y1="-0.385145" x2="23.7043" y2="24.1249" gradientUnits="userSpaceOnUse">
            <stop offset="0.2057" stop-color="#89D0FF"/>
            <stop offset="0.3984" stop-color="#EBBF9A"/>
            <stop offset="0.6015" stop-color="#EB8280"/>
            <stop offset="0.8411" stop-color="#A281FF"/>
        </linearGradient>
        <linearGradient id="paint5_linear_1576_3479" x1="1.56846" y1="0.690356" x2="22.6254" y2="23.0535" gradientUnits="userSpaceOnUse">
            <stop offset="0.2057" stop-color="#89D0FF"/>
            <stop offset="0.3984" stop-color="#EBBF9A"/>
            <stop offset="0.6015" stop-color="#EB80E7"/>
            <stop offset="0.8411" stop-color="#A281FF"/>
        </linearGradient>
        <linearGradient id="paint6_linear_1576_3479" x1="2.6417" y1="1.76384" x2="21.5489" y2="21.9782" gradientUnits="userSpaceOnUse">
            <stop offset="0.2057" stop-color="#89D0FF"/>
            <stop offset="0.3984" stop-color="#EBBF9A"/>
            <stop offset="0.6015" stop-color="#EB80D3"/>
            <stop offset="0.8411" stop-color="#A281FF"/>
        </linearGradient>
        <linearGradient id="paint7_linear_1576_3479" x1="3.71804" y1="2.83391" x2="20.4743" y2="20.9077" gradientUnits="userSpaceOnUse">
            <stop offset="0.2057" stop-color="#89D0FF"/>
            <stop offset="0.3984" stop-color="#EBBF9A"/>
            <stop offset="0.6015" stop-color="#A280EB"/>
            <stop offset="0.8411" stop-color="#A281FF"/>
        </linearGradient>
        <clipPath id="clip0_1576_3479">
            <rect width="24" height="24" fill="white"/>
        </clipPath>
    </defs>
</svg>
