<svg width="24" height="24" viewBox="0 0 24 24" fill="none" xmlns="http://www.w3.org/2000/svg">
  <circle cx="12" cy="12" r="12" fill="#213147"/>
  <mask id="mask0_2878_161" style="mask-type:luminance" maskUnits="userSpaceOnUse" x="4" y="3" width="16" height="18">
   <path d="M19.6386 3.37817H4.36133V20.6219H19.6386V3.37817Z" fill="white"/>
  </mask>
  <g mask="url(#mask0_2878_161)">
    <path d="M4.94141 8.61993V15.3802C4.94141 15.8118 5.17198 16.2108 5.54543 16.4259L11.3975 19.8067C11.7709 20.0218 12.2306 20.0218 12.6041 19.8067L18.4562 16.4259C18.8296 16.2108 19.0602 15.8118 19.0602 15.3802V8.61993C19.0602 8.1883 18.8296 7.78923 18.4562 7.57412L12.6041 4.19331C12.2306 3.97821 11.7709 3.97821 11.3975 4.19331L5.54401 7.57412C5.17057 7.78923 4.94141 8.1883 4.94141 8.61993Z" fill="#213147"/>
    <path d="M13.2774 13.3111L12.4427 15.6008C12.4201 15.6645 12.4201 15.7339 12.4427 15.7975L13.8786 19.7373L15.5393 18.7779L13.5461 13.3111C13.5009 13.1852 13.3226 13.1852 13.2774 13.3111Z" fill="#12AAFF"/>
    <path d="M14.9505 9.46049C14.9052 9.33454 14.7269 9.33454 14.6817 9.46049L13.8471 11.7502C13.8244 11.8139 13.8244 11.8832 13.8471 11.9469L16.1995 18.3972L17.8602 17.4377L14.9505 9.46049Z" fill="#12AAFF"/>
    <path d="M12 4.44662C12.041 4.44662 12.082 4.45794 12.1188 4.47775L18.4518 8.13594C18.5254 8.17839 18.5707 8.25764 18.5707 8.34113V15.6561C18.5707 15.741 18.5254 15.8188 18.4518 15.8612L12.1188 19.5195C12.0835 19.5407 12.041 19.5506 12 19.5506C11.959 19.5506 11.9179 19.5393 11.8812 19.5195L5.54815 15.8641C5.47459 15.8216 5.42933 15.7424 5.42933 15.6589V8.34254C5.42933 8.25764 5.47459 8.1798 5.54815 8.13735L11.8812 4.47917C11.9179 4.45794 11.959 4.44662 12 4.44662ZM12 3.37817C11.7751 3.37817 11.5488 3.4362 11.3465 3.55365L5.01486 7.21042C4.6103 7.44392 4.36133 7.87554 4.36133 8.34254V15.6575C4.36133 16.1245 4.6103 16.5561 5.01486 16.7896L11.3479 20.4478C11.5501 20.5639 11.7751 20.6233 12.0014 20.6233C12.2263 20.6233 12.4526 20.5653 12.6549 20.4478L18.9879 16.7896C19.3925 16.5561 19.6414 16.1245 19.6414 15.6575V8.34254C19.6414 7.87554 19.3925 7.44392 18.9879 7.21042L12.6535 3.55365C12.4512 3.4362 12.2249 3.37817 12 3.37817Z" fill="#9DCCED"/>
    <path d="M7.81152 18.4058L8.39433 16.8094L9.567 17.7845L8.47072 18.7864L7.81152 18.4058Z" fill="#213147"/>
    <path d="M11.4668 7.81897H9.86128C9.74104 7.81897 9.63354 7.89397 9.59252 8.00718L6.15088 17.4463L7.81158 18.4058L11.6012 8.01143C11.6366 7.91803 11.5673 7.81897 11.4668 7.81897Z" fill="white"/>
    <path d="M14.2761 7.81897H12.6706C12.5503 7.81897 12.4429 7.89397 12.4018 8.00718L8.47217 18.785L10.1329 19.7445L14.4105 8.01143C14.4445 7.91803 14.3751 7.81897 14.2761 7.81897Z" fill="white"/>
  </g>
</svg>
