<?xml version="1.0" encoding="UTF-8"?>
<svg width="24px" height="24px" viewBox="0 0 24 24" version="1.1" xmlns="http://www.w3.org/2000/svg" xmlns:xlink="http://www.w3.org/1999/xlink">
    <title>Bitcoin Cash Icon</title>
    <g id="🚙--Design---MVP" stroke="none" stroke-width="1" fill="none" fill-rule="evenodd">
        <g id="Assets-SVG" transform="translate(-367.000000, -174.000000)" fill-rule="nonzero">
            <g id="Coin-Icon---BCH" transform="translate(367.000000, 174.000000)">
                <path d="M11.9908018,5.56354962e-12 C5.36849339,5.56354962e-12 -4.07496259e-12,5.36838767 -4.07496259e-12,11.9908018 C-4.07496259e-12,18.6131101 5.36849339,23.9816035 11.9908018,23.9816035 C18.6131101,23.9816035 23.9813921,18.6131101 23.9813921,11.9908018 C23.9813921,5.36838767 18.6131101,5.56354962e-12 11.9908018,5.56354962e-12 Z" id="Path" fill="#8AC072"></path>
                <path d="M16.7219087,12.0750854 C16.9009562,12.4212133 16.9353376,12.8166551 16.8183088,13.1887027 C16.7015444,13.5608832 16.4477835,13.8648749 16.1031765,14.0448508 L12.6561807,15.847002 L11.3153077,13.2554293 L14.7623035,11.4532781 L14.7623035,11.4532781 C15.4730719,11.0817622 16.3521769,11.3606317 16.7219087,12.0750854 M13.6425172,7.00140044 C14.0127029,7.11887746 14.3153056,7.37416405 14.4943807,7.72021625 C14.8640374,8.43438081 14.5861667,9.31798337 13.8759498,9.68955094 C13.8758175,9.68955094 13.8756853,9.68955094 13.8756853,9.68955094 L10.4281576,11.4913081 L9.08681316,8.90030209 L12.5346053,7.098412 C12.8788688,6.91860839 13.2723316,6.88405632 13.6425172,7.00140044 M14.2147505,5.18715019 C13.3544067,4.91567872 12.4399163,4.99528012 11.6397205,5.41142083 L11.1798746,5.65062506 L10.0553328,3.48898678 L8.40292849,4.34806866 L9.52760368,6.50970694 L8.11712522,7.2431866 L6.99245004,5.08141498 L6.59675322,5.2872853 L4.99329421,6.12103339 L6.07729278,8.20480363 L4.12334802,9.22082162 L5.08651702,11.0723211 L7.04059515,10.0563031 L10.5463863,16.7950891 L8.59230816,17.8111071 L9.55561053,19.6626065 L11.5095553,18.6465885 L12.4244458,20.4052863 L12.820276,20.1995494 L14.4236016,19.3656679 L13.4680345,17.5289687 L14.8819805,16.7937557 L15.8375476,18.6305882 L17.4831503,17.7748398 L16.5275831,15.9380072 L16.9907631,15.697203 C17.2860354,15.5436003 17.5529007,15.3509302 17.7856243,15.1258595 C18.1831882,14.7409194 18.4815279,14.2609109 18.6527698,13.7182346 C18.9244363,12.8582194 18.8446834,11.9440698 18.4284482,11.1439223 C17.9906078,10.3023074 17.2446919,9.72403053 16.4004854,9.47109272 C16.6785534,8.63441123 16.632142,7.69092786 16.1940348,6.84877961 C15.7777997,6.04863211 15.0746943,5.45862166 14.2147505,5.18715019" id="Fill-512" fill="#FFFFFF"></path>
            </g>
        </g>
    </g>
</svg>