<svg width="24" height="24" viewBox="0 0 24 24" fill="none" xmlns="http://www.w3.org/2000/svg">
<g clip-path="url(#clip0_3_2)">
<path d="M18.7734 0H5.22656C2.34001 0 0 2.34001 0 5.22656V18.7734C0 21.66 2.34001 24 5.22656 24H18.7734C21.66 24 24 21.66 24 18.7734V5.22656C24 2.34001 21.66 0 18.7734 0Z" fill="#00F0FF"/>
<path d="M11.0757 9.46038H15.5569L20.1411 14.0153C20.4393 14.3116 20.4409 14.7936 20.1442 15.0914L14.2651 21.0001H9.64893L11.0445 19.6433L16.1685 14.5517L11.1096 9.45996" fill="#1B1B1B"/>
<path d="M12.9175 14.5402H8.43631L3.85206 9.98514C3.55384 9.68886 3.55232 9.20694 3.84901 8.9091L9.72805 3H14.3443L12.9487 4.35679L7.82467 9.44844L12.8836 14.5402" fill="#1B1B1B"/>
</g>
<defs>
<clipPath id="clip0_3_2">
<rect width="24" height="24" fill="white"/>
</clipPath>
</defs>
</svg>
