<svg width="24" height="24" viewBox="0 0 157 157" fill="none" xmlns="http://www.w3.org/2000/svg">
    <title>BMD Icon</title>
    <g clip-path="url(#clip0_456_4019)">
        <circle cx="78.5" cy="78.5" r="78.5" fill="#012169"/>
        <path fill-rule="evenodd" clip-rule="evenodd" d="M31 78.0833C31 52.0799 52.0799 31 78.0833 31C104.087 31 125.167 52.0799 125.167 78.0833C125.167 104.087 104.087 125.167 78.0833 125.167C52.0799 125.167 31 104.087 31 78.0833ZM82.7917 54.5417C82.7917 51.9413 80.6837 49.8333 78.0833 49.8333C75.4829 49.8333 73.375 51.9413 73.375 54.5417V57.4209C63.9395 59.5619 56.8958 68 56.8958 78.0833C56.8958 88.1667 63.9395 96.605 73.375 98.7459V101.625C73.375 104.225 75.4829 106.333 78.0833 106.333C80.6837 106.333 82.7917 104.225 82.7917 101.625V98.7449C86.8262 97.8287 90.4248 95.7608 93.2169 92.9118C95.0371 91.0543 95.007 88.0735 93.1495 86.2537C91.2921 84.4335 88.3112 84.4636 86.4915 86.321C84.3492 88.5066 81.3778 89.8542 78.0833 89.8542C71.5825 89.8542 66.3125 84.5841 66.3125 78.0833C66.3125 71.5825 71.5825 66.3125 78.0833 66.3125C81.3778 66.3125 84.3492 67.6599 86.4915 69.8456C88.3112 71.7031 91.2921 71.7332 93.1495 69.913C95.007 68.0932 95.0371 65.1122 93.2169 63.255C90.4248 60.4057 86.8262 58.338 82.7917 57.4216V54.5417Z" fill="white"/>
    </g>
    <defs>
        <clipPath id="clip0_456_4019">
            <rect width="157" height="157" fill="white"/>
        </clipPath>
    </defs>
</svg>
