<svg width="24" height="24" viewBox="0 0 24 24" fill="none" xmlns="http://www.w3.org/2000/svg">
<g clip-path="url(#clip0_3_13)">
<path d="M12 24C18.6274 24 24 18.6274 24 12C24 5.37258 18.6274 0 12 0C5.37258 0 0 5.37258 0 12C0 18.6274 5.37258 24 12 24Z" fill="#FDDE00"/>
<path d="M6.15947 8.48457C6.15947 8.48457 5.54072 9.26738 5.74697 12.8064C5.74697 12.8064 4.39228 16.2752 4.85166 18.0471C5.31103 19.8143 7.10166 19.7252 7.10166 19.7252C7.10166 19.7252 9.9751 22.2518 12.1782 20.0252C14.386 17.7939 10.3407 9.15488 10.3407 9.15488L9.83447 6.16895C9.83447 6.16895 9.28135 6.60488 9.35166 9.47832C9.42197 12.3518 8.22666 10.3268 8.22666 10.3268L6.15947 8.48457Z" fill="#3C2D0C"/>
<path d="M6.3891 11.6111L5.62973 13.7486L5.35316 15.2439C5.35316 15.2439 4.41098 18.5767 8.29691 18.5299C8.29691 18.5299 11.3297 21.2439 13.3079 19.4252L13.8375 18.8486L14.7563 17.4236L16.275 12.8955C16.275 12.8955 15.7922 9.79236 12.736 8.50799C12.736 8.50799 12.4829 8.37205 12.0235 8.55486C12.0235 8.55486 10.7579 5.70486 9.95629 6.05174C9.95629 6.05174 9.26723 6.41736 9.86254 9.22517L8.78441 9.70799C8.78441 9.70799 7.60316 7.46736 6.51098 7.91736C5.49379 8.32517 6.3891 11.6111 6.3891 11.6111Z" fill="#E78C19"/>
<path d="M10.3172 7.44841L10.4109 8.6906C10.4109 8.6906 10.4812 9.4031 11.2359 9.14998C11.4515 9.07966 11.639 8.92966 11.6203 8.68591C11.6062 8.5031 11.4797 8.33435 11.3953 8.17966C11.2406 7.88435 11.114 7.57029 10.9312 7.28435C10.8375 7.13904 10.6453 6.8156 10.4344 6.8531C10.4344 6.8531 10.275 6.80622 10.3172 7.44841Z" fill="#EFB99D"/>
<path d="M6.99842 8.84531C7.01248 8.83593 7.32186 8.44687 7.96405 9.39374C8.60623 10.3406 8.54061 10.2187 8.54061 10.2187C8.54061 10.2187 8.88748 10.5984 8.17967 11.0859C8.02498 11.1984 7.85623 11.2922 7.67811 11.3672C7.56561 11.4094 7.44842 11.4328 7.33123 11.4328C7.1953 11.4281 7.13436 11.3578 7.10155 11.2312C6.99373 10.8187 6.87186 10.4062 6.81092 9.98437C6.76405 9.65624 6.6703 9.05624 6.99842 8.84531Z" fill="#EFB99D"/>
<path d="M14.4609 10.7531C14.4609 10.9781 14.1328 11.1609 13.725 11.1609C13.3171 11.1609 12.989 10.9781 12.989 10.7531C12.989 10.5281 13.3265 10.1953 13.7296 10.1953C14.1328 10.1953 14.4609 10.5281 14.4609 10.7531Z" fill="#FBFBFB"/>
<path d="M10.2166 12.5139C10.4346 12.1286 10.4104 11.7026 10.1626 11.5624C9.91477 11.4221 9.53711 11.6207 9.31909 12.006C9.10106 12.3913 9.12523 12.8173 9.37306 12.9576C9.6209 13.0978 9.99856 12.8992 10.2166 12.5139Z" fill="#FBFBFB"/>
<path d="M11.2594 14.3767L13.2704 13.3314C13.2704 13.3314 15.7735 12.0236 16.3829 13.0314C16.9922 14.0392 16.3829 15.5814 16.3829 15.5814C16.3829 15.5814 16.1204 17.3861 14.2782 17.5454L13.2891 17.6814L12.0235 17.7142C12.0235 17.7142 9.98911 17.8314 8.49379 16.7251L8.02036 16.1486C8.02036 16.1486 7.06879 14.8408 7.73442 13.8986C8.40004 12.9564 10.6782 14.4142 10.6782 14.4142C10.6782 14.4142 10.9969 14.5876 11.2594 14.3767Z" fill="#FBFBFB"/>
<path d="M15.8202 9.16387C16.0869 9.16387 16.303 8.9477 16.303 8.68105C16.303 8.4144 16.0869 8.19824 15.8202 8.19824C15.5536 8.19824 15.3374 8.4144 15.3374 8.68105C15.3374 8.9477 15.5536 9.16387 15.8202 9.16387Z" fill="#E72D36"/>
<path d="M14.7516 7.97832C15.0183 7.97832 15.2344 7.76216 15.2344 7.49551C15.2344 7.22886 15.0183 7.0127 14.7516 7.0127C14.485 7.0127 14.2688 7.22886 14.2688 7.49551C14.2688 7.76216 14.485 7.97832 14.7516 7.97832Z" fill="#E72D36"/>
<path d="M13.0407 7.59844C13.3073 7.59844 13.5235 7.38228 13.5235 7.11563C13.5235 6.84898 13.3073 6.63281 13.0407 6.63281C12.774 6.63281 12.5579 6.84898 12.5579 7.11563C12.5579 7.38228 12.774 7.59844 13.0407 7.59844Z" fill="#E72D36"/>
<path d="M13.4203 3.69385C13.5234 5.11885 13.3172 6.40791 12.9703 6.40791C12.6234 6.40791 12.1641 5.01572 12.1641 3.69385C12.1641 3.1501 12.45 3.06104 12.7969 3.06104C13.1484 3.06104 13.3828 3.1501 13.4203 3.69385Z" fill="#E72D36"/>
<path d="M16.6172 4.57986C16.0922 5.90642 15.3469 6.97986 15.0376 6.82986C14.7282 6.67986 14.9157 5.22673 15.4922 4.03611C15.7313 3.54392 16.0266 3.5908 16.336 3.7408C16.6454 3.89548 16.8188 4.07361 16.6172 4.57986Z" fill="#E72D36"/>
<path d="M18.9047 7.16696C17.7469 8.00603 16.5469 8.51228 16.3641 8.21696C16.1813 7.92165 17.1235 6.80134 18.2438 6.1029C18.7079 5.81696 18.9329 6.01384 19.1157 6.30446C19.2938 6.59978 19.3454 6.84353 18.9047 7.16696Z" fill="#E72D36"/>
<path d="M11.1657 12.9752C11.1235 12.9799 11.0813 12.9846 11.0391 12.9893C11.0438 13.0034 11.0485 13.0174 11.0485 13.0362C11.0485 13.1815 10.8188 13.3034 10.5328 13.3127C10.5328 13.3268 10.5282 13.3362 10.5328 13.3502C10.5469 13.5284 10.8563 13.6502 11.2172 13.6221C11.5828 13.594 11.8688 13.4252 11.8547 13.2471C11.836 13.069 11.5313 12.9471 11.1657 12.9752Z" fill="black"/>
<path d="M13.7062 12.3468C13.664 12.3515 13.6218 12.3562 13.5796 12.3609C13.5843 12.3749 13.589 12.389 13.589 12.4077C13.589 12.5531 13.3593 12.6749 13.0734 12.6843C13.0734 12.6984 13.0687 12.7077 13.0734 12.7218C13.0874 12.8999 13.3968 13.0218 13.7577 12.9937C14.1234 12.9656 14.4093 12.7968 14.3952 12.6187C14.3812 12.4406 14.0718 12.3187 13.7062 12.3468Z" fill="black"/>
<path d="M14.5406 13.0924C14.5406 13.0924 13.5328 13.3877 13.5937 13.9549C13.6547 14.5221 14.8687 14.8174 14.8687 14.8174C14.8687 14.8174 15.1968 14.9487 15.3843 14.6346C15.5718 14.3252 15.8484 13.9033 15.7734 13.2987C15.7734 13.2987 15.75 12.8487 14.5406 13.0924Z" fill="black"/>
</g>
<defs>
<clipPath id="clip0_3_13">
<rect width="24" height="24" fill="white"/>
</clipPath>
</defs>
</svg>
