<svg width="24" height="24" viewBox="0 0 24 24" fill="none" xmlns="http://www.w3.org/2000/svg">
<title>Brazilian Real Icon</title>
<path d="M12 24C18.6274 24 24 18.6274 24 12C24 5.37258 18.6274 0 12 0C5.37258 0 0 5.37258 0 12C0 18.6274 5.37258 24 12 24Z" fill="#005222"/>
<path d="M12.4197 16.5254H10.3827L9.25923 13.5127C9.1687 13.2754 9.02878 13.1102 8.83948 13.0169C8.65841 12.9237 8.42796 12.8771 8.14813 12.8771H6.90122V16.5254H5V7.47458H8.91356C9.93412 7.47458 10.7078 7.70339 11.2345 8.16102C11.7613 8.61864 12.0246 9.27542 12.0246 10.1314C12.0246 10.7331 11.8683 11.25 11.5555 11.6822C11.251 12.1144 10.8107 12.4237 10.2345 12.6102C10.753 12.7203 11.1275 13.089 11.358 13.7161L12.4197 16.5254ZM8.62961 11.3644C9.18104 11.3644 9.58433 11.2712 9.83948 11.0847C10.0946 10.8898 10.2222 10.589 10.2222 10.1822C10.2222 9.77542 10.0946 9.47881 9.83948 9.29237C9.58433 9.09746 9.18104 9 8.62961 9H6.87653V11.3644H8.62961Z" fill="white"/>
<path d="M20 13.8941C20 14.5805 19.7695 15.1653 19.3086 15.6483C18.8477 16.1229 18.2263 16.428 17.4445 16.5636V18H15.9383V16.6144C14.8025 16.5042 13.893 16.1737 13.2099 15.6229L13.8395 14.1992C14.5144 14.7076 15.2593 15 16.0741 15.0763V12.7881C15.5144 12.6356 15.0453 12.4703 14.6667 12.2924C14.2881 12.1144 13.9671 11.8559 13.7037 11.5169C13.4486 11.1695 13.321 10.7119 13.321 10.1441C13.321 9.45763 13.5597 8.86864 14.0371 8.37712C14.5227 7.87712 15.1564 7.55932 15.9383 7.42373V6H17.4445V7.41102C17.9136 7.47881 18.358 7.59746 18.7778 7.76695C19.1975 7.92797 19.5391 8.13136 19.8025 8.37712L19.1728 9.80085C18.5803 9.36017 17.963 9.08051 17.321 8.96186V11.3263C17.8642 11.4619 18.321 11.6186 18.6914 11.7966C19.0617 11.9661 19.3704 12.2203 19.6173 12.5593C19.8724 12.8983 20 13.3432 20 13.8941ZM15.2469 10.0169C15.2469 10.2458 15.3169 10.4364 15.4568 10.589C15.605 10.7331 15.8107 10.8559 16.0741 10.9576V9C15.8107 9.07627 15.605 9.20339 15.4568 9.38136C15.3169 9.55085 15.2469 9.76271 15.2469 10.0169ZM17.321 14.9746C17.8231 14.822 18.0741 14.4915 18.0741 13.9831C18.0741 13.7881 18.0082 13.6271 17.8766 13.5C17.7531 13.3644 17.5679 13.2458 17.321 13.1441V14.9746Z" fill="white"/>
</svg>
