<?xml version="1.0" encoding="UTF-8"?>
<svg width="24px" height="24px" viewBox="0 0 24 24" version="1.1" xmlns="http://www.w3.org/2000/svg" xmlns:xlink="http://www.w3.org/1999/xlink">
    <title>Bitcoin Icon</title>
    <g id="🚙--Design---MVP" stroke="none" stroke-width="1" fill="none" fill-rule="evenodd">
        <g id="Assets-SVG" transform="translate(-175.000000, -174.000000)" fill-rule="nonzero">
            <g id="Coin-Icon---BTC" transform="translate(175.000000, 174.000000)">
                <path d="M11.9908018,5.56354962e-12 C5.36849339,5.56354962e-12 -4.07496259e-12,5.36838767 -4.07496259e-12,11.9908018 C-4.07496259e-12,18.6131101 5.36849339,23.9816035 11.9908018,23.9816035 C18.6131101,23.9816035 23.9813921,18.6131101 23.9813921,11.9908018 C23.9813921,5.36838767 18.6131101,5.56354962e-12 11.9908018,5.56354962e-12 Z" id="Path" fill="#F9A33F"></path>
                <path d="M16.8730573,16.5755419 C15.9807225,17.1979559 15.0265374,17.3087577 14.6046872,17.3638414 C14.396511,17.3912247 14.0398943,17.4200881 13.6574802,17.4425022 L13.6574802,19.8465198 L12.1775154,19.8465198 L12.1775154,17.4814097 L11.050467,17.4814097 L11.050467,19.8465198 L9.57060793,19.8465198 L9.57060793,17.4814097 L6.6594185,17.4814097 L6.96359471,15.7039295 L7.84863436,15.7039295 C8.14614978,15.7039295 8.27037885,15.6763348 8.39481938,15.5588722 C8.51925991,15.4411982 8.54696035,15.2615683 8.54696035,15.1160881 L8.54696035,8.99281057 C8.54696035,8.60923348 8.51577093,8.50540969 8.3394185,8.30844053 C8.16306608,8.11104846 7.74829956,8.08514537 7.5147489,8.08514537 L6.65931278,8.08514537 L6.65931278,6.54861674 L9.5705022,6.54861674 L9.5705022,4.17674009 L11.0502555,4.17674009 L11.0502555,6.54861674 L12.177304,6.54861674 L12.177304,4.17674009 L13.6572687,4.17674009 L13.6572687,6.57705727 C14.7605286,6.64546256 15.581815,6.85564758 16.2986432,7.38533921 C17.2254449,8.0699207 17.1768106,9.25924229 17.1560881,9.54280176 C17.1354714,9.82636123 17.0110308,10.3727577 16.7618326,10.7251454 C16.513163,11.0779559 15.9045991,11.4306608 15.9045991,11.4306608 C15.9045991,11.4306608 16.6236476,11.582696 17.1287048,11.9631013 C17.6331278,12.3435066 18.006978,13.0141322 17.9857269,13.9961233 C17.9654273,14.9781145 17.7649692,15.9532335 16.8730573,16.5755419 Z M14.3487225,12.9244758 C14.0723524,12.7859736 13.4567048,12.5994714 12.7239119,12.5509427 C11.9908018,12.5025198 11.050467,12.5509427 11.050467,12.5509427 L11.050467,15.7248634 C11.050467,15.7248634 12.0323524,15.7457974 12.6895507,15.6973744 C13.3461145,15.6489515 14.0239295,15.4830661 14.3627841,15.296141 C14.7014273,15.1094273 15.109533,14.8189956 15.109533,14.0930749 C15.109533,13.366837 14.6254097,13.0627665 14.3487225,12.9244758 Z M12.2812335,11.0779559 C12.8208634,11.0571278 13.3947489,10.932793 13.809304,10.7045286 C14.2242819,10.47637 14.4593128,10.1170044 14.4457797,9.57748018 C14.4316123,9.03806167 14.0723524,8.58174449 13.4638943,8.39481938 C12.8552247,8.20810573 12.4475419,8.19425551 11.9839295,8.18738326 C11.5206344,8.18061674 11.0503612,8.22206167 11.0503612,8.22206167 L11.0503612,11.0779559 C11.050467,11.0779559 11.7419207,11.0987841 12.2812335,11.0779559 Z" id="Combined-Shape" fill="#FFFFFF"></path>
            </g>
        </g>
    </g>
</svg>