<svg width="24" height="24" viewBox="0 0 24 24" fill="none" xmlns="http://www.w3.org/2000/svg">
    <title>Elron Icon</title>
    <g clip-path="url(#clip0_1575_3355)">
        <path fill-rule="evenodd" clip-rule="evenodd" d="M19.2265 4.76248C19.1326 4.66873 19.0762 4.57498 19.0762 4.44373C19.0762 4.31248 19.1326 4.21873 19.2265 4.12498C19.4145 3.95623 19.7152 3.95623 19.9219 4.12498C20.0159 4.21873 20.0723 4.31248 20.0723 4.44373C20.0723 4.57498 20.0159 4.66873 19.9219 4.76248C19.8279 4.83748 19.6964 4.89373 19.5836 4.89373C19.4521 4.91248 19.3205 4.87498 19.2265 4.76248Z" fill="#0D022B"/>
        <path fill-rule="evenodd" clip-rule="evenodd" d="M18.0236 6.05624C17.9485 5.96249 17.8921 5.86874 17.8921 5.73749C17.8921 5.60624 17.9485 5.51249 18.0236 5.41874C18.1928 5.24999 18.4935 5.24999 18.6626 5.41874C18.7378 5.51249 18.7942 5.60624 18.7942 5.73749C18.7942 5.86874 18.7378 5.96249 18.6626 6.05624C18.5687 6.13124 18.4747 6.18749 18.3431 6.18749C18.2116 6.18749 18.1176 6.13124 18.0236 6.05624Z" fill="#0D022B"/>
        <path fill-rule="evenodd" clip-rule="evenodd" d="M16.7077 7.29373C16.6326 7.21873 16.5762 7.10623 16.5762 6.97498C16.5762 6.84373 16.6326 6.74998 16.7077 6.65623C16.8769 6.48748 17.1776 6.48748 17.3467 6.65623C17.4219 6.73123 17.4783 6.84373 17.4783 6.97498C17.4783 7.10623 17.4219 7.19998 17.3467 7.29373C17.2528 7.38748 17.1588 7.42498 17.0272 7.42498C16.8957 7.42498 16.7829 7.36873 16.7077 7.29373Z" fill="#0D022B"/>
        <path fill-rule="evenodd" clip-rule="evenodd" d="M15.4487 8.55001C15.3547 8.47501 15.2983 8.36251 15.2983 8.23126C15.2983 8.10001 15.3547 8.00626 15.4487 7.91251C15.6366 7.74376 15.9373 7.74376 16.1441 7.91251C16.238 7.98751 16.2944 8.10001 16.2944 8.23126C16.2944 8.36251 16.238 8.47501 16.1441 8.55001C16.0501 8.64376 15.9185 8.68126 15.8058 8.68126C15.6742 8.68126 15.5615 8.66251 15.4487 8.55001Z" fill="#0D022B"/>
        <path fill-rule="evenodd" clip-rule="evenodd" d="M14.2458 9.80624C14.1518 9.73124 14.1143 9.61874 14.1143 9.48749C14.1143 9.35624 14.1706 9.26249 14.2458 9.16874C14.415 8.99999 14.7157 8.99999 14.8848 9.16874C14.9788 9.24374 15.0164 9.35624 15.0164 9.48749C15.0164 9.61874 14.96 9.73124 14.8848 9.80624C14.8096 9.89999 14.6969 9.93749 14.5653 9.93749C14.4526 9.95624 14.321 9.91874 14.2458 9.80624Z" fill="#0D022B"/>
        <path fill-rule="evenodd" clip-rule="evenodd" d="M12.7988 10.7438C12.7988 10.6125 12.8552 10.5188 12.9304 10.425C13.0995 10.2563 13.4002 10.2563 13.5694 10.425C13.6634 10.5188 13.7009 10.6125 13.7009 10.7438C13.7009 10.875 13.6446 10.9688 13.5694 11.0625C13.4942 11.1375 13.3814 11.1938 13.2499 11.1938C13.1183 11.1938 13.0244 11.1375 12.9304 11.0625C12.8364 10.9875 12.7988 10.875 12.7988 10.7438Z" fill="#0D022B"/>
        <path fill-rule="evenodd" clip-rule="evenodd" d="M10.4494 13.5188C10.3743 13.4438 10.3179 13.3313 10.3179 13.2C10.3179 13.0688 10.3743 12.975 10.4494 12.8813C10.6186 12.7125 10.9193 12.7125 11.0884 12.8813C11.1824 12.975 11.22 13.0688 11.22 13.2C11.22 13.3313 11.1636 13.425 11.0884 13.5188C11.0133 13.6125 10.9005 13.65 10.7689 13.65C10.6562 13.6688 10.5434 13.6313 10.4494 13.5188Z" fill="#0D022B"/>
        <path fill-rule="evenodd" clip-rule="evenodd" d="M9.15279 14.775C9.05882 14.7 9.00244 14.5875 9.00244 14.4562C9.00244 14.325 9.05882 14.2312 9.15279 14.1375C9.34073 13.9687 9.64144 13.9687 9.84817 14.1375C9.94214 14.2312 9.99853 14.325 9.99853 14.4562C9.99853 14.5875 9.94214 14.6812 9.84817 14.775C9.7542 14.8687 9.62264 14.9062 9.50988 14.9062C9.35953 14.925 9.24676 14.8687 9.15279 14.775Z" fill="#0D022B"/>
        <path fill-rule="evenodd" clip-rule="evenodd" d="M7.93087 16.05C7.8557 15.975 7.79932 15.8625 7.79932 15.7313C7.79932 15.6 7.8557 15.4875 7.93087 15.4125C8.10002 15.2438 8.40073 15.2438 8.56987 15.4125C8.64505 15.4875 8.70143 15.6 8.70143 15.7313C8.70143 15.8625 8.64505 15.9563 8.56987 16.05C8.4759 16.1438 8.38193 16.1813 8.25037 16.1813C8.11882 16.1813 8.04364 16.125 7.93087 16.05Z" fill="#0D022B"/>
        <path fill-rule="evenodd" clip-rule="evenodd" d="M6.67209 17.3062C6.57812 17.2312 6.54053 17.1187 6.54053 16.9875C6.54053 16.8562 6.59691 16.7625 6.67209 16.6687C6.84123 16.5 7.14194 16.5 7.31108 16.6687C7.38626 16.7625 7.44264 16.8562 7.44264 16.9875C7.44264 17.1187 7.38626 17.2312 7.31108 17.3062C7.21711 17.4 7.12314 17.4375 6.99158 17.4375C6.87882 17.4375 6.74726 17.4 6.67209 17.3062Z" fill="#0D022B"/>
        <path fill-rule="evenodd" clip-rule="evenodd" d="M5.37496 18.5625C5.28099 18.4875 5.22461 18.375 5.22461 18.2438C5.22461 18.1125 5.28099 18.0188 5.37496 17.925C5.5629 17.7563 5.86361 17.7563 6.03275 17.925C6.12672 18.0188 6.18311 18.1125 6.18311 18.2438C6.18311 18.375 6.12672 18.4875 6.03275 18.5625C5.93878 18.6375 5.80722 18.6938 5.69446 18.6938C5.5629 18.6938 5.45014 18.6563 5.37496 18.5625Z" fill="#0D022B"/>
        <path fill-rule="evenodd" clip-rule="evenodd" d="M4.13449 19.8187C4.04052 19.725 4.00293 19.6312 4.00293 19.5C4.00293 19.3687 4.05931 19.275 4.13449 19.1812C4.30363 19.0125 4.60434 19.0125 4.77349 19.1812C4.86746 19.275 4.90504 19.3687 4.90504 19.5C4.90504 19.6312 4.84866 19.725 4.77349 19.8187C4.69831 19.8937 4.58555 19.95 4.45399 19.95C4.36002 19.9687 4.24725 19.9125 4.13449 19.8187Z" fill="#0D022B"/>
        <path fill-rule="evenodd" clip-rule="evenodd" d="M4.77349 4.76248C4.84866 4.66873 4.90504 4.57498 4.90504 4.44373C4.90504 4.31248 4.84866 4.21873 4.77349 4.12498C4.60434 3.95623 4.30363 3.95623 4.13449 4.12498C4.04052 4.21873 4.00293 4.31248 4.00293 4.44373C4.00293 4.57498 4.05931 4.66873 4.13449 4.76248C4.20966 4.83748 4.32243 4.89373 4.45399 4.89373C4.58555 4.91248 4.69831 4.87498 4.77349 4.76248Z" fill="#0D022B"/>
        <path fill-rule="evenodd" clip-rule="evenodd" d="M6.03274 6.05624C6.12671 5.96249 6.1831 5.86874 6.1831 5.73749C6.1831 5.60624 6.12671 5.51249 6.03274 5.41874C5.8448 5.24999 5.5441 5.24999 5.33736 5.41874C5.24339 5.51249 5.18701 5.60624 5.18701 5.73749C5.18701 5.86874 5.24339 5.96249 5.33736 6.05624C5.43133 6.13124 5.56289 6.18749 5.67566 6.18749C5.80722 6.16874 5.93877 6.13124 6.03274 6.05624Z" fill="#0D022B"/>
        <path fill-rule="evenodd" clip-rule="evenodd" d="M7.31108 7.29373C7.38626 7.21873 7.44264 7.10623 7.44264 6.97498C7.44264 6.84373 7.38626 6.74998 7.31108 6.65623C7.14194 6.48748 6.84123 6.48748 6.67209 6.65623C6.59691 6.73123 6.54053 6.84373 6.54053 6.97498C6.54053 7.10623 6.59691 7.19998 6.67209 7.29373C6.76606 7.38748 6.86003 7.42498 6.99158 7.42498C7.10435 7.42498 7.21711 7.36873 7.31108 7.29373Z" fill="#0D022B"/>
        <path fill-rule="evenodd" clip-rule="evenodd" d="M8.56987 8.55001C8.64505 8.47501 8.70143 8.36251 8.70143 8.23126C8.70143 8.10001 8.64505 8.00626 8.56987 7.91251C8.40073 7.74376 8.10002 7.74376 7.93087 7.91251C7.8557 7.98751 7.79932 8.10001 7.79932 8.23126C7.79932 8.36251 7.8557 8.47501 7.93087 8.55001C8.02485 8.64376 8.11882 8.68126 8.25037 8.68126C8.36314 8.68126 8.4759 8.66251 8.56987 8.55001Z" fill="#0D022B"/>
        <path fill-rule="evenodd" clip-rule="evenodd" d="M9.81059 9.80624C9.90456 9.73124 9.96094 9.61874 9.96094 9.48749C9.96094 9.35624 9.90456 9.26249 9.81059 9.16874C9.64144 8.99999 9.32194 8.99999 9.15279 9.16874C9.05882 9.24374 9.00244 9.35624 9.00244 9.48749C9.00244 9.61874 9.05882 9.73124 9.15279 9.80624C9.24676 9.89999 9.37832 9.93749 9.49109 9.93749C9.60385 9.95624 9.73541 9.91874 9.81059 9.80624Z" fill="#0D022B"/>
        <path fill-rule="evenodd" clip-rule="evenodd" d="M11.22 10.7438C11.22 10.6125 11.1636 10.5188 11.0884 10.425C10.9193 10.2563 10.6186 10.2563 10.4494 10.425C10.3555 10.5188 10.3179 10.6125 10.3179 10.7438C10.3179 10.875 10.3743 10.9688 10.4494 11.0625C10.5246 11.1375 10.6374 11.1938 10.7689 11.1938C10.9005 11.1938 10.9945 11.1375 11.0884 11.0625C11.1824 10.9875 11.22 10.875 11.22 10.7438Z" fill="#0D022B"/>
        <path fill-rule="evenodd" clip-rule="evenodd" d="M12.3477 12.3375C12.4417 12.2437 12.4793 12.15 12.4793 12.0187C12.4793 11.8875 12.4229 11.7937 12.3477 11.7C12.1786 11.5312 11.8779 11.5312 11.7087 11.7C11.6147 11.7937 11.5771 11.8875 11.5771 12.0187C11.5771 12.15 11.6335 12.2437 11.7087 12.3375C11.7839 12.4125 11.8966 12.4687 12.0282 12.4687C12.1598 12.4687 12.2725 12.4125 12.3477 12.3375Z" fill="#0D022B"/>
        <path fill-rule="evenodd" clip-rule="evenodd" d="M13.607 13.5188C13.7009 13.4438 13.7573 13.3313 13.7573 13.2C13.7573 13.0688 13.7009 12.975 13.607 12.8813C13.419 12.7125 13.1183 12.7125 12.9492 12.8813C12.8552 12.975 12.7988 13.0688 12.7988 13.2C12.7988 13.3313 12.8552 13.425 12.9492 13.5188C13.0432 13.6125 13.1747 13.65 13.2875 13.65C13.3814 13.6688 13.513 13.6313 13.607 13.5188Z" fill="#0D022B"/>
        <path fill-rule="evenodd" clip-rule="evenodd" d="M14.8848 14.775C14.96 14.7 15.0164 14.5875 15.0164 14.4562C15.0164 14.325 14.96 14.2312 14.8848 14.1375C14.7157 13.9687 14.415 13.9687 14.2458 14.1375C14.1706 14.2312 14.1143 14.325 14.1143 14.4562C14.1143 14.5875 14.1706 14.6812 14.2458 14.775C14.3398 14.8687 14.4338 14.9062 14.5653 14.9062C14.6593 14.925 14.7908 14.8687 14.8848 14.775Z" fill="#0D022B"/>
        <path fill-rule="evenodd" clip-rule="evenodd" d="M16.1441 16.05C16.2193 15.975 16.2756 15.8625 16.2756 15.7313C16.2756 15.6 16.2193 15.4875 16.1441 15.4125C15.9749 15.2438 15.6742 15.2438 15.5051 15.4125C15.4299 15.4875 15.3735 15.6 15.3735 15.7313C15.3735 15.8625 15.4299 15.9563 15.5051 16.05C15.5991 16.1438 15.693 16.1813 15.8246 16.1813C15.9561 16.1813 16.0501 16.125 16.1441 16.05Z" fill="#0D022B"/>
        <path fill-rule="evenodd" clip-rule="evenodd" d="M17.3282 17.3062C17.4221 17.2312 17.4597 17.1187 17.4597 16.9875C17.4597 16.8562 17.4033 16.7625 17.3282 16.6687C17.159 16.5 16.8583 16.5 16.6892 16.6687C16.614 16.7625 16.5576 16.8562 16.5576 16.9875C16.5576 17.1187 16.614 17.2312 16.6892 17.3062C16.7831 17.4 16.8771 17.4375 17.0087 17.4375C17.1214 17.4375 17.253 17.4 17.3282 17.3062Z" fill="#0D022B"/>
        <path fill-rule="evenodd" clip-rule="evenodd" d="M18.6626 18.5625C18.7566 18.4875 18.7942 18.375 18.7942 18.2438C18.7942 18.1125 18.7378 18.0188 18.6626 17.925C18.4935 17.7563 18.1928 17.7563 18.0236 17.925C17.9297 18.0188 17.8921 18.1125 17.8921 18.2438C17.8921 18.375 17.9485 18.4875 18.0236 18.5625C18.0988 18.6375 18.2116 18.6938 18.3431 18.6938C18.4747 18.6938 18.5875 18.6563 18.6626 18.5625Z" fill="#0D022B"/>
        <path fill-rule="evenodd" clip-rule="evenodd" d="M19.9219 19.8187C20.0159 19.725 20.0723 19.6312 20.0723 19.5C20.0723 19.3687 20.0159 19.275 19.9219 19.1812C19.734 19.0125 19.4333 19.0125 19.2641 19.1812C19.1702 19.275 19.1138 19.3687 19.1138 19.5C19.1138 19.6312 19.1702 19.725 19.2641 19.8187C19.3581 19.8937 19.4897 19.95 19.6024 19.95C19.6964 19.9687 19.8091 19.9125 19.9219 19.8187Z" fill="#0D022B"/>
        <path fill-rule="evenodd" clip-rule="evenodd" d="M7.76177 5.11875C9.03976 4.275 10.4493 3.88125 12.0092 3.8625C13.5315 3.8625 14.9411 4.275 16.2567 5.11875L18.963 2.41875C16.8393 0.80625 14.5464 0 12.0092 0C9.47203 0 7.14156 0.80625 5.07422 2.41875L7.76177 5.11875Z" fill="#0D022B"/>
        <path fill-rule="evenodd" clip-rule="evenodd" d="M5.0556 16.2C4.19107 14.8875 3.7776 13.5 3.7776 12C3.7776 10.4813 4.19107 9.07502 5.0556 7.80002L2.36805 5.11877C0.78935 7.18127 0 9.46877 0 12.0188C0 14.5313 0.78935 16.8375 2.38684 18.9375L5.0556 16.2Z" fill="#0D022B"/>
        <path fill-rule="evenodd" clip-rule="evenodd" d="M16.2381 18.8812C14.9601 19.7437 13.5506 20.1937 12.0283 20.2125C10.4683 20.2125 9.04 19.8 7.76201 18.9L5.05566 21.5812C7.1418 23.2125 9.47227 24.0187 12.0283 24C14.5655 23.9812 16.8583 23.1562 18.9257 21.5812L16.2381 18.8812Z" fill="#0D022B"/>
        <path fill-rule="evenodd" clip-rule="evenodd" d="M18.8882 7.76252C19.7527 9.07502 20.2038 10.5 20.1662 12.0375C20.1474 13.5375 19.7151 14.9063 18.8882 16.1625L21.5945 18.8438C23.192 16.7813 24.019 14.4938 24.019 11.9813C24.0378 9.43127 23.2296 7.10627 21.5945 5.02502L18.8882 7.76252Z" fill="#0D022B"/>
        <path fill-rule="evenodd" clip-rule="evenodd" d="M21.7073 19.725C22.741 19.725 23.6055 20.5687 23.6055 21.6187C23.6055 22.65 22.7597 23.5125 21.7073 23.5125C20.6736 23.5125 19.8091 22.6687 19.8091 21.6187C19.8091 20.5687 20.6548 19.725 21.7073 19.725Z" fill="#0D022B"/>
        <path fill-rule="evenodd" clip-rule="evenodd" d="M2.34913 19.725C3.3828 19.725 4.22854 20.5687 4.22854 21.6187C4.22854 22.65 3.3828 23.5125 2.34913 23.5125C1.31546 23.5125 0.469727 22.6687 0.469727 21.6187C0.469727 20.5687 1.31546 19.725 2.34913 19.725Z" fill="#0D022B"/>
        <path fill-rule="evenodd" clip-rule="evenodd" d="M21.7446 0.412476C22.7783 0.412476 23.624 1.25623 23.624 2.30623C23.624 3.35623 22.7783 4.19998 21.7446 4.19998C20.711 4.19998 19.8652 3.35623 19.8652 2.30623C19.8652 1.25623 20.711 0.412476 21.7446 0.412476Z" fill="#0D022B"/>
        <path fill-rule="evenodd" clip-rule="evenodd" d="M2.31177 0.412476C3.34545 0.412476 4.20997 1.25623 4.20997 2.28748C4.20997 3.31873 3.36424 4.16248 2.31177 4.16248C1.2781 4.16248 0.413574 3.31873 0.413574 2.28748C0.413574 1.25623 1.25931 0.412476 2.31177 0.412476Z" fill="#0D022B"/>
    </g>
    <defs>
        <clipPath id="clip0_1575_3355">
            <rect width="24" height="24" fill="white"/>
        </clipPath>
    </defs>
</svg>
