<svg width="24" height="24" viewBox="0 0 24 24" fill="none" xmlns="http://www.w3.org/2000/svg">
<path d="M12 0.215274C18.5074 0.215274 23.7847 5.49257 23.7847 12C23.7847 18.5074 18.5074 23.7847 12 23.7847C5.49257 23.7847 0.215274 18.5074 0.215274 12C0.215274 5.49257 5.49257 0.215274 12 0.215274Z" fill="#111111"/>
<path d="M12 0C5.36955 0 0 5.36955 0 12C0 18.6243 5.36955 24 12 24C18.6243 24 24 18.6304 24 12C24 5.36955 18.6243 0 12 0Z" fill="url(#paint0_radial_3_44)" fill-opacity="0.7"/>
<path fill-rule="evenodd" clip-rule="evenodd" d="M9.11533 6.42135L8.94926 6.61817L4.67453 11.6433L4.36699 12L4.67453 12.3568L8.95541 17.3819L9.12148 17.5787H17.6402V13.8268H16.5331V16.4716H10.5915L14.4603 12L10.5915 7.52847H16.5331V10.1733H17.6402V6.42135H9.11533ZM9.3798 7.8237L5.8247 12L9.3798 16.1763L12.9903 12L9.3798 7.8237Z" fill="white"/>
<defs>
<radialGradient id="paint0_radial_3_44" cx="0" cy="0" r="1" gradientUnits="userSpaceOnUse" gradientTransform="translate(12.0269 3.50347) rotate(90) scale(25.301 17.8093)">
<stop offset="0.03125" stop-color="#3A3A3A"/>
<stop offset="1" stop-color="#1C1C1C"/>
</radialGradient>
</defs>
</svg>
