<?xml version="1.0" encoding="UTF-8"?>
<svg width="24px" height="24px" viewBox="0 0 24 24" version="1.1" xmlns="http://www.w3.org/2000/svg" xmlns:xlink="http://www.w3.org/1999/xlink">
    <title>Ethereum Icon</title>
    <g id="🚙--Design---MVP" stroke="none" stroke-width="1" fill="none" fill-rule="evenodd">
        <g id="Assets-SVG" transform="translate(-223.000000, -174.000000)" fill-rule="nonzero">
            <g id="Coin-Icon---ETH" transform="translate(223.000000, 174.000000)">
                <path d="M11.9802291,2.25597319e-12 C5.36373568,2.25597319e-12 2.25597319e-12,5.36373568 2.25597319e-12,11.9802291 C2.25597319e-12,18.5967225 5.36373568,23.9604581 11.9802291,23.9604581 C18.5967225,23.9604581 23.9604581,18.5967225 23.9604581,11.9802291 C23.9604581,5.36373568 18.5967225,2.25597319e-12 11.9802291,2.25597319e-12 Z" id="Path" fill="#3F88AE"></path>
                <path d="M11.8249163,19.9174626 L7.09046696,13.2202996 L11.8249163,15.9922467 L11.8249163,19.9174626 Z M11.8249163,15.0106784 L7.05843172,12.2186432 L11.8249163,10.1307489 L11.8249163,15.0106784 Z M11.8249163,9.79527753 L7.21194714,11.8157181 L11.8249163,4.06530396 L11.8249163,9.79527753 Z M12.1321586,4.06297797 L16.8099383,11.8444758 L12.1321586,9.79527753 L12.1321586,4.06297797 Z M12.1321586,19.9174626 L12.1321586,15.9922467 L16.8666079,13.2202996 L12.1321586,19.9174626 Z M12.1321586,15.0107841 L12.1321586,10.1308546 L16.9021322,12.2202291 L12.1321586,15.0107841 Z" id="Combined-Shape" fill="#FFFFFF"></path>
            </g>
        </g>
    </g>
</svg>