<?xml version="1.0" encoding="UTF-8"?>
<svg width="24px" height="24px" viewBox="0 0 24 24" version="1.1" xmlns="http://www.w3.org/2000/svg" xmlns:xlink="http://www.w3.org/1999/xlink">
    <title>Euro Icon</title>
    <g id="🚙--Design---MVP" stroke="none" stroke-width="1" fill="none" fill-rule="evenodd">
        <g id="Assets-SVG" transform="translate(-78.000000, -174.000000)">
            <g id="Coin-Icon---EUR" transform="translate(78.000000, 174.000000)">
                <path d="M12.0001058,0 C5.37265898,0 0,5.3725058 0,12 C0,18.6273884 5.37265898,24 12.0001058,24 C18.6275526,24 24,18.6273884 24,12 C24,5.3725058 18.6275526,0 12.0001058,0 Z" id="Path" fill="#218456"></path>
                <path d="M12.8229515,16.0012775 C13.2402224,16.0012775 13.6574869,15.9110582 14.0747577,15.7306167 C14.4920285,15.5501753 14.9713189,15.245685 15.5126432,14.8171366 L16.3584581,16.7117621 C15.9186322,17.1403105 15.3660386,17.4786331 14.7006608,17.7267401 C14.035283,17.9748471 13.3699152,18.0988987 12.7045374,18.0988987 C11.5429457,18.0988987 10.5759069,17.7436599 9.80339207,17.0331718 C9.03087719,16.3226837 8.51493522,15.3133546 8.25555066,14.0051542 L6.75,14.0051542 L6.75,12.4488546 L8.06947137,12.4488546 C8.05819378,12.3360787 8.05255507,12.15564 8.05255507,11.907533 C8.05255507,11.6707037 8.05819378,11.4959036 8.06947137,11.3831278 L6.75,11.3831278 L6.75,9.82682819 L8.25555066,9.82682819 C8.51493522,8.52990541 9.03087719,7.52621501 9.80339207,6.81572687 C10.5759069,6.10523874 11.5429457,5.75 12.7045374,5.75 C13.3699152,5.75 14.035283,5.87405162 14.7006608,6.12215859 C15.3660386,6.37026556 15.9186322,6.70858817 16.3584581,7.13713656 L15.5126432,9.03176211 C14.9713189,8.60321372 14.4920285,8.29872337 14.0747577,8.11828194 C13.6574869,7.93784051 13.2402224,7.84762115 12.8229515,7.84762115 C12.2929048,7.84762115 11.8671822,8.00832438 11.5457709,8.32973568 C11.2243596,8.65114698 10.9903532,9.15017283 10.8437445,9.82682819 L13.3642731,9.82682819 L13.3642731,11.3831278 L10.6745815,11.3831278 L10.6745815,12.4488546 L13.3642731,12.4488546 L13.3642731,14.0051542 L10.8437445,14.0051542 C10.9903532,14.6930871 11.2243596,15.1977517 11.5457709,15.519163 C11.8671822,15.8405743 12.2929048,16.0012775 12.8229515,16.0012775 Z" id="€" fill="#FFFFFF" fill-rule="nonzero"></path>
            </g>
        </g>
    </g>
</svg>