<svg width="24" height="16" viewBox="0 0 24 16" fill="none" xmlns="http://www.w3.org/2000/svg">
<path d="M0 8C0 6.52746 1.19733 5.33494 2.67582 5.33494C4.15431 5.33494 5.35165 4.14243 5.35165 2.66989C5.35165 1.19734 6.55383 0 8.03232 0C9.51081 0 10.7081 1.19252 10.7081 2.66506C10.7081 4.1376 9.51081 5.33012 8.03232 5.33012C6.55383 5.33012 5.35649 6.52263 5.35649 7.99517C5.35649 9.46771 6.55383 10.6602 8.03232 10.6602C9.51081 10.6602 10.7081 11.8527 10.7081 13.3253C10.7081 14.7978 9.51081 15.9903 8.03232 15.9903C6.55383 15.9903 5.35649 14.7978 5.35649 13.3253C5.35649 11.8527 4.15916 10.6602 2.68067 10.6602C1.20218 10.6602 0 9.47254 0 8Z" fill="black"/>
<path d="M23.9999 8C23.9999 9.47254 22.8026 10.6651 21.3241 10.6651C19.8456 10.6651 18.6483 11.8576 18.6483 13.3301C18.6483 14.8027 17.4509 15.9952 15.9725 15.9952C14.494 15.9952 13.2966 14.8027 13.2966 13.3301C13.2966 11.8576 14.494 10.6651 15.9725 10.6651C17.4509 10.6651 18.6483 9.47254 18.6483 8C18.6483 6.52746 17.4509 5.33494 15.9725 5.33494C14.494 5.33494 13.2966 4.14243 13.2966 2.66989C13.2966 1.19734 14.4891 0 15.9676 0C17.4461 0 18.6434 1.19252 18.6434 2.66506C18.6434 4.1376 19.8408 5.33011 21.3193 5.33011C22.8026 5.33494 23.9999 6.52746 23.9999 8Z" fill="black"/>
<path d="M14.6298 7.99986C14.6298 9.42895 13.4664 10.5925 12.0267 10.5925C10.587 10.5925 9.42358 9.43378 9.42358 7.99986C9.42358 6.57078 10.587 5.40723 12.0267 5.40723C13.4616 5.40723 14.6298 6.56595 14.6298 7.99986Z" fill="black"/>
</svg>
