<svg width="24" height="24" viewBox="0 0 24 24" fill="none" xmlns="http://www.w3.org/2000/svg">
    <title>Gala Icon</title>
    <circle cx="12" cy="12" r="12" fill="black"/>
    <path fill-rule="evenodd" clip-rule="evenodd" d="M4 16.3173C4.21843 16.4334 4.50511 16.611 4.70989 16.7476C4.78497 16.7989 4.8703 16.8433 4.95221 16.8945C4.99658 16.9218 5.02388 16.9355 5.06483 16.9628C5.08531 16.9765 5.10238 16.9901 5.12285 17.0004C5.14675 17.014 5.1604 17.0209 5.18429 17.0345L7.81225 18.6535C7.84979 18.674 7.88392 18.6979 7.92487 18.7218L10.3105 20.1939C10.3378 20.211 10.3481 20.2144 10.3719 20.2315L11.5119 20.9317C11.5631 20.959 11.5835 20.9932 11.6416 20.9966V12.082L11.2798 11.8736C11.2457 11.8565 11.2252 11.8429 11.191 11.8224L10.9078 11.6584C10.505 11.4467 10.1296 11.1871 9.72349 10.9753C9.68253 10.9548 9.66888 10.9412 9.62451 10.9207L9.26274 10.7123C9.17401 10.6577 8.77128 10.4152 8.69961 10.3981V11.8053L10.1808 12.6626C10.2218 12.6865 10.2491 12.7036 10.2866 12.7241C10.3276 12.7446 10.3481 12.7685 10.3992 12.7787V18.814C10.1399 18.6398 9.86342 18.4827 9.59721 18.3222L8.95217 17.9226C8.68937 17.745 8.4061 17.5981 8.1433 17.4239C8.11258 17.4034 8.09552 17.3966 8.0648 17.3761L7.49484 17.0243C7.43341 16.9901 7.38904 16.9628 7.33102 16.9218C7.12283 16.7818 6.89758 16.6588 6.68598 16.5222C6.62796 16.4846 6.58018 16.4607 6.52216 16.4231C6.20817 16.2114 5.87029 16.0201 5.54947 15.8254C5.52217 15.8083 5.49828 15.7913 5.47439 15.7742L5.22524 15.6205V8.37609C5.17746 8.34535 5.12968 8.31802 5.07507 8.28728C5.02047 8.25654 4.97951 8.23263 4.9249 8.19848L4.15699 7.76129C4.09898 7.73055 4.05461 7.69639 4 7.66907V16.3173Z" fill="white"/>
    <path fill-rule="evenodd" clip-rule="evenodd" d="M12.3789 12.0683V15.4941L12.8328 15.238C13.041 15.1287 13.2321 14.9954 13.4403 14.8862C13.4779 14.8657 13.4915 14.8588 13.5188 14.8383C13.5461 14.8213 13.5734 14.811 13.6007 14.7973V12.7788C13.6417 12.7685 13.6553 12.7617 13.686 12.7412C13.7168 12.7207 13.7372 12.7139 13.768 12.6968C13.9284 12.6046 14.0854 12.4953 14.2492 12.4133C14.471 12.304 14.6826 12.1674 14.8942 12.041C14.9488 12.0103 14.9932 11.9829 15.0512 11.9488L15.372 11.7677C15.4062 11.7473 15.4164 11.7404 15.4505 11.7199C15.5905 11.6482 15.7202 11.5526 15.8635 11.4774L16.0205 11.3852C16.0478 11.3681 16.0751 11.3579 16.1024 11.3442L17.1502 10.7362C17.372 10.6201 17.5768 10.4801 17.7952 10.364L18.1194 10.1727C18.2287 10.1078 18.3345 10.0497 18.4437 9.98141C18.5017 9.94725 18.5495 9.92335 18.6007 9.88919L18.7713 9.79355V15.6376C18.7235 15.6478 18.7099 15.6649 18.6689 15.6888L18.3686 15.8732C18.3379 15.8937 18.314 15.9108 18.2764 15.9347C18.2355 15.9586 18.2082 15.9791 18.1741 15.9996C18.1365 16.0201 18.116 16.0372 18.0785 16.0577L17.7747 16.2387C17.5017 16.3958 17.2457 16.5734 16.9727 16.7306L16.1741 17.2258C16.1365 17.2497 16.1161 17.26 16.0785 17.2839C15.7202 17.5264 15.3379 17.7279 14.9761 17.9636C14.9113 18.008 14.843 18.0455 14.7782 18.0865L13.7782 18.7013C13.7475 18.7184 13.7134 18.7389 13.6826 18.7594C13.3857 18.9541 13.0751 19.1214 12.7782 19.3161L12.3721 19.5655V21C12.4403 20.9829 12.5495 20.901 12.611 20.8634C12.6929 20.8121 12.7714 20.7712 12.8533 20.7165C13.082 20.5628 13.3311 20.4364 13.5598 20.2827C13.6041 20.2554 13.6383 20.2315 13.6792 20.2076L14.2833 19.8353C14.3243 19.8114 14.355 19.7909 14.3959 19.767L17.6109 17.786C17.6553 17.7586 17.6928 17.7347 17.7304 17.7108L19.8771 16.389C19.9181 16.3617 19.959 16.3378 20 16.3173V7.68274C19.9385 7.6964 19.9283 7.71689 19.8805 7.74422C19.8362 7.76813 19.8054 7.78521 19.7645 7.80911L19.0512 8.2224C18.8089 8.35219 18.5836 8.51272 18.3379 8.63568L16.43 9.73549C16.3447 9.78331 16.2765 9.82771 16.1946 9.87553L15.843 10.0805C15.5939 10.2068 15.2321 10.422 15.0034 10.5655C14.9625 10.5928 14.9284 10.603 14.8874 10.6304L14.1127 11.0812C14.0785 11.0983 14.0854 11.0983 14.0512 11.1188L13.8089 11.252C13.6656 11.3271 13.5393 11.4194 13.3959 11.4945C13.3618 11.5116 13.3618 11.5184 13.3345 11.5321L13.0922 11.6653C12.9318 11.7438 12.5086 12.041 12.3789 12.0683Z" fill="white"/>
    <path fill-rule="evenodd" clip-rule="evenodd" d="M4.47412 7.09525C4.5219 7.1055 4.54921 7.13283 4.59357 7.15673C4.75398 7.24212 4.89732 7.34459 5.06115 7.42656L6.35806 8.17799C6.9758 8.5537 7.61743 8.88842 8.23859 9.26413L8.35463 9.32903C8.39899 9.35294 8.42971 9.37343 8.47067 9.39393L9.17714 9.80379C9.20786 9.82087 9.20445 9.82087 9.22834 9.83453C9.55939 10.0361 9.90751 10.2068 10.2352 10.4152L11.2863 11.0197C11.3273 11.0436 11.358 11.0641 11.399 11.088C11.5218 11.1632 11.9621 11.4296 12.0065 11.4296C12.0713 11.4296 12.4467 11.1905 12.5423 11.1324L12.7266 11.0231C12.788 10.9856 12.8426 10.9617 12.9041 10.9241C12.9689 10.8865 13.0167 10.8592 13.0815 10.8216L13.4399 10.6099C13.5013 10.5723 13.5559 10.545 13.614 10.5074L14.1566 10.2C14.1907 10.1829 14.2146 10.1658 14.2453 10.1488C14.2761 10.1283 14.2965 10.118 14.3341 10.0975L14.6959 9.88918C14.7539 9.85503 14.8187 9.80379 14.887 9.78672C14.8767 9.74573 14.8699 9.74914 14.8358 9.72865L13.6788 9.06262C13.2181 9.30512 12.7812 9.58861 12.3239 9.83795C12.2863 9.85844 12.2556 9.87894 12.2215 9.90284C12.1498 9.94725 12.085 9.98482 12.0099 10.0258L11.3136 9.62277C11.0713 9.49981 10.8495 9.33928 10.6072 9.2129C10.5526 9.18216 10.4979 9.14801 10.4502 9.12068L9.03721 8.30778C9.00991 8.2907 8.98602 8.27704 8.95872 8.25996C8.928 8.23947 8.90752 8.23264 8.8768 8.21556L7.06795 7.1704C7.03382 7.1499 7.03041 7.13966 6.98263 7.12941C7.02017 7.07476 7.06454 7.07135 7.12597 7.03377C7.17716 6.99962 7.22494 6.98254 7.27955 6.9518L8.85291 6.10133C8.88704 6.08083 8.88704 6.07742 8.92117 6.06034C8.9553 6.04326 8.97237 6.03643 9.00308 6.01594C9.05769 5.98178 9.1123 5.95787 9.1669 5.93055L11.1293 4.87173C11.1635 4.85465 11.1737 4.8444 11.2078 4.82391L12.0065 4.39696C12.0508 4.39696 12.6549 4.74877 12.7949 4.82049C12.829 4.83757 12.8529 4.84782 12.887 4.86831C12.928 4.89222 12.9382 4.90247 12.986 4.92296L15.1566 6.0945C15.3477 6.21404 15.9279 6.51803 16.1327 6.62049C16.3648 6.73662 16.5866 6.87666 16.8187 6.99279L18.1088 7.69298C18.1532 7.71689 18.1668 7.72372 18.2078 7.74763C18.3613 7.83985 18.3648 7.76129 18.6139 7.62467L19.0746 7.36167C19.1566 7.31727 19.4671 7.11916 19.5388 7.10209C19.5252 7.05768 19.4842 7.04061 19.4432 7.0167L18.9757 6.76053C18.7402 6.64099 18.5047 6.49412 18.2692 6.3814L17.8016 6.12524C17.6412 6.04326 17.4808 5.96812 17.3306 5.87248L14.9723 4.59848C14.9245 4.57457 14.8972 4.56091 14.8563 4.53359L13.9075 4.02125C13.8631 3.99734 13.8358 3.98027 13.7914 3.95636C13.7675 3.94269 13.7573 3.93928 13.7368 3.92903L12.4911 3.25275C12.4126 3.20493 12.0474 3 12.0031 3C11.9655 3 11.7027 3.15712 11.6447 3.18444L8.94506 4.6463C8.90069 4.66679 8.86657 4.68387 8.82561 4.70778L6.93485 5.72903C6.89048 5.75294 6.87 5.77002 6.81881 5.79393L6.64816 5.88615C6.61403 5.90322 6.61403 5.91006 6.58673 5.92372C6.54918 5.94763 6.50823 5.95787 6.46727 5.9852L6.1055 6.17989C6.05772 6.20379 6.03383 6.22429 5.98946 6.24478L5.43998 6.54535C5.4195 6.5556 5.4195 6.55218 5.40244 6.56243C5.32394 6.60683 5.24203 6.63757 5.16695 6.6888C5.12258 6.71613 5.09527 6.72637 5.04749 6.75028L4.51849 7.04402C4.47753 7.06793 4.48777 7.04744 4.47412 7.09525Z" fill="white"/>
</svg>
