<svg width="24" height="24" viewBox="0 0 24 24" fill="none" xmlns="http://www.w3.org/2000/svg">
    <title>GRT Icon</title>
    <path d="M12 24C18.6274 24 24 18.6274 24 12C24 5.37258 18.6274 0 12 0C5.37258 0 0 5.37258 0 12C0 18.6274 5.37258 24 12 24Z" fill="#6747ED"/>
    <path fill-rule="evenodd" clip-rule="evenodd" d="M11.8249 13.55C10.0499 13.55 8.6249 12.125 8.6249 10.35C8.6249 8.57499 10.0499 7.14999 11.8249 7.14999C13.5999 7.14999 15.0249 8.57499 15.0249 10.35C15.0249 12.125 13.5999 13.55 11.8249 13.55ZM11.8249 5.54999C14.4749 5.54999 16.6249 7.69999 16.6249 10.35C16.6249 13 14.4749 15.15 11.8249 15.15C9.1749 15.15 7.0249 13 7.0249 10.35C7.0249 7.69999 9.1749 5.54999 11.8249 5.54999ZM16.3999 15.4C16.7249 15.725 16.7249 16.225 16.3999 16.525L13.1999 19.725C12.8749 20.05 12.3749 20.05 12.0749 19.725C11.7499 19.4 11.7499 18.9 12.0749 18.6L15.2749 15.4C15.5749 15.075 16.0999 15.075 16.3999 15.4ZM18.2499 6.34999C18.2499 6.79999 17.8999 7.14999 17.4499 7.14999C16.9999 7.14999 16.6499 6.79999 16.6499 6.34999C16.6499 5.89999 16.9999 5.54999 17.4499 5.54999C17.8749 5.54999 18.2499 5.89999 18.2499 6.34999Z" fill="white"/>
</svg>
