<?xml version="1.0" encoding="UTF-8"?>
<svg width="24px" height="24px" viewBox="0 0 1024 1024" version="1.1" xmlns="http://www.w3.org/2000/svg" xmlns:xlink="http://www.w3.org/1999/xlink">
    <title>HUSD Icon</title>
    <g id="页面1" stroke="none" stroke-width="1" fill="none" fill-rule="evenodd">
        <g id="画板" transform="translate(-1384.000000, -1033.000000)">
            <g id="logo-蓝色圆背景" transform="translate(1384.000000, 1033.000000)">
                <rect id="Rectangle" fill="#1A61F0" x="0" y="0" width="1024" height="1024" rx="512"></rect>
                <g id="编组" transform="translate(357.000000, 298.000000)" fill="#FFFFFF">
                    <path d="M262.96087,181.444348 C252.801069,176.830722 241.771318,174.445539 230.613043,174.44913 L117.732609,174.44913 C96.0635965,174.44913 78.4973913,156.882925 78.4973913,135.213913 L78.4973913,1.70530257e-13 L1.84741111e-13,1.70530257e-13 L1.84741111e-13,174.44913 C0.0148778966,217.795878 35.1506433,252.931644 78.4973913,252.946522 L191.35087,252.946522 C201.759032,252.946521 211.740706,257.08207 219.099124,264.443016 C226.457542,271.803962 230.589662,281.787056 230.586087,292.195217 L230.586087,427.395652 L309.083479,427.395652 L309.083479,252.946522 C309.087142,222.122367 291.044143,194.150973 262.96087,181.444348 Z" id="Path"></path>
                    <path d="M2.69565217,295.537826 L2.69565217,427.395652 L81.1930435,427.395652 L81.1930435,374.021739 C81.1856005,330.674091 46.0433012,295.537826 2.69565217,295.537826 L2.69565217,295.537826 Z" id="Path"></path>
                    <path d="M244.28,8.52651283e-14 L227.890435,8.52651283e-14 L227.890435,53.373913 C227.897876,96.7237425 263.037997,131.863863 306.387826,131.871304 L306.387826,8.52651283e-14 L244.28,8.52651283e-14 Z" id="Path"></path>
                </g>
            </g>
        </g>
    </g>
</svg>