<svg width="24" height="24" viewBox="0 0 24 24" fill="none" xmlns="http://www.w3.org/2000/svg">
<g clip-path="url(#clip0_3_59)">
<path d="M2.91011 4.14609C3.06011 3.96009 3.21612 3.78009 3.37212 3.60009C3.37812 3.59409 3.39612 3.58809 3.40212 3.58209C3.41412 3.56409 3.43811 3.55209 3.45611 3.53409L3.46811 3.51609C3.57611 3.41409 3.69611 3.30609 3.82811 3.20409C4.30811 2.84409 4.80011 2.56809 5.32211 2.38209C7.00211 1.79409 8.86812 2.15409 10.3321 3.54009C12.3781 5.45409 12.1921 8.54409 10.5601 10.5961C8.49612 13.6561 4.95612 17.9221 9.85812 21.7441C10.7401 22.4341 11.3941 22.9981 14.1721 23.8021C12.3541 24.1381 10.6681 24.0301 8.79612 23.5561C7.47012 22.8061 5.38211 21.2041 4.67411 19.0381C3.60011 15.7561 6.56412 10.8421 7.99212 8.95209C9.95412 6.33609 6.78011 3.50409 4.43411 6.66609C3.22211 8.31609 1.08011 12.9781 1.82411 16.4401C2.25611 18.4021 2.83811 19.8301 5.13611 21.7981C4.71011 21.5461 4.29611 21.2641 3.89411 20.9401C-1.43989 15.9661 -0.821885 8.27409 2.91011 4.14609Z" fill="url(#paint0_linear_3_59)"/>
<path d="M21.0899 19.8542C20.9399 20.0402 20.7839 20.2202 20.6279 20.4002C20.6219 20.4062 20.6039 20.4122 20.5979 20.4182C20.5859 20.4362 20.5619 20.4482 20.5439 20.4662L20.5319 20.4842C20.4239 20.5862 20.3039 20.6942 20.1719 20.7902C19.6919 21.1502 19.1999 21.4262 18.6779 21.6122C16.9979 22.2002 15.1319 21.8402 13.6679 20.4542C11.6219 18.5402 11.8079 15.4502 13.4399 13.3982C15.5039 10.3382 19.0439 6.07222 14.1419 2.25022C13.2599 1.56022 12.6059 0.996224 9.82788 0.192224C11.6459 -0.143776 13.3319 -0.0357757 15.2039 0.438224C16.5299 1.18822 18.6179 2.79022 19.3259 4.95622C20.3999 8.23822 17.4359 13.1522 16.0079 15.0422C14.0459 17.6582 17.2199 20.4902 19.5659 17.3282C20.7899 15.6782 22.9319 11.0162 22.1879 7.55422C21.7559 5.59222 21.1739 4.16422 18.8759 2.19622C19.3019 2.44822 19.7159 2.73022 20.1179 3.05422C25.4399 8.03422 24.8219 15.7262 21.0899 19.8542Z" fill="url(#paint1_linear_3_59)"/>
</g>
<defs>
<linearGradient id="paint0_linear_3_59" x1="0.000114711" y1="13.0583" x2="24.0001" y2="13.0583" gradientUnits="userSpaceOnUse">
<stop stop-color="#0082FA"/>
<stop offset="1" stop-color="#00F2FE"/>
</linearGradient>
<linearGradient id="paint1_linear_3_59" x1="-0.000117448" y1="10.942" x2="23.9999" y2="10.942" gradientUnits="userSpaceOnUse">
<stop stop-color="#0082FA"/>
<stop offset="1" stop-color="#00F2FE"/>
</linearGradient>
<clipPath id="clip0_3_59">
<rect width="24" height="24" fill="white"/>
</clipPath>
</defs>
</svg>
