<svg width="24" height="24" viewBox="0 0 24 24" fill="none" xmlns="http://www.w3.org/2000/svg">
<ellipse cx="12" cy="12" rx="12" ry="12" fill="#7132F5"/>
<path fill-rule="evenodd" clip-rule="evenodd" d="M22 12C22 6.47716 17.5228 2 12 2C6.47716 2 2 6.47716 2 12C2 17.5228 6.47716 22 12 22C17.5228 22 22 17.5228 22 12ZM13.4273 19.4842C13.4273 20.1626 12.8705 20.714 12.0802 20.7298C12.0583 20.73 12.0363 20.7301 12.0144 20.7302H11.9856C7.17068 20.7224 3.26984 16.8167 3.26984 12C3.26984 7.17848 7.17846 3.26986 12 3.26986C12.026 3.26986 12.052 3.26997 12.0779 3.2702C12.9698 3.28608 13.4273 3.83749 13.4273 4.51584C13.4273 5.20626 12.817 5.71428 12.1704 5.71428C11.5238 5.7143 11.4921 5.7143 10.8731 5.76388C10.2542 5.81348 9.61422 6.32152 9.61422 7.00988C9.61422 7.70234 10.1767 8.25996 10.8731 8.25996H16.3622C17.0566 8.25996 17.6191 8.8176 17.6191 9.50596C17.6191 10.1943 17.0566 10.752 16.3622 10.752H7.90762C7.2112 10.752 6.6487 11.3116 6.6487 12.002C6.6487 12.6904 7.2112 13.248 7.90762 13.248H12.1704C12.8648 13.248 13.4273 13.8057 13.4273 14.4961C13.4273 15.1844 12.8648 15.7421 12.1704 15.7421H10.8731C10.1767 15.7421 9.61422 16.2997 9.61422 16.9881C9.61422 17.6785 10.1907 18.1824 10.8731 18.2341C10.9269 18.2382 10.9761 18.2419 11.0214 18.2454C11.2616 18.2637 11.3928 18.2737 11.5242 18.2791C11.6825 18.2857 11.841 18.2857 12.1905 18.2857C12.8848 18.2857 13.4273 18.7958 13.4273 19.4842Z" fill="white"/>
</svg>
