<svg width="24" height="24" viewBox="0 0 24 24" fill="none" xmlns="http://www.w3.org/2000/svg">
    <title>IoTeX Icon</title>
    <path d="M12 24C18.6274 24 24 18.6274 24 12C24 5.37258 18.6274 0 12 0C5.37258 0 0 5.37258 0 12C0 18.6274 5.37258 24 12 24Z" fill="#00D4D5"/>
    <path d="M12.3892 3.75V7.84275L15.9427 5.799L12.3892 3.75Z" fill="white"/>
    <path opacity="0.9" d="M15.9429 5.79901V9.89176L19.4956 7.84276L15.9429 5.79901Z" fill="white"/>
    <path opacity="0.8" d="M12.3892 7.84277V11.9355L15.9427 9.89177L12.3892 7.84277ZM15.9427 9.89252V13.9845L19.4954 11.9355L15.9427 9.89252Z" fill="white"/>
    <path opacity="0.8" d="M12.3892 11.9355V16.0282L15.9427 13.9845L12.3892 11.9355Z" fill="white"/>
    <path d="M15.9429 13.9845V18.0772L19.4956 16.0282L15.9429 13.9845Z" fill="white"/>
    <path opacity="0.4" d="M3.20459 7.70477V11.7975L6.75809 9.74852L3.20459 7.70477Z" fill="white"/>
    <path opacity="0.2" d="M7.6875 9.2265V13.3193L11.235 11.2755L7.6875 9.2265Z" fill="white"/>
    <path opacity="0.3" d="M5.05371 11.8148V15.9075L8.60646 13.8585L5.05371 11.8148Z" fill="white"/>
    <path opacity="0.9" d="M7.39502 14.9033V18.996L10.9425 16.947L7.39502 14.9033Z" fill="white"/>
    <path opacity="0.7" d="M12.3599 16.665V20.7585L15.9074 18.7087L12.3599 16.665Z" fill="white"/>
    <path opacity="0.9" d="M8.2793 7.20526V11.2988L11.8268 9.25501L8.2793 7.20526Z" fill="white"/>
    <path opacity="0.8" d="M12.3894 3.75V7.84275L8.83594 5.799L12.3894 3.75Z" fill="white"/>
    <path opacity="0.6" d="M8.27935 5.48999V9.58199L4.7251 7.53299L8.27935 5.48999Z" fill="white"/>
    <path opacity="0.6" d="M11.8328 7.51501V11.6085L8.2793 9.55876L11.8328 7.51501Z" fill="white"/>
    <path opacity="0.95" d="M7.67118 9.2265V13.3193L4.11768 11.2755L7.67118 9.2265Z" fill="white"/>
    <path opacity="0.6" d="M12.3893 11.9355V16.0282L8.8418 13.9845L12.3893 11.9355Z" fill="white"/>
    <path opacity="0.55" d="M5.0535 12.8887V16.9815L1.5 14.9317L5.0535 12.8887Z" fill="white"/>
    <path d="M19.4956 7.84277V11.9355L15.9429 9.89177L19.4956 7.84277Z" fill="white"/>
    <path opacity="0.95" d="M15.9427 9.89252V13.9845L12.3892 11.9355L15.9427 9.89252Z" fill="white"/>
    <path opacity="0.9" d="M19.4956 11.9355V16.0282L15.9429 13.9845L19.4956 11.9355Z" fill="white"/>
    <path opacity="0.7" d="M15.9427 13.9845V18.0772L12.3892 16.0282L15.9427 13.9845Z" fill="white"/>
    <path opacity="0.4" d="M11.6026 15.69V19.7828L8.0498 17.739L11.6026 15.69Z" fill="white"/>
    <path d="M15.9427 5.79901V9.89176L12.3892 7.84276L15.9427 5.79901Z" fill="white"/>
</svg>
