<svg width="24" height="24" viewBox="0 0 24 24" fill="none" xmlns="http://www.w3.org/2000/svg">
    <title>KuCoin Token Icon</title>
    <path d="M12 24C18.6274 24 24 18.6274 24 12C24 5.37258 18.6274 0 12 0C5.37258 0 0 5.37258 0 12C0 18.6274 5.37258 24 12 24Z" fill="#0093DD"/>
    <path fill-rule="evenodd" clip-rule="evenodd" d="M10.1248 12L14.0248 15.975L16.4998 13.5C16.9498 13.05 17.6248 13.05 17.9998 13.5C18.4498 13.95 18.4498 14.7 17.9998 15.15L14.7748 18.45C14.3248 18.9 13.6498 18.9 13.1998 18.45L8.5498 13.65V16.5C8.5498 17.1 8.0248 17.625 7.4248 17.625C6.8248 17.625 6.2998 17.1 6.2998 16.5V7.50002C6.2998 6.90002 6.8248 6.37502 7.4248 6.37502C8.0248 6.37502 8.5498 6.90002 8.5498 7.50002V10.35L13.1998 5.55002C13.6498 5.10002 14.3248 5.10002 14.7748 5.55002L17.9998 8.85002C18.4498 9.30002 18.4498 10.05 17.9998 10.5C17.5498 10.95 16.8748 10.95 16.4998 10.5L14.0248 7.95002L10.1248 12ZM14.0248 10.875C14.6248 10.875 15.1498 11.4 15.1498 12C15.1498 12.6 14.6248 13.125 14.0248 13.125C13.4248 13.125 12.8998 12.6 12.8998 12C12.8998 11.4 13.4248 10.875 14.0248 10.875Z" fill="white"/>
</svg>
