<svg width="24" height="24" viewBox="0 0 24 24" fill="none" xmlns="http://www.w3.org/2000/svg">
    <title>UNUS SED LEO Icon</title>
    <circle cx="12" cy="12" r="12" fill="black"/>
    <path d="M7.19298 10.5689H7.20208L7.3567 10.6229L7.50223 10.6769L7.65685 10.7219L7.80238 10.7849L7.957 10.8389L8.10253 10.8929L8.25715 10.9469L8.40267 11.0009L8.5482 11.0549L8.69373 11.1089L8.84835 11.1629L8.99388 11.2259L9.1485 11.2709L9.29402 11.3249L9.44865 11.379L9.59417 11.442L9.74879 11.496L9.89432 11.541L10.0398 11.595L10.1945 11.658L10.3491 11.712V11.478V11.442V11.2529V11.1179V11.0189V10.7849V10.5599V10.3258V10.1008V9.8578V9.63278V9.60577H10.1672H9.99437H9.97618H9.78518H9.63965H9.58508H9.39407H9.29402H9.19397H8.99388H8.9393H8.80287H8.61187H8.60277H8.59368H8.41177H8.24805H8.22077H8.02067H7.89333H7.54771H7.20208H7.19298H6.99289L6.84736 9.67778L6.50173 9.8578L6.14701 10.0468L5.79229 10.2178L5.45576 10.3979L5.10104 10.5869L4.74632 10.7579L4.40069 10.9469L4.04597 11.1269L3.70035 11.2979L3.35472 11.487L3.03638 11.649L3 16.8065L3.35472 17.0495L3.70035 17.2925L4.04597 17.5266L4.40069 17.7786L4.74632 18.0216L5.10104 18.2646L5.25566 18.3817L5.45576 18.1296L5.79229 17.6796L5.82867 17.6346L5.79229 17.6076L5.45576 17.3646L5.10104 17.1215L4.74632 16.8785L4.40069 16.6355L4.04597 16.3835L3.95502 16.3295L3.9823 12.153L4.04597 12.117L4.40069 11.946L4.74632 11.775L5.10104 11.604L5.45576 11.433L5.79229 11.2529L6.14701 11.0819L6.50173 10.9199L6.84736 10.7399L7.19298 10.5689Z" fill="url(#paint0_linear_1576_3417)"/>
    <path d="M13.2142 20.4069L12.9232 20.5239L12.5957 20.6589L12.2683 20.7849L11.9409 20.9199L11.7953 20.9739L11.6225 20.8929L11.2951 20.7219L10.9676 20.5689L10.6493 20.3979L10.3219 20.2358L9.99444 20.0828L9.667 19.9118L9.33957 19.7498L9.01213 19.5878L8.6847 19.4258L8.35726 19.2547L8.04802 19.1017L7.72059 18.9397L7.6842 18.9217V14.7093H7.39315H7.06572H6.73828V19.4978L7.06572 19.6508L7.39315 19.8128L7.72059 19.9838L8.04802 20.1368L8.35726 20.3079L8.6847 20.4699L9.01213 20.6319L9.33957 20.7939L9.667 20.9559L9.99444 21.1179L10.3219 21.28L10.6493 21.451L10.9676 21.604L11.2951 21.775L11.6225 21.928L11.7499 22L11.9409 21.91L12.2683 21.793L12.5957 21.658L12.9232 21.523L13.2415 21.397L13.5689 21.271L13.2415 20.4609L13.2142 20.4069Z" fill="url(#paint1_linear_1576_3417)"/>
    <path d="M19.0259 14.5562L19.0441 16.5364L18.9622 16.6084L18.4074 16.9865L17.8526 17.3825L17.2978 17.7785L16.743 18.1656L16.1881 18.5526L15.6424 18.9487L15.0876 19.3357L14.7602 19.5697L14.5328 19.3987L13.987 18.9757L13.4322 18.5616L12.8774 18.1386L12.3317 17.7245L12.2316 17.6525V15.5193L12.3317 15.4293L12.8774 14.8533L13.4322 14.2862L13.987 13.7101L14.5328 13.1431L15.0694 12.585H14.5328H13.987H13.4322H12.8774H12.3317H11.7678H11.2129H10.6672H10.1124H9.55758H9.01185H8.45703L9.01185 13.1611L9.55758 13.7281L10.1124 14.2952L10.6672 14.8713L11.2129 15.4383L11.2948 15.5193V18.1026L11.7678 18.4716L12.3317 18.8947L12.8774 19.3087L13.4322 19.7317L13.987 20.1458L14.5328 20.5688L14.7329 20.7218L15.0876 20.4698L15.6424 20.0918L16.1881 19.6957L16.743 19.2997L17.2978 18.9217L17.8526 18.5256L18.4074 18.1296L18.9622 17.7515L19.5171 17.3555L19.9718 17.0225L20.0628 14.5922L19.5171 14.5742L19.0259 14.5562Z" fill="url(#paint2_linear_1576_3417)"/>
    <path d="M3.90032 9.94778H3.96399L3.97308 7.30152L4.32781 7.07649L4.77348 6.81547L5.21006 6.55444L5.64664 6.28441L6.08322 6.02339L6.52889 5.75336L6.95638 5.49233L7.40205 5.23131L7.83863 4.96128L8.28431 4.69125H8.2934L8.71179 4.93428L9.15747 5.1773L9.59405 5.42933L10.0306 5.67235L10.4672 5.91538L10.9038 6.1584L11.3404 6.41043L11.7679 6.65345L11.786 6.61745L12.2226 5.83437L11.786 5.58234L11.3404 5.33932L10.9038 5.09629L10.4672 4.85327L10.0306 4.60124L9.59405 4.35822L9.15747 4.1152L8.71179 3.86317L8.28431 3.62015L8.26612 3.61115L7.83863 3.86317L7.40205 4.1332L6.95638 4.40322L6.52889 4.67325L6.08322 4.93428L5.64664 5.1953L5.21006 5.46533L4.77348 5.72636L4.32781 5.99639L3.90032 6.25741L3.45465 6.51844L3.03626 6.77946L3.01807 9.93878H3.45465L3.90032 9.94778Z" fill="url(#paint3_linear_1576_3417)"/>
    <path d="M20.9998 7.52657L20.7724 7.34655L20.545 7.16653L20.3176 6.97751L20.0902 6.79749L19.8628 6.61748L19.6264 6.43746L19.399 6.25744L19.1716 6.07742L18.9351 5.8884L18.7623 5.76239L18.6986 5.8344L18.4712 6.11343L18.2439 6.40145L18.1802 6.47346L18.2439 6.53647L18.4712 6.72549L18.6986 6.91451L18.9351 7.10353L19.1716 7.29254L19.399 7.49056L19.6264 7.67958L19.8628 7.8686L19.972 7.95861L19.9811 12.216L19.8628 12.297L19.6264 12.4411L19.399 12.5851L19.1716 12.7291L18.9351 12.8731L18.6986 13.0171L18.4712 13.1611L18.2439 13.3052L18.0165 13.4492L17.7891 13.5932L17.5617 13.7372L17.3252 13.8812L17.0978 14.0252L16.8705 14.1692L16.6431 14.3133L16.4066 14.4573L16.1792 14.6013L16.4066 14.9613L16.6431 15.3214L16.6794 15.3844L16.8705 15.2673L17.0978 15.1323L17.3252 14.9883L17.5617 14.8533L17.7891 14.7003L18.0165 14.5653L18.2439 14.4213L18.4712 14.2862L18.6986 14.1422L18.9351 14.0072L19.1716 13.8542L19.399 13.7192L19.6264 13.5752L19.8628 13.4402L20.0902 13.2961L20.3176 13.1611L20.545 13.0081L20.7724 12.8731L20.9998 12.7291V7.52657Z" fill="url(#paint4_linear_1576_3417)"/>
    <path d="M13.4959 10.0648V10.2988V10.5329V10.7669V11.0099V11.2529V11.487V11.721V11.901L13.5687 11.874L13.8779 11.757L14.1872 11.631L14.4873 11.514L14.7966 11.3879L15.1058 11.2619L15.406 11.1449L15.7152 11.0189L16.0245 10.9019L16.3246 10.7759L16.6338 10.6589L16.934 10.5329V10.2988V10.2088V9.58776V4.9613L16.5884 4.74528L16.2336 4.54726L15.8789 4.34924L15.5333 4.13321L15.1786 3.93519L14.8239 3.73717L14.4782 3.53015L14.1235 3.32313L13.7779 3.11611L13.4232 2.91809L13.0684 2.71107L12.7228 2.50405L12.3772 2.30603L12.0225 2.10801L11.8315 2L11.6678 2.09001L11.313 2.27903L10.9583 2.45905L10.6218 2.65707L10.2671 2.84609L9.91234 3.0261L9.55762 3.22412L9.91234 3.42214L10.2671 3.62016L10.4853 3.75518L10.6218 3.68317L10.9583 3.50315L11.313 3.31413L11.6678 3.13411L11.8042 3.06211L12.0225 3.18812L12.3772 3.38614L12.7228 3.58416L13.0684 3.79118L13.4232 3.9982L13.7779 4.19622L14.1235 4.40324L14.4782 4.61026L14.8239 4.80828L15.1786 5.0063L15.5333 5.22232L15.8789 5.42034L15.9972 5.48335V9.58776H15.9153H15.8789H15.7152H15.5333H15.5151H15.3059H15.1786H15.1058H14.9057H14.8239H14.7056H14.5055H14.4782H14.3054H14.1235H14.1053H13.8961H13.7779H13.696H13.5414H13.5141" fill="url(#paint5_linear_1576_3417)"/>
    <path d="M13.4961 11.901L16.9342 10.5329L13.4961 9.58777" fill="url(#paint6_linear_1576_3417)"/>
    <path d="M10.3492 11.901V9.62378L7.20215 10.5509L10.3492 11.892" fill="url(#paint7_linear_1576_3417)"/>
    <defs>
        <linearGradient id="paint0_linear_1576_3417" x1="6.67227" y1="9.60847" x2="6.67227" y2="18.3781" gradientUnits="userSpaceOnUse">
            <stop stop-color="#F6E93D"/>
            <stop offset="0.13" stop-color="#F8E330"/>
            <stop offset="0.35" stop-color="#F7C730"/>
            <stop offset="0.64" stop-color="#F59C2E"/>
            <stop offset="0.98" stop-color="#EB5E2C"/>
            <stop offset="1" stop-color="#EB5C2C"/>
        </linearGradient>
        <linearGradient id="paint1_linear_1576_3417" x1="10.155" y1="14.7129" x2="10.155" y2="21.9991" gradientUnits="userSpaceOnUse">
            <stop stop-color="#F6E93D"/>
            <stop offset="0.13" stop-color="#F8E330"/>
            <stop offset="0.35" stop-color="#F7C730"/>
            <stop offset="0.64" stop-color="#F59C2E"/>
            <stop offset="0.98" stop-color="#EB5E2C"/>
            <stop offset="1" stop-color="#EB5C2C"/>
        </linearGradient>
        <linearGradient id="paint2_linear_1576_3417" x1="14.2594" y1="12.5841" x2="14.2594" y2="20.7245" gradientUnits="userSpaceOnUse">
            <stop stop-color="#F6E93D"/>
            <stop offset="0.13" stop-color="#F8E330"/>
            <stop offset="0.35" stop-color="#F7C730"/>
            <stop offset="0.64" stop-color="#F59C2E"/>
            <stop offset="0.98" stop-color="#EB5E2C"/>
            <stop offset="1" stop-color="#EB5C2C"/>
        </linearGradient>
        <linearGradient id="paint3_linear_1576_3417" x1="7.61989" y1="3.61385" x2="7.61989" y2="9.94868" gradientUnits="userSpaceOnUse">
            <stop stop-color="#F6E93D"/>
            <stop offset="0.13" stop-color="#F8E330"/>
            <stop offset="0.35" stop-color="#F7C730"/>
            <stop offset="0.64" stop-color="#F59C2E"/>
            <stop offset="0.98" stop-color="#EB5E2C"/>
            <stop offset="1" stop-color="#EB5C2C"/>
        </linearGradient>
        <linearGradient id="paint4_linear_1576_3417" x1="18.5931" y1="5.76059" x2="18.5931" y2="15.3853" gradientUnits="userSpaceOnUse">
            <stop stop-color="#F6E93D"/>
            <stop offset="0.13" stop-color="#F8E330"/>
            <stop offset="0.35" stop-color="#F7C730"/>
            <stop offset="0.64" stop-color="#F59C2E"/>
            <stop offset="0.98" stop-color="#EB5E2C"/>
            <stop offset="1" stop-color="#EB5C2C"/>
        </linearGradient>
        <linearGradient id="paint5_linear_1576_3417" x1="13.2449" y1="2" x2="13.2449" y2="11.9037" gradientUnits="userSpaceOnUse">
            <stop stop-color="#F6E93D"/>
            <stop offset="0.13" stop-color="#F8E330"/>
            <stop offset="0.35" stop-color="#F7C730"/>
            <stop offset="0.64" stop-color="#F59C2E"/>
            <stop offset="0.98" stop-color="#EB5E2C"/>
            <stop offset="1" stop-color="#EB5C2C"/>
        </linearGradient>
        <linearGradient id="paint6_linear_1576_3417" x1="15.2115" y1="9.59407" x2="15.2115" y2="11.9064" gradientUnits="userSpaceOnUse">
            <stop stop-color="#F6E93D"/>
            <stop offset="0.13" stop-color="#F8E330"/>
            <stop offset="0.35" stop-color="#F7C730"/>
            <stop offset="0.64" stop-color="#F59C2E"/>
            <stop offset="0.98" stop-color="#EB5E2C"/>
            <stop offset="1" stop-color="#EB5C2C"/>
        </linearGradient>
        <linearGradient id="paint7_linear_1576_3417" x1="8.73771" y1="11.3292" x2="9.46631" y2="9.30632" gradientUnits="userSpaceOnUse">
            <stop stop-color="#F6E93D"/>
            <stop offset="0.13" stop-color="#F8E330"/>
            <stop offset="0.35" stop-color="#F7C730"/>
            <stop offset="0.64" stop-color="#F59C2E"/>
            <stop offset="0.98" stop-color="#EB5E2C"/>
            <stop offset="1" stop-color="#EB5C2C"/>
        </linearGradient>
    </defs>
</svg>
