<svg width="24" height="24" viewBox="0 0 24 24" fill="none" xmlns="http://www.w3.org/2000/svg">
    <title>Chainlink Icon</title>
    <path d="M24 12C24 5.37258 18.6274 0 12 0C5.37258 0 0 5.37258 0 12C0 18.6274 5.37258 24 12 24C18.6274 24 24 18.6274 24 12Z" fill="#2A5ADA"/>
    <path d="M12 4L10.5185 4.84404L6.48148 7.15596L5 8V16L6.48148 16.844L10.5556 19.156L12.037 20L13.5185 19.156L17.5185 16.844L19 16V8L17.5185 7.15596L13.4815 4.84404L12 4ZM7.96296 14.3119V9.68807L12 7.37615L16.037 9.68807V14.3119L12 16.6239L7.96296 14.3119Z" fill="white"/>
</svg>
