<?xml version="1.0" encoding="UTF-8"?>
<svg width="24px" height="24px" viewBox="0 0 24 24" version="1.1" xmlns="http://www.w3.org/2000/svg" xmlns:xlink="http://www.w3.org/1999/xlink">
    <title>Litecoin Icon</title>
    <g id="🚙--Design---MVP" stroke="none" stroke-width="1" fill="none" fill-rule="evenodd">
        <g id="Assets-SVG" transform="translate(-319.000000, -174.000000)" fill-rule="nonzero">
            <g id="Coin-Icon---LTC" transform="translate(319.000000, 174.000000)">
                <path d="M11.9937621,-5.99165162e-12 C5.36976211,-5.99165162e-12 -5.99165162e-12,5.36986784 -5.99165162e-12,11.9939736 C-5.99165162e-12,18.618185 5.36976211,23.9877357 11.9937621,23.9877357 C18.6179736,23.9877357 23.9877357,18.618185 23.9877357,11.9939736 C23.9878414,5.36986784 18.6180793,-5.99165162e-12 11.9937621,-5.99165162e-12 Z" id="Path" fill="#8C88CC"></path>
                <polygon id="Path" fill="#FFFFFF" points="16.6495507 17.8426784 7.27813216 17.8426784 8.06579736 14.0823965 6.53423789 15.1325815 6.90629075 13.0748194 8.50815859 11.9720881 10.0794714 4.47192952 13.0050396 4.47192952 11.9232423 9.62188546 15.7321586 7.00049339 15.2857797 9.13268722 11.4774978 11.7434009 10.7240881 15.3307137 17.1700441 15.3307137"></polygon>
            </g>
        </g>
    </g>
</svg>