<svg width="24" height="24" viewBox="0 0 24 24" fill="none" xmlns="http://www.w3.org/2000/svg">
<g clip-path="url(#clip0_3_62)">
<path d="M4.94409 8.41921L1.30569 6.56641C1.01769 7.12321 0.777693 7.70881 0.585693 8.31361L4.47369 9.57121C4.59849 9.17761 4.76169 8.79361 4.94409 8.42881V8.41921Z" fill="black"/>
<path d="M8.03513 5.14564L10.0511 8.62084C10.3487 8.44804 10.6559 8.32324 10.9919 8.22724L9.94553 4.34884C10.2143 4.28164 10.4831 4.21444 10.7519 4.17604L10.1087 0.144043C9.48473 0.240043 8.87033 0.393643 8.27513 0.585643L9.52313 4.40644C9.12953 4.53124 8.73593 4.69444 8.37113 4.88644L6.53753 1.30564C5.98073 1.59364 5.44313 1.92004 4.93433 2.29444L7.34393 5.59684C7.56473 5.43364 7.79513 5.28964 8.03513 5.14564Z" fill="black"/>
<path d="M18.8448 8.0256L15.3696 10.0416C15.5424 10.3392 15.6672 10.6464 15.7632 10.9824L19.6416 9.936C19.7088 10.2048 19.776 10.4736 19.8144 10.7424L23.8464 10.0992C23.7504 9.4752 23.5968 8.8608 23.4048 8.2656L19.584 9.5136C19.4496 9.12 19.296 8.736 19.104 8.3616L22.6752 6.528C22.3872 5.9712 22.0608 5.4336 21.6864 4.9248L18.384 7.3344C18.5472 7.5552 18.6912 7.7856 18.8352 8.0256H18.8448Z" fill="black"/>
<path d="M17.4335 1.29568C16.8767 1.00768 16.2911 0.767684 15.6863 0.575684L14.4287 4.46368C14.8223 4.58848 15.2063 4.75168 15.5711 4.93408L17.4239 1.29568H17.4335Z" fill="black"/>
<path d="M15.9839 5.07827L13.9487 8.62067C14.2463 8.79347 14.5151 8.99507 14.7551 9.24467L20.4767 3.50387C20.0351 3.06227 19.5551 2.64947 19.0463 2.28467L16.6847 5.53907C16.4639 5.37587 16.2239 5.22227 15.9839 5.08787V5.07827Z" fill="black"/>
<path d="M5.07851 8.01591L8.61131 10.0607C8.78411 9.76311 8.99531 9.49431 9.23531 9.25431L3.50411 3.53271C3.06251 3.97431 2.64971 4.45431 2.28491 4.96311L5.53931 7.32471C5.37611 7.54551 5.22251 7.78551 5.08811 8.02551L5.07851 8.01591Z" fill="black"/>
<path d="M13.2385 4.10863L13.8529 0.134234C13.2385 0.0382344 12.6241 -0.00976562 12.0001 -0.00976562H11.9905V8.09263H12.0001C12.3457 8.09263 12.6817 8.14063 13.0081 8.22703L14.0545 4.28143C13.7857 4.21423 13.5169 4.15663 13.2385 4.10863Z" fill="black"/>
<path d="M8.2272 10.9917L4.2816 9.94531C4.2144 10.2141 4.1568 10.4829 4.1088 10.7613L0.144 10.1469C0.048 10.7613 0 11.3853 0 12.0093H8.1024C8.1024 11.6637 8.1504 11.3277 8.2368 11.0013L8.2272 10.9917Z" fill="black"/>
<path d="M19.0559 15.5807L22.6943 17.4335C22.9823 16.8767 23.2223 16.2911 23.4143 15.6863L19.5263 14.4287C19.4015 14.8223 19.2383 15.2063 19.0559 15.5711V15.5807Z" fill="black"/>
<path d="M15.9649 18.8448L13.9489 15.3696C13.6513 15.5424 13.3441 15.6672 13.0081 15.7632L14.0545 19.6416C13.7857 19.7088 13.5169 19.776 13.2481 19.8144L13.8913 23.8464C14.5153 23.7504 15.1297 23.5968 15.7249 23.4048L14.4769 19.584C14.8705 19.4592 15.2641 19.296 15.6289 19.104L17.4625 22.6848C18.0193 22.3968 18.5569 22.0704 19.0657 21.696L16.6561 18.3936C16.4353 18.5568 16.2049 18.7008 15.9649 18.8448Z" fill="black"/>
<path d="M5.15516 15.9744L8.63036 13.9584C8.45756 13.6608 8.33276 13.3536 8.23676 13.0176L4.35836 14.064C4.29116 13.7952 4.22396 13.5264 4.18556 13.2576L0.153564 13.9008C0.249564 14.5248 0.403164 15.1392 0.595164 15.7344L4.41596 14.4864C4.55036 14.88 4.70396 15.2736 4.89596 15.6384L1.32476 17.472C1.61276 18.0288 1.93916 18.5664 2.31356 19.0752L5.61596 16.6656C5.45276 16.4448 5.29916 16.2144 5.16476 15.9744H5.15516Z" fill="black"/>
<path d="M6.56641 22.7038C7.12321 22.9918 7.70881 23.2318 8.31361 23.4238L9.57121 19.5358C9.17761 19.411 8.79361 19.2478 8.42881 19.0654L6.57601 22.7038H6.56641Z" fill="black"/>
<path d="M8.01599 18.9213L10.0512 15.3789C9.75359 15.2061 9.48479 15.0045 9.24479 14.7549L3.52319 20.4957C3.96479 20.9373 4.44479 21.3501 4.95359 21.7149L7.31519 18.4605C7.53599 18.6237 7.77599 18.7773 8.01599 18.9117V18.9213Z" fill="black"/>
<path d="M18.9217 15.9838L15.3889 13.939C15.2161 14.2366 15.0049 14.5054 14.7649 14.7454L20.4961 20.467C20.9377 20.0254 21.3505 19.5454 21.7153 19.0366L18.4609 16.675C18.6241 16.4542 18.7777 16.2142 18.9121 15.9742L18.9217 15.9838Z" fill="black"/>
<path d="M10.992 15.7725L9.94556 19.7181C10.2144 19.7853 10.4832 19.8429 10.7616 19.8909L10.1472 23.8653C10.7616 23.9613 11.376 24.0093 12 24.0093H12.0096V15.9069H12C11.6544 15.9069 11.3184 15.8589 10.992 15.7725Z" fill="black"/>
<path d="M15.8976 12C15.8976 12.3456 15.8496 12.6816 15.7632 13.008L19.7088 14.0544C19.776 13.7856 19.8336 13.5168 19.8816 13.2384L23.856 13.8624C23.952 13.248 24 12.624 24 12H15.8976Z" fill="black"/>
</g>
<defs>
<clipPath id="clip0_3_62">
<rect width="24" height="24" fill="white"/>
</clipPath>
</defs>
</svg>
