<svg width="24" height="24" viewBox="0 0 24 24" fill="none" xmlns="http://www.w3.org/2000/svg">
    <title>Nexo Icon</title>
    <g clip-path="url(#clip0_1576_3431)">
        <path d="M6.22797 1.73576L17.9951 8.52639V15.4528L0 5.06317L5.76718 1.73576C5.83796 1.69756 5.91714 1.67755 5.99757 1.67755C6.07801 1.67755 6.15719 1.69756 6.22797 1.73576Z" fill="#3CA9E5"/>
        <path d="M17.9951 1.59998L11.9951 5.06319L17.9951 8.52641V1.59998Z" fill="#2853C3"/>
        <path d="M17.9951 1.59998L23.7671 4.92738C23.8366 4.96961 23.8943 5.02861 23.935 5.09895C23.9756 5.1693 23.998 5.24873 24 5.32997V18.9112L17.9951 15.4528V1.59998Z" fill="#1A4199"/>
        <path d="M23.995 18.9161L18.2278 22.2435C18.1541 22.2861 18.0705 22.3085 17.9853 22.3085C17.9002 22.3085 17.8165 22.2861 17.7428 22.2435L5.98047 15.4529V8.51672L23.995 18.9161Z" fill="#2853C3"/>
        <path d="M8.22662e-06 5.06317V18.6444C-0.000479262 18.7281 0.0207065 18.8105 0.0615048 18.8836C0.102303 18.9567 0.161325 19.018 0.23283 19.0616L6.00001 22.389V8.51669L8.22662e-06 5.06317Z" fill="#60BEFF"/>
        <path d="M6 22.3793L11.9951 18.916L6 15.4528V22.3793Z" fill="#3CA9E5"/>
    </g>
    <defs>
        <clipPath id="clip0_1576_3431">
            <rect width="24" height="24" fill="white"/>
        </clipPath>
    </defs>
</svg>
