<svg width="24" height="24" viewBox="0 0 24 24" fill="none" xmlns="http://www.w3.org/2000/svg">
    <title>OKB Icon</title>
    <path d="M11.9999 10.8679C15.001 10.8679 17.4338 8.43506 17.4338 5.43396C17.4338 2.43287 15.001 0 11.9999 0C8.99879 0 6.56592 2.43287 6.56592 5.43396C6.56592 8.43506 8.99879 10.8679 11.9999 10.8679Z" fill="#88BDF3"/>
    <path d="M11.9999 24C15.001 24 17.4338 21.5671 17.4338 18.566C17.4338 15.5649 15.001 13.1321 11.9999 13.1321C8.99879 13.1321 6.56592 15.5649 6.56592 18.566C6.56592 21.5671 8.99879 24 11.9999 24Z" fill="#3075EE"/>
    <path d="M18.5658 17.434C21.5669 17.434 23.9998 15.0011 23.9998 12C23.9998 8.99891 21.5669 6.56604 18.5658 6.56604C15.5647 6.56604 13.1318 8.99891 13.1318 12C13.1318 15.0011 15.5647 17.434 18.5658 17.434Z" fill="#5795F1"/>
    <path d="M5.43396 17.434C8.43506 17.434 10.8679 15.0011 10.8679 12C10.8679 8.99891 8.43506 6.56604 5.43396 6.56604C2.43287 6.56604 0 8.99891 0 12C0 15.0011 2.43287 17.434 5.43396 17.434Z" fill="#205FEC"/>
    <path d="M10.7208 10.7208C9.75228 10.4853 8.86716 9.98788 8.16233 9.28305C7.4575 8.57823 6.96012 7.69311 6.72461 6.72455C7.69145 6.96364 8.57466 7.46221 9.27891 8.16647C9.98317 8.87073 10.4817 9.75393 10.7208 10.7208Z" fill="#134BEF"/>
    <path d="M6.71338 17.2868C6.94889 16.3183 7.44627 15.4331 8.1511 14.7283C8.85593 14.0235 9.74105 13.5261 10.7096 13.2906C10.4705 14.2574 9.97194 15.1406 9.26768 15.8449C8.56343 16.5491 7.68022 17.0477 6.71338 17.2868Z" fill="#0932E8"/>
    <path d="M13.2793 13.2792C14.2479 13.5147 15.133 14.0121 15.8378 14.717C16.5426 15.4218 17.04 16.3069 17.2755 17.2755C16.3087 17.0364 15.4255 16.5378 14.7212 15.8335C14.017 15.1293 13.5184 14.2461 13.2793 13.2792Z" fill="#164BEA"/>
    <path d="M17.2868 6.7132C17.0512 7.68175 16.5539 8.56687 15.849 9.2717C15.1442 9.97653 14.2591 10.4739 13.2905 10.7094C13.5296 9.74258 14.0282 8.85938 14.7325 8.15512C15.4367 7.45086 16.3199 6.95229 17.2868 6.7132Z" fill="#3170F1"/>
</svg>
