<svg width="23" height="23" viewBox="0 0 23 23" fill="none" xmlns="http://www.w3.org/2000/svg">
<g clip-path="url(#clip0_7_2)">
<path fill-rule="evenodd" clip-rule="evenodd" d="M11.5 1.64286C6.05804 1.64286 1.64286 6.05804 1.64286 11.5C1.64286 16.942 6.05804 21.3571 11.5 21.3571H17.404C15.6585 22.3839 13.6562 23 11.5 23C5.13393 23 0 17.8147 0 11.5C0 5.13393 5.13393 0 11.5 0C17.8661 0 23 5.13393 23 11.5C23 12.0647 22.9487 12.6295 22.8973 13.1429H21.2545C21.3571 12.6295 21.4085 12.0647 21.4085 11.5C21.3571 6.05804 16.942 1.64286 11.5 1.64286Z" fill="#06070A"/>
<path fill-rule="evenodd" clip-rule="evenodd" d="M20.9464 18.0718C20.5356 18.6366 20.0223 19.2013 19.5089 19.7147H16.9419H11.4999C6.98207 19.7147 3.28564 16.0183 3.28564 11.5004C3.28564 6.98256 6.98207 3.28613 11.4999 3.28613C16.0178 3.28613 19.7142 6.98256 19.7142 11.5004C19.7142 12.0652 19.6629 12.6299 19.5602 13.1433H17.866C18.02 12.6299 18.0714 12.0652 18.0714 11.5004C18.0714 7.85533 15.145 4.92899 11.4999 4.92899C7.85484 4.92899 4.9285 7.85533 4.9285 11.5004C4.9285 15.1455 7.85484 18.0718 11.4999 18.0718H16.4285H18.8414H20.9464Z" fill="#06070A"/>
<path fill-rule="evenodd" clip-rule="evenodd" d="M21.8705 16.4284C22.1272 15.915 22.3326 15.3503 22.4866 14.7856H20.7411H18.9955H17.1473H15.1451H11.4487C9.65179 14.7856 8.16295 13.2967 8.16295 11.4999C8.16295 9.70299 9.65179 8.21415 11.4487 8.21415C13.2455 8.21415 14.7344 9.70299 14.7344 11.4999C14.7344 12.1159 14.5804 12.6807 14.2723 13.1427H16.0692C16.2746 12.6293 16.3259 12.0646 16.3259 11.4999C16.3259 8.77888 14.1183 6.57129 11.3973 6.57129C8.67634 6.57129 6.46875 8.77888 6.46875 11.4999C6.46875 14.2208 8.67634 16.4284 11.3973 16.4284H15.7612H17.9687H20.0223H21.8705Z" fill="#06070A"/>
</g>
<defs>
<clipPath id="clip0_7_2">
<rect width="23" height="23" fill="white"/>
</clipPath>
</defs>
</svg>
