<?xml version="1.0" encoding="UTF-8"?>
<svg width="24px" height="24px" viewBox="0 0 24 24" version="1.1" xmlns="http://www.w3.org/2000/svg" xmlns:xlink="http://www.w3.org/1999/xlink">
    <title>PAX Gold</title>
    <g id="Page-1" stroke="none" stroke-width="1" fill="none" fill-rule="evenodd">
        <g id="paxg" transform="translate(0.000000, 0.750000)" fill-rule="nonzero">
            <path d="M6.7207309,3.00519927 C7.17787375,2.488385 7.59448505,2.04729928 7.9924917,1.67795643 C1.26558139,1.46139928 3.22372092,6.32264215 1.03169435,11.262935 C-1.49255814,16.9525421 1.32870432,19.1207707 5.53269102,19.7963493 C4.94996677,19.1088136 4.47421927,18.3222993 4.11209302,17.4733422 C1.38651163,14.0429707 2.48352159,7.79337072 6.7207309,3.00519927" id="Fill-1" fill="#F1EB14"></path>
            <path d="M22.907309,9.06587643 C22.2813953,10.8282264 21.1325581,12.805805 19.5086379,14.7521622 C18.2428571,16.2687264 16.8355482,17.4631122 15.3830565,18.3280122 C13.7039867,19.4154479 11.6209302,20.0571479 9.29202657,20.0571479 C7.9883721,20.0571479 6.70664452,19.9847407 5.53255815,19.7960836 C6.22624585,20.6138193 7.06943522,21.2927193 8.05016613,21.766355 C14.1318937,24.7064836 14.5159468,19.2447264 20.9504983,16.4733264 C24.5637874,14.916905 24.5770764,11.8744764 22.907309,9.06587643" id="Fill-3" fill="#EEE809"></path>
            <path d="M15.3809967,3.382115 C16.2780066,3.54552927 17.1291694,3.84047215 17.8912957,4.27092927 C19.9338206,5.42612215 21.7942857,7.19378642 22.9072425,9.06574357 C24.0029236,5.98080072 23.4926246,3.55549357 21.0952824,3.11640072 C18.4607309,2.63479357 16.4009302,2.480015 14.4215282,1.09830071 C11.9836545,-0.603599285 9.8467774,-0.0422778572 7.99229235,1.67822214 C8.12318938,1.68220786 8.25674417,1.68818643 8.39428572,1.69615786 C10.9670432,1.847615 13.4221927,2.34848643 15.3809967,3.382115" id="Fill-5" fill="#EEE809"></path>
            <path d="M6.7207309,3.00519928 C2.4835216,7.79337073 1.38651163,14.0429707 4.11209303,17.4733422 C2.88817275,14.601635 2.9732226,11.0198064 4.69813953,8.16005643 C6.99448505,4.35237073 11.6004651,2.69232073 15.381196,3.38251358 C13.422392,2.34822072 10.9672425,1.84801357 8.3951495,1.69589214 C8.25694353,1.68792072 8.1233887,1.68260643 7.9924917,1.67795643 C7.59448505,2.04729929 7.17787375,2.488385 6.7207309,3.00519928" id="Fill-7" fill="#E8CA0A"></path>
            <path d="M17.8911628,4.271195 C17.1290365,3.84007357 16.2778737,3.545795 15.3808638,3.38238072 C17.9602658,4.74350215 19.6765448,7.03063785 19.6572757,10.6735807 C19.64,13.8342522 18.0067774,16.6275736 15.3828571,18.328145 C16.8353488,17.463245 18.2433222,16.2688593 19.5084385,14.752295 C21.1330232,12.8059378 22.281196,10.8283593 22.9071096,9.06600928 C21.7941528,7.19405215 19.9336877,5.42572358 17.8911628,4.271195" id="Fill-9" fill="#EFD323"></path>
            <path d="M14.9566113,16.5961528 C12.0443189,18.4667814 8.16126245,17.6324386 6.28285715,14.7321671 C4.40445182,11.8318957 5.33335547,8.09728143 8.1539535,6.09246715 C11.3081063,3.85116715 15.353289,4.73533143 16.8277077,7.95645285 C18.2655814,11.0971957 17.8682392,14.7255243 14.9566113,16.5961528 M15.381196,3.38218143 C11.6004651,2.69265285 6.99448505,4.35203858 4.69813952,8.15972428 C2.9732226,11.0194743 2.8875083,14.6019672 4.11209302,17.47301 C4.47421927,18.3219671 4.94930232,19.1091457 5.53269102,19.7966814 C6.7067774,19.9853386 7.98850497,20.0570814 9.29149502,20.0570814 C11.6210631,20.0570814 13.7041196,19.4153814 15.3825249,18.3279457 C18.0071096,16.6280386 19.6403322,13.8340529 19.6569435,10.6733814 C19.6768771,7.03043858 17.9599335,4.74330285 15.381196,3.38218143" id="Fill-11" fill="#D6AF27"></path>
        </g>
    </g>
</svg>