<svg width="25" height="24" viewBox="0 0 25 24" fill="none" xmlns="http://www.w3.org/2000/svg">
<g clip-path="url(#clip0_2972_217)">
<path d="M12.5 24C19.1274 24 24.5 18.6274 24.5 12C24.5 5.37258 19.1274 0 12.5 0C5.87258 0 0.5 5.37258 0.5 12C0.5 18.6274 5.87258 24 12.5 24Z" fill="#3D8130"/>
<path d="M17.0701 15.9095L17.0654 15.9048L17.0701 15.9095Z" fill="#3D8130"/>
<path d="M7.62959 9.51572L7.09053 10.5657L6.53271 11.6673L6.13897 12.6985L5.87646 13.7954L5.7124 14.9954L5.61396 16.0313L5.50146 16.711L5.61396 17.2407L5.80615 17.6954L6.1624 18.3235L6.9874 18.8392L7.59678 19.0782C7.74678 19.1251 7.90615 19.172 8.04209 19.2142L8.76397 19.3454L9.79522 19.3923H10.6483C10.7468 19.3923 11.6093 19.3454 11.614 19.3407L12.7108 19.3595L13.7702 19.2282L14.2296 19.036L14.5437 18.661L14.5577 18.1642C14.539 18.122 14.478 17.9626 14.4593 17.9017C14.4452 17.8595 14.2343 17.611 14.0421 17.3954L14.0374 17.3907C13.953 17.2688 13.8171 17.0579 13.8171 16.9876C13.8171 16.9173 13.9015 16.711 13.9202 16.6735L13.9296 16.6548L14.3702 16.5282L14.6608 16.7392L14.9233 16.5938L15.2187 16.2985L15.7343 15.9188L16.203 15.6517L16.5733 15.5813L17.0608 15.9142L17.028 15.8767L17.2296 15.6985L17.4171 15.3892V15.0657L17.3796 14.972L17.1405 15.1642L16.714 15.286H16.7046L16.0483 15.272L15.0968 15.3704L14.7968 15.4032L14.5671 15.3704L13.953 15.286L13.2593 15.1548L12.139 14.972H12.1343L11.0608 14.5267L10.1187 13.9829L9.54209 13.5938L9.48584 13.3173L9.56084 13.0595L9.79053 12.8907L10.3249 13.0126L11.4921 13.3735C12.064 13.4907 12.9358 13.6642 12.9921 13.6688C13.0202 13.6688 13.1327 13.6876 13.414 13.7345C13.714 13.7813 14.1265 13.8517 14.2108 13.8517C14.3562 13.8517 15.4765 13.9126 15.5421 13.9173C15.603 13.9173 16.5124 13.8985 16.6108 13.8985C16.6765 13.8985 17.028 13.7813 17.239 13.7063L17.5577 13.3267L17.8624 12.797C17.8812 12.6423 17.8624 12.4876 17.8062 12.3423C17.7312 12.1454 17.5905 11.9767 17.4124 11.8642C17.3187 12.0423 17.1968 12.1548 17.0562 12.2063C17.0046 12.2251 16.9437 12.2345 16.8874 12.2345C16.803 12.2345 16.7187 12.2157 16.6483 12.1782L16.6952 12.0938C16.7983 12.1454 16.9155 12.1548 17.028 12.1173C17.1546 12.0704 17.2624 11.9579 17.3468 11.7845C17.2437 11.822 17.1312 11.8454 17.0187 11.8454C16.9483 11.8454 16.878 11.8407 16.8077 11.822L16.8171 11.7751L16.8265 11.7282C16.8312 11.7282 17.1921 11.8173 17.464 11.6063C17.6562 11.461 17.764 11.1985 17.7827 10.8376L17.4687 11.2079L17.089 11.3813C16.9202 11.4235 16.3577 11.5642 16.3062 11.5642C16.2874 11.5642 16.2124 11.5548 16.0296 11.522C15.7999 11.4845 15.4577 11.4329 15.3687 11.4329C15.2093 11.4329 14.9843 11.2595 14.9608 11.2407L14.9327 11.222L15.1108 10.7017L15.603 10.1438L16.1233 9.77354H16.7702L17.3796 9.83916L17.6421 10.1392L17.7687 10.3267V9.82041L17.2624 9.6376C17.2062 9.62822 16.7046 9.55791 16.5827 9.55791C16.4655 9.55791 16.0155 9.62822 15.9405 9.6376L15.289 10.0595L15.2374 9.97978L15.903 9.54853H15.9124C15.9358 9.54385 16.4421 9.46416 16.578 9.46416C16.7093 9.46416 17.253 9.54385 17.2765 9.54853L17.2858 9.55322L17.8343 9.75479L17.8858 9.78291L17.8905 9.74541L17.6327 9.52041L17.1687 9.29541L16.6062 9.24854L15.9593 9.36103L15.7015 9.47354L15.664 9.38447L15.9358 9.26728L16.6015 9.1501L17.1921 9.20166L17.2155 9.21572L17.0374 8.93916L16.5358 8.49854L16.5405 8.49385L14.5905 8.5501C14.5905 8.5501 14.3374 8.58291 14.0468 8.62041L14.3233 9.01885L14.464 9.26728L14.3937 9.51572L14.2999 9.4876L14.3608 9.27666L14.239 9.06572L13.9437 8.63916L13.9624 8.6251C13.5968 8.67197 13.2077 8.71885 13.1843 8.71885C13.1421 8.71885 11.5765 8.83604 11.5108 8.83604C11.3796 8.82666 11.2483 8.8126 11.1218 8.78447C11.0983 8.77041 10.053 8.39072 10.0155 8.36729C9.97803 8.34385 9.6124 7.99229 9.6124 7.99229L8.8999 7.77197L8.27646 8.54072L7.62959 9.51572ZM15.2374 11.6673C15.3312 11.7095 15.4155 11.761 15.5046 11.8126L16.039 11.8735L16.3437 11.8079L16.3624 11.9017L16.0437 11.9673L15.6733 11.9251C15.8327 12.0423 15.978 12.1735 16.1093 12.3235C16.203 12.4313 16.2874 12.5485 16.3577 12.6704L16.2733 12.7173C16.189 12.5767 16.0905 12.4407 15.9733 12.3235C15.8187 12.1642 15.6452 12.0188 15.4577 11.9017L15.1858 11.747L15.2374 11.6673ZM9.87959 9.91416L10.3062 9.50635L10.6765 9.20166L11.2062 9.09854L11.764 9.07978H12.3593L12.8515 9.09854L13.8499 9.11729L14.164 9.30947L14.5483 9.66104L14.7687 9.93291L14.8718 10.486L14.778 10.5048L14.6796 9.9751L14.478 9.72197L14.1077 9.38447L13.8265 9.21104L13.0437 9.19697L13.3858 9.38447C13.5687 9.47822 13.8827 9.64697 13.9155 9.71729C13.939 9.75479 14.1874 9.99853 14.4171 10.2142L14.4218 10.2188L14.7733 10.6735L14.8249 11.0485L14.7312 11.0626L14.6843 10.7157L14.3515 10.2845C14.2343 10.1767 13.8687 9.82979 13.8358 9.76416C13.8077 9.72666 13.564 9.58604 13.3483 9.47354L12.8468 9.19697L12.364 9.18291H11.7733L11.2202 9.19697L10.728 9.29072L10.3765 9.57666L9.97803 9.96104L9.93584 10.2142L10.0202 10.2892L10.2312 10.1767L10.578 9.74541L11.2062 9.50635L12.0218 9.42197L12.7108 9.4876L13.6062 9.95166L13.9765 10.172L14.3327 10.6454L14.4968 11.161L14.7358 11.3157V11.5267L14.5155 11.7282L14.1218 11.8923L13.953 12.0329L13.7749 12.3235L13.6858 12.4688L13.6765 12.4735C13.5593 12.5345 13.353 12.6423 13.2968 12.6423C13.2546 12.6517 12.9921 12.7688 12.7577 12.886L12.7343 12.8907C12.7155 12.8954 12.303 13.022 12.1999 13.0407L12.1858 12.947C12.2749 12.9329 12.664 12.8157 12.7015 12.8017C12.9358 12.6892 13.2265 12.5532 13.278 12.5532C13.3905 12.511 13.4983 12.4595 13.6062 12.3985L13.6483 12.3282L13.864 11.9767L13.9155 11.9345C13.7655 11.9204 13.5687 11.897 13.5171 11.8688C13.4937 11.8595 13.353 11.8407 12.6171 11.8407C12.4343 11.8407 12.003 11.7423 11.9421 11.7235C11.8952 11.7095 11.4546 11.5782 11.4499 11.5782L11.4405 11.5735L11.4312 11.5642C11.4265 11.5595 11.0187 11.1704 10.7187 10.997L10.7655 10.9126C11.0562 11.0813 11.4265 11.4282 11.4921 11.4892C11.5624 11.5079 11.928 11.6204 11.9749 11.6345C12.0265 11.6532 12.4483 11.747 12.6171 11.747C13.503 11.747 13.5405 11.7704 13.564 11.7892C13.5968 11.8079 13.8077 11.8313 13.9858 11.8454L13.9812 11.8782L14.0515 11.8173L14.4452 11.6532L14.6187 11.4938V11.3767L14.4968 11.297L14.5015 11.311L14.0937 11.461L13.5312 11.5267C13.503 11.5267 13.3812 11.5313 13.2452 11.5313C13.0858 11.5313 12.9124 11.5267 12.8608 11.5079C12.7858 11.4845 12.3124 11.3813 12.078 11.3298H12.0733L12.0687 11.3251C11.7733 11.1657 11.4077 10.9642 11.3796 10.9126C11.3562 10.8845 11.1733 10.7907 11.0187 10.7157H11.014L10.4937 10.411L10.4233 10.4251L10.414 10.3642L10.2499 10.2704L9.99678 10.4063L9.81865 10.2517L9.87959 9.91416ZM10.0952 12.1595L10.1187 12.2532L9.7999 12.3282L9.64053 12.3657L9.63115 12.3282L9.61709 12.272L10.0952 12.1595ZM10.2968 12.6048L10.2733 12.6985C10.1655 12.6751 10.053 12.6798 9.94521 12.6985C9.76709 12.7313 9.50459 12.8345 9.25146 13.1251L9.18115 13.0642C9.70146 12.4548 10.2733 12.5954 10.2968 12.6048Z" fill="#3D8130"/>
<path d="M10.939 10.2328C10.9671 10.2281 11.6327 10.1484 11.7171 10.1484C11.7499 10.1484 11.8437 10.1578 11.9655 10.1671C12.1296 10.1812 12.4062 10.2046 12.4483 10.2C12.514 10.1812 13.1702 10.125 13.2452 10.1156L13.6343 10.0875L13.5546 10.0406L12.678 9.58589L12.0171 9.52026L11.2202 9.59995L10.6296 9.82495L10.3296 10.2L10.5218 10.3125L10.939 10.2328Z" fill="#3D8130"/>
<path d="M13.2498 10.2142C12.9592 10.2423 12.5139 10.2845 12.467 10.2938C12.4248 10.3032 12.2748 10.2938 11.9561 10.2657C11.8482 10.2563 11.7451 10.247 11.717 10.247C11.6514 10.247 11.1451 10.3079 10.9529 10.3267L10.6436 10.3829L11.0654 10.6313C11.1967 10.6923 11.4217 10.8048 11.4592 10.861C11.4967 10.8985 11.8154 11.0813 12.1107 11.2407C12.1857 11.2548 12.8045 11.3907 12.8982 11.4235C12.9639 11.447 13.3248 11.4423 13.5357 11.4376L14.0889 11.372L14.4217 11.2454L14.4029 11.236L14.2342 10.7017L13.9014 10.2563L13.7045 10.1392L13.7092 10.186L13.2498 10.2142Z" fill="#3D8130"/>
<path d="M17.5812 10.1765L17.3469 9.91401L16.775 9.84839H16.1656L15.6734 10.2L15.2047 10.7296L15.0547 11.1656C15.1297 11.2218 15.2797 11.3156 15.3781 11.3156C15.4766 11.3156 15.7953 11.3671 16.0531 11.4093C16.175 11.4281 16.2969 11.4468 16.3156 11.4468C16.3578 11.4421 16.7984 11.3343 17.0703 11.2687L17.4172 11.1093L17.6937 10.7906L17.6703 10.6406L16.8172 10.2937L15.725 10.2609L15.7297 10.1671L16.8406 10.2L17.7594 10.575L17.7969 10.814C17.7969 10.8 17.7969 10.7859 17.7969 10.7718V10.5093L17.5812 10.1765Z" fill="#3D8130"/>
<path d="M16.5594 15.675L16.2406 15.736L15.7906 15.9938L15.2844 16.3688L15.1437 16.5094L15.4625 16.7344L15.4859 16.9125L15.2703 17.1282L15.2047 17.0625L15.3875 16.8797L15.3781 16.7907L15.0781 16.5797L14.9891 16.6688L14.8016 16.7719L14.75 17.025L15.0125 17.2547L15.3922 17.2407C15.4625 17.1891 15.5797 17.1141 15.6359 17.1094C15.6922 17.0766 15.7484 17.0391 15.8 16.9969C15.9266 16.8985 15.9781 16.8657 16.0156 16.8657C16.1281 16.8094 16.2359 16.7485 16.3391 16.6782L16.3531 16.6688L16.8125 16.7204L16.9719 16.8797L16.9391 16.9125C16.8406 17.0204 16.7281 17.161 16.7234 17.1938C16.7234 17.2172 16.7187 17.2407 16.7094 17.2594L16.8172 17.1985L17.3234 16.8375L17.3797 16.9172L16.8641 17.2829L16.625 17.4141C16.6156 17.4282 16.6063 17.4422 16.6016 17.4469L16.5828 17.4329L16.2172 17.6344L15.9641 18L15.875 18.2157L16.0578 18.4735L16.2594 18.7032L16.4984 18.7313L16.7188 18.6844L16.7141 18.6375L16.9578 18.2532L17.4172 17.8079L17.4828 17.8782L17.0281 18.3188L16.8078 18.661L16.8219 18.9188L17.0563 19.0782L17.3656 19.111L17.5391 19.0594L17.5062 19.0079L17.5297 18.9797C17.5391 18.9657 17.7922 18.6797 17.8438 18.6329C17.8813 18.5954 18.0969 18.3469 18.2047 18.225L18.275 18.286C18.2609 18.3 17.9609 18.6516 17.9094 18.6985C17.8719 18.736 17.6891 18.9375 17.6234 19.0125L17.7875 19.2563H18.0641L18.3031 19.1485L18.5 18.8579L18.7625 18.5766L18.8328 18.6422L18.5703 18.9188L18.3688 19.2235L18.0828 19.35H17.7359L17.5906 19.1344L17.3703 19.2L17.0187 19.1672L16.7281 18.9657L16.7188 18.7782L16.4984 18.825L16.2078 18.7875L15.9875 18.5344L15.6594 18.3375L15.3172 17.9579L15.2328 17.3672L15.3266 17.3532L15.3969 17.8594L15.8047 17.536L16.2453 17.1141L16.4984 16.7672L16.3766 16.7532C16.2406 16.8422 16.0813 16.9407 16.025 16.95C15.9688 16.9829 15.9125 17.0204 15.8609 17.0625C15.7297 17.161 15.6781 17.1938 15.6453 17.1938C15.575 17.2266 15.5047 17.2688 15.4437 17.3157L15.4297 17.325L14.9844 17.3438L14.6516 17.0485L14.6984 16.8235L14.6656 16.8422L14.3656 16.6266L14.0141 16.7297C13.9766 16.8141 13.9484 16.8985 13.9297 16.9875C13.9344 17.025 14.0375 17.1985 14.1312 17.3344C14.2578 17.475 14.5484 17.8079 14.5672 17.8782C14.5813 17.9297 14.6422 18.0797 14.6656 18.136L14.6703 18.1454L14.6562 18.7829L14.8391 19.0547C14.9328 19.111 15.6219 19.5141 15.7016 19.561C15.7578 19.5938 16.2547 19.7344 16.5594 19.8188L17.5859 19.9172L18.4109 19.8047L19.1188 19.4813L19.5031 19.111L19.4141 18.7829L18.9406 17.9016L18.5984 17.3813L18.0031 16.7344L17.1266 16.2516L16.9953 15.9704L16.5594 15.675Z" fill="#3D8130"/>
<path d="M17.3045 13.7766L17.2904 13.7812C17.1967 13.8141 16.7186 13.9828 16.6154 13.9828C16.517 13.9828 15.5561 13.9969 15.5467 14.0016C15.5326 14.0016 14.3607 13.9359 14.2154 13.9359C14.1217 13.9359 13.742 13.875 13.4045 13.8187C13.217 13.7859 13.0248 13.7578 12.9967 13.7578C12.9311 13.7578 11.717 13.5094 11.4732 13.4625H11.4686L10.3014 13.1016L9.81387 12.9938L9.64512 13.1203L9.58887 13.3219L9.63106 13.5375L10.1748 13.9031L11.1076 14.4422L12.167 14.8828L13.2779 15.0609L13.9717 15.1922L14.8014 15.3047L16.0482 15.1734H16.0529L16.7045 15.1875L17.0982 15.075L17.4311 14.8078L17.7029 14.3906L17.7639 14.1984L17.6748 13.9828C17.2811 14.3391 17.2389 14.3531 17.2154 14.3578L16.8123 14.4562L15.692 14.5078H15.6873L14.5154 14.4422L13.3529 14.2313L12.4154 14.25H12.4107L11.4357 14.0016L10.5732 13.7016L10.1139 13.4203L10.1654 13.3406L10.6201 13.6172L11.4686 13.9125L12.4295 14.1562L13.367 14.1375H13.3717L14.5342 14.3484L15.6967 14.4141L16.8076 14.3672L17.1967 14.2687C17.2201 14.2594 17.3514 14.1563 17.6279 13.9031C17.6654 13.8703 17.6889 13.8469 17.6982 13.8375L18.0545 13.35L18.1764 13.1203C18.1576 13.0406 18.1389 12.9656 18.1295 12.8859C18.0826 12.8109 18.0311 12.7453 17.9701 12.6797C17.9701 12.7219 17.9701 12.7641 17.9607 12.8063V12.8156L17.6373 13.3734L17.3045 13.7766Z" fill="#983B1F"/>
<path d="M19.4891 18.75L19.0109 17.8594L18.6641 17.3297L18.0641 16.6594L17.1969 16.1859L17.0703 15.9141L17.0469 15.9281C17.0469 15.9281 17.1266 16.2188 17.1828 16.2469C17.2391 16.275 17.9891 16.6594 18.0266 16.6781C18.0641 16.6969 18.7156 17.475 18.7156 17.475L19.2406 18.3891L19.5547 19.0922C19.5547 19.0922 19.1516 19.5047 19.1281 19.5094C19.1047 19.5141 18.3266 19.8937 18.3031 19.8937C18.2797 19.8937 17.525 19.9781 17.4828 19.9688C17.4406 19.9547 16.5125 19.875 16.4422 19.8703C16.3672 19.8656 15.5094 19.5234 15.5094 19.5234L14.7687 19.0781L14.5578 18.75L14.2625 19.0828C14.2625 19.0828 13.8453 19.2938 13.7891 19.2938C13.7328 19.2938 12.7109 19.4297 12.6312 19.4297H10.5734C10.5734 19.4297 8.53906 19.3922 8.45 19.35C8.42188 19.3359 8.25781 19.2844 8.04219 19.2141L7.86875 19.1813L7.59687 19.0781C7.26406 18.975 6.96406 18.8859 6.96406 18.8859L6.125 18.3422C6.125 18.3422 5.77344 17.7328 5.75937 17.7C5.74531 17.6672 5.52969 17.1562 5.52969 17.1328C5.52969 17.1094 5.45469 16.7016 5.45469 16.7016L5.60469 15.7687L5.67031 14.7891L5.82969 13.7203C5.82969 13.7203 6.09687 12.6469 6.10156 12.6C6.10625 12.5484 6.5375 11.4891 6.5375 11.4891L6.99219 10.6688L7.59219 9.43125L8.25312 8.49844L8.89531 7.73438L8.9375 7.74844L8.8625 7.6875L8.23906 8.46094L7.54531 9.46875L7.00156 10.5281L6.44375 11.625L6.04531 12.6656L5.77812 13.7719L5.61406 14.9813L5.51562 16.0172L5.39844 16.7156L5.51562 17.2687L5.71719 17.7375L6.0875 18.3937L6.93594 18.9281L7.83125 19.2797L8.74531 19.4484L9.79062 19.5H10.6437C10.7422 19.5 11.5625 19.4531 11.6141 19.4484L12.7156 19.4672H12.7203L13.7938 19.3359H13.7984L14.2906 19.1297L14.5438 18.825L14.7547 19.1391L14.7641 19.1437C14.7734 19.1484 15.5562 19.6031 15.6359 19.6547C15.7203 19.7062 16.4375 19.9031 16.5219 19.9219L17.5719 20.0203L18.4156 19.9031H18.4203L19.1516 19.5703L19.1609 19.5656L19.5969 19.1437L19.4891 18.75Z" fill="black"/>
<path d="M8.25303 8.49844L7.59209 9.43125L6.99209 10.6688L6.5374 11.4891C6.5374 11.4891 6.10615 12.5484 6.10146 12.6C6.09678 12.6516 5.82959 13.7203 5.82959 13.7203L5.67022 14.7891L5.60459 15.7687L5.45459 16.7016C5.45459 16.7016 5.52959 17.1094 5.52959 17.1328C5.52959 17.1562 5.74521 17.6672 5.75928 17.7C5.77334 17.7328 6.1249 18.3422 6.1249 18.3422L6.96396 18.8859C6.96396 18.8859 7.26396 18.975 7.59678 19.0781L6.9874 18.8391L6.1624 18.3234L5.80615 17.6953L5.61396 17.2406L5.50146 16.7109L5.61396 16.0312L5.7124 14.9953L5.87646 13.7953L6.13897 12.6984L6.53271 11.6672L7.09053 10.5656L7.62959 9.51562L8.31865 8.51719L8.94209 7.74844L8.8999 7.73438L8.25303 8.49844Z" fill="black"/>
<path d="M16.5781 15.5767L16.2078 15.647L15.7391 15.9142L15.2234 16.2938L14.9281 16.5892L14.6656 16.7345L14.375 16.5235L13.9344 16.6501L13.925 16.6688C13.9063 16.711 13.8219 16.9126 13.8219 16.9829C13.8219 17.0532 13.9625 17.2688 14.0422 17.386L14.0469 17.3907C14.2391 17.6063 14.45 17.8548 14.4641 17.897C14.4781 17.9579 14.5438 18.1173 14.5625 18.1595L14.5484 18.6563L14.2344 19.0313L13.775 19.2235L12.7156 19.3548L11.6188 19.336C11.6094 19.336 10.7469 19.3876 10.6531 19.3876H9.8L8.76875 19.3407L8.04688 19.2095C8.25781 19.2751 8.42656 19.3313 8.45469 19.3454C8.53906 19.3876 10.5781 19.4251 10.5781 19.4251H12.6359C12.7156 19.4251 13.7422 19.2892 13.7938 19.2892C13.85 19.2892 14.2672 19.0782 14.2672 19.0782L14.5625 18.7454L14.7734 19.0735L15.5141 19.5188C15.5141 19.5188 16.3719 19.8563 16.4469 19.8657C16.5219 19.8704 17.4453 19.9501 17.4875 19.9642C17.5297 19.9782 18.2844 19.8892 18.3078 19.8892C18.3313 19.8892 19.1094 19.5142 19.1328 19.5048C19.1563 19.5001 19.5594 19.0876 19.5594 19.0876L19.2453 18.3845L18.7203 17.4704C18.7203 17.4704 18.0688 16.6923 18.0313 16.6735C17.9938 16.6548 17.2438 16.2704 17.1875 16.2423C17.1313 16.2142 17.0516 15.9235 17.0516 15.9235L17.075 15.9095V15.9048L16.5781 15.5767ZM17.1219 16.2517L17.9984 16.7345L18.5844 17.3813L18.9266 17.9017L19.4 18.7829L19.4891 19.111L19.1047 19.4813L18.3969 19.8048L17.5719 19.9173L16.5453 19.8188C16.2406 19.7345 15.7438 19.5938 15.6875 19.561C15.6078 19.5142 14.9188 19.111 14.825 19.0548L14.6422 18.7829L14.6563 18.1454V18.1407C14.6328 18.0845 14.5719 17.9345 14.5578 17.8829C14.5391 17.8126 14.2484 17.4798 14.1219 17.3392C14.0281 17.1985 13.9203 17.0251 13.9203 16.9923C13.9391 16.9032 13.9672 16.8188 14.0047 16.7345L14.3563 16.6313L14.6563 16.847L14.6891 16.8282L14.6422 17.0532L14.975 17.3485L15.4203 17.3298L15.4344 17.3204C15.4953 17.2735 15.5656 17.2313 15.6359 17.1985C15.6734 17.1985 15.7203 17.1657 15.8516 17.0673C15.9031 17.0251 15.9594 16.9876 16.0156 16.9548C16.0719 16.9501 16.2359 16.847 16.3672 16.7579L16.4891 16.772L16.2359 17.1188L15.7953 17.5407L15.3875 17.8642L15.3172 17.3579L15.2234 17.372L15.3078 17.9626L15.65 18.3423L15.9781 18.5392L16.1984 18.7923L16.4891 18.8298L16.7094 18.7829L16.7188 18.9704L17.0094 19.172L17.3609 19.2048L17.5813 19.1392L17.7266 19.3548H18.0734L18.3594 19.2282L18.5609 18.9235L18.8234 18.647L18.7531 18.5813L18.4906 18.8626L18.2938 19.1532L18.0547 19.261H17.7781L17.6141 19.0173C17.6797 18.9423 17.8625 18.7407 17.9 18.7032C17.9516 18.6517 18.2516 18.3048 18.2656 18.2907L18.1953 18.2298C18.0875 18.3563 17.8719 18.6001 17.8344 18.6376C17.7828 18.6892 17.5297 18.9751 17.5203 18.9845L17.4969 19.0126L17.5297 19.0642L17.3563 19.1157L17.0469 19.0829L16.8125 18.9235L16.7984 18.6657L17.0188 18.3235L17.4734 17.8829L17.4078 17.8126L16.9484 18.2579L16.7047 18.6423L16.7094 18.6892L16.4891 18.736L16.25 18.7079L16.0484 18.4782L15.8656 18.2204L15.9547 18.0048L16.2078 17.6392L16.5734 17.4376L16.5922 17.4517C16.5969 17.4423 16.6063 17.4329 16.6156 17.4188L16.8547 17.2876L17.3703 16.922L17.3141 16.8423L16.8078 17.2032L16.7 17.2642C16.7094 17.2454 16.7141 17.222 16.7141 17.1985C16.7188 17.161 16.8313 17.0251 16.9297 16.9173L16.9625 16.8845L16.8031 16.7251L16.3438 16.6735L16.3297 16.6829C16.2266 16.7532 16.1188 16.8188 16.0063 16.8704C15.9688 16.8704 15.9172 16.9079 15.7906 17.0017C15.7391 17.0438 15.6828 17.0813 15.6266 17.1142C15.5703 17.1188 15.4578 17.1938 15.3828 17.2454L15.0031 17.2595L14.7406 17.0298L14.7922 16.7767L14.9797 16.6735L15.0687 16.5845L15.3688 16.7954L15.3781 16.8845L15.1953 17.0673L15.2609 17.1329L15.4766 16.9173L15.4531 16.7392L15.1344 16.5142L15.275 16.3735L15.7813 15.9985L16.2313 15.7407L16.55 15.6798L16.9813 15.9751L17.1219 16.2517ZM15.8375 18.347L15.7109 18.272L15.4297 17.9626L15.8609 17.6251L16.3063 17.1938L16.5969 16.7907L16.7609 16.8095L16.8313 16.8798C16.7422 16.9782 16.6203 17.1235 16.6203 17.1892C16.6063 17.2454 16.5781 17.297 16.5453 17.3392L16.1375 17.5642L15.8656 17.9532L15.7531 18.2345L15.8375 18.347Z" fill="black"/>
<path d="M16.9857 8.7937L17.2248 9.10776C17.2248 9.10776 17.342 9.29058 17.3842 9.30464C17.4264 9.3187 17.8154 9.5437 17.8154 9.5437L17.9748 9.72183L17.942 9.82495L17.8201 9.78745L17.8389 10.3921H17.8764V9.84839L17.9842 9.90933L18.0123 9.67964L17.7076 9.41245L17.3795 9.25308L17.3936 9.2437L17.1404 8.84526L16.6295 8.39526L16.5732 8.46089H16.6248L16.9857 8.7937Z" fill="black"/>
<path d="M17.7826 11.2642C17.7826 11.2642 17.6092 11.611 17.5904 11.6204C17.5717 11.6345 17.417 11.7001 17.417 11.7001L17.4311 11.7845C17.5014 11.836 17.5717 11.8923 17.6326 11.9532C17.642 11.9673 17.7451 12.1735 17.8295 12.3282H17.9139C17.8342 12.0938 17.6748 11.8923 17.4639 11.7657C17.4732 11.747 17.4826 11.7235 17.492 11.7048C17.5061 11.6954 17.5248 11.686 17.5389 11.672C17.7686 11.4985 17.8857 11.1985 17.8998 10.7767V10.4813L17.8436 10.397L17.8576 10.8517L17.7826 11.2642Z" fill="black"/>
<path d="M17.0705 8.91572L17.2486 9.19229L17.2252 9.17822L16.6346 9.12666L15.9689 9.24385L15.6971 9.36103L15.7346 9.4501L15.9924 9.3376L16.6393 9.2251L17.2018 9.27197L17.6658 9.49697L17.9236 9.72197L17.9189 9.75947L17.8674 9.73135L17.3189 9.52979L17.3096 9.5251C17.2861 9.52041 16.7471 9.44072 16.6111 9.44072C16.4752 9.44072 15.9689 9.52041 15.9455 9.5251H15.9361L15.2705 9.95635L15.3221 10.036L15.9736 9.61416C16.0486 9.60479 16.4986 9.53447 16.6158 9.53447C16.7377 9.53447 17.2393 9.60947 17.2955 9.61416L17.8018 9.79697V10.3126L17.6752 10.1251L17.4127 9.8251L16.8033 9.75947H16.1564L15.6361 10.1298L15.1439 10.6876L14.9658 11.2079L14.9939 11.2267C15.0174 11.2454 15.2424 11.4188 15.4018 11.4188C15.4908 11.4188 15.8377 11.4751 16.0627 11.5079C16.2455 11.536 16.3205 11.5501 16.3393 11.5501C16.3908 11.5501 16.9533 11.4095 17.1221 11.3673L17.5018 11.1938L17.8158 10.8235C17.7971 11.1845 17.6893 11.447 17.4971 11.5923C17.2205 11.8032 16.8596 11.7142 16.8596 11.7142L16.8502 11.761L16.8408 11.8079C16.9111 11.822 16.9814 11.8313 17.0518 11.8313C17.1643 11.8313 17.2768 11.8126 17.3799 11.7704C17.2955 11.9438 17.1877 12.0563 17.0611 12.1032C16.9533 12.1407 16.8314 12.1313 16.7283 12.0798L16.6814 12.1642C16.7564 12.2017 16.8408 12.2204 16.9205 12.2204C16.9768 12.2204 17.033 12.211 17.0893 12.1923C17.2299 12.1407 17.3471 12.0282 17.4455 11.8501C17.6236 11.9626 17.7643 12.1313 17.8393 12.3282H17.8533C17.7736 12.1735 17.6658 11.9673 17.6564 11.9532C17.5908 11.8923 17.5252 11.836 17.4549 11.7845L17.4408 11.7001C17.4408 11.7001 17.5955 11.6345 17.6143 11.6204C17.633 11.6063 17.8064 11.2642 17.8064 11.2642L17.8814 10.8563L17.8674 10.4017L17.8486 9.79697L17.9705 9.83447L18.0033 9.73135L17.8439 9.55322C17.8439 9.55322 17.4549 9.32353 17.4127 9.31416C17.3705 9.3001 17.2533 9.11729 17.2533 9.11729L17.0143 8.80322L16.6486 8.4751H16.5971L16.5924 8.47978L17.0705 8.91572ZM17.8018 10.8142L17.7643 10.5751L16.8455 10.2001L15.7346 10.1673L15.7299 10.261L16.8221 10.2938L17.6752 10.6407L17.6986 10.7907L17.4221 11.1095L17.0752 11.2688C16.8033 11.3345 16.3627 11.4423 16.3205 11.447C16.3018 11.447 16.1799 11.4282 16.058 11.4095C15.8002 11.3673 15.4814 11.3157 15.383 11.3157C15.2893 11.3157 15.1393 11.222 15.0596 11.1657L15.2096 10.7298L15.6783 10.2001L16.1705 9.84854H16.7799L17.3518 9.91416L17.5861 10.1767L17.8064 10.5095V10.772C17.8018 10.786 17.8018 10.8001 17.8018 10.8142Z" fill="black"/>
<path d="M14.8063 15.3937L15.1063 15.3608H14.5767L14.8063 15.3937Z" fill="black"/>
<path d="M17.4732 15.3796C17.4592 15.403 17.1873 15.8437 17.1873 15.8437L17.0654 15.9093L17.0936 15.9421L17.3092 15.7546L17.5154 15.4077V15.3608H17.4732C17.4779 15.3702 17.4779 15.3749 17.4732 15.3796Z" fill="black"/>
<path d="M17.4735 15.3796C17.4735 15.3749 17.4782 15.3655 17.4782 15.3608H17.4267V15.3796L17.2392 15.689L17.0376 15.8671L17.0704 15.9046L17.0751 15.9093L17.197 15.8437C17.1923 15.8437 17.4642 15.4077 17.4735 15.3796Z" fill="black"/>
<path d="M17.9233 12.5062L17.9655 12.5672C17.9562 12.4875 17.9421 12.4078 17.914 12.3281H17.8296C17.8812 12.4266 17.9233 12.5062 17.9233 12.5062Z" fill="black"/>
<path d="M18.2283 13.0312C18.2236 13.0546 18.1674 13.2421 18.1533 13.2702C18.1393 13.303 17.6986 13.9077 17.6986 13.9077L17.8018 14.1187C17.8018 14.1187 17.8205 14.2687 17.8064 14.2921C17.7924 14.3155 17.4033 14.9202 17.4033 14.9202L17.4643 15.089C17.4643 15.089 17.4783 15.2999 17.4736 15.3655H17.5158V15.0421L17.4643 14.9015L17.5064 14.8687L17.7924 14.428L17.8674 14.189L17.7549 13.9124C17.7643 13.903 17.7689 13.8983 17.7689 13.8983L18.1346 13.3968L18.2799 13.1296L18.2752 13.1108C18.2564 13.0358 18.2377 12.9562 18.2283 12.8765C18.2283 12.8577 18.2283 12.8062 17.9846 12.5483L17.9658 12.5671L18.1111 12.7733C18.1111 12.7733 18.233 13.0077 18.2283 13.0312Z" fill="black"/>
<path d="M17.8298 12.3281H17.8157C17.872 12.4734 17.8907 12.6281 17.872 12.7828L17.5626 13.3125L17.2438 13.6922C17.0282 13.7672 16.6767 13.8844 16.6157 13.8844C16.5173 13.8844 15.6079 13.8984 15.547 13.9031C15.4767 13.8984 14.361 13.8375 14.2157 13.8375C14.1313 13.8375 13.7188 13.7719 13.4188 13.7203C13.1423 13.6734 13.0251 13.6547 12.997 13.6547C12.936 13.65 12.0688 13.4766 11.497 13.3594L10.3298 12.9984L9.79541 12.8766L9.56572 13.0453L9.49072 13.3031L9.54697 13.5797L10.1235 13.9688L11.0657 14.5125L12.1392 14.9578H12.1438L13.2642 15.1406L13.9579 15.2719L14.572 15.3563H15.1063L16.0579 15.2578L16.7142 15.2719H16.7235L17.1501 15.15L17.3892 14.9578L17.4267 15.0516V15.3563H17.4782C17.4829 15.2906 17.4688 15.0797 17.4688 15.0797L17.4079 14.9109C17.4079 14.9109 17.797 14.3063 17.811 14.2828C17.8251 14.2594 17.8063 14.1094 17.8063 14.1094L17.7032 13.8984C17.7032 13.8984 18.1485 13.2937 18.1579 13.2609C18.172 13.2281 18.2235 13.0453 18.2329 13.0219C18.2376 12.9984 18.1157 12.7641 18.1157 12.7641L17.9704 12.5578L17.9282 12.4969C17.9235 12.5063 17.8813 12.4266 17.8298 12.3281ZM17.9657 12.8063C17.9704 12.7641 17.9751 12.7219 17.9751 12.6797C18.036 12.7406 18.0876 12.8109 18.1345 12.8859C18.1438 12.9656 18.1579 13.0453 18.1813 13.1203L18.0595 13.35L17.7032 13.8375C17.6938 13.8469 17.6657 13.8703 17.6329 13.9031C17.3563 14.1563 17.2298 14.2547 17.2017 14.2687L16.8126 14.3672L15.7017 14.4141L14.5392 14.3484L13.3767 14.1375H13.372L12.4345 14.1562L11.4735 13.9125L10.6251 13.6172L10.1704 13.3406L10.1188 13.4203L10.5782 13.7016L11.4407 14.0016L12.4157 14.25H12.4204L13.3579 14.2313L14.5204 14.4422L15.6923 14.5078H15.697L16.8173 14.4562L17.2204 14.3578C17.2392 14.3531 17.286 14.3391 17.6798 13.9828L17.7688 14.1984L17.7079 14.3906L17.436 14.8078L17.1032 15.075L16.7095 15.1875L16.0579 15.1734H16.0532L14.8063 15.3047L13.9767 15.1922L13.2829 15.0609L12.172 14.8828L11.1126 14.4422L10.1798 13.9031L9.63603 13.5375L9.59385 13.3219L9.6501 13.1203L9.81885 12.9938L10.3063 13.1016L11.4735 13.4625H11.4782C11.722 13.5141 12.9313 13.7578 13.0017 13.7578C13.0251 13.7578 13.222 13.7906 13.4095 13.8187C13.747 13.875 14.1267 13.9359 14.2204 13.9359C14.3657 13.9359 15.5376 14.0016 15.5517 14.0016C15.561 14.0016 16.522 13.9828 16.6204 13.9828C16.7235 13.9828 17.2017 13.8141 17.2954 13.7812L17.3095 13.7766L17.647 13.3734L17.9704 12.8156L17.9657 12.8063Z" fill="black"/>
<path d="M9.94521 12.6983C10.053 12.6749 10.1655 12.6749 10.2733 12.6983L10.2968 12.6046C10.2733 12.5999 9.70146 12.4546 9.18115 13.064L9.25146 13.1249C9.50459 12.8296 9.76709 12.7312 9.94521 12.6983Z" fill="black"/>
<path d="M9.79531 12.3282L10.1141 12.2532L10.0953 12.1594L9.61719 12.2719L9.63125 12.3282H9.79531Z" fill="black"/>
<path d="M9.64072 12.3656L9.79541 12.3281H9.63135L9.64072 12.3656Z" fill="black"/>
<path d="M15.4674 11.9062C15.6549 12.0281 15.8283 12.1687 15.983 12.3281H16.1143C15.983 12.1781 15.8377 12.0469 15.6783 11.9297L16.0486 11.9719L16.3674 11.9062L16.3486 11.8125L16.0439 11.8781L15.5096 11.8172C15.4252 11.7609 15.3361 11.7141 15.2424 11.6719L15.2002 11.7563L15.4674 11.9062Z" fill="black"/>
<path d="M16.2782 12.7219L16.3626 12.675C16.2923 12.5531 16.2079 12.4359 16.1142 12.3281H15.9829C16.0954 12.45 16.1938 12.5812 16.2782 12.7219Z" fill="black"/>
<path d="M10.2502 10.2704L10.4143 10.3642L10.4236 10.4251L10.4939 10.411L11.0143 10.7157H11.0189C11.1736 10.7907 11.3564 10.8845 11.3799 10.9126C11.4127 10.9595 11.7736 11.161 12.0689 11.3251L12.0736 11.3298H12.0783C12.3174 11.3813 12.7861 11.4845 12.8611 11.5079C12.9174 11.5267 13.0908 11.5313 13.2455 11.5313C13.3814 11.5313 13.508 11.5267 13.5314 11.5267L14.0939 11.461L14.5018 11.311L14.4971 11.297L14.6189 11.3767V11.4938L14.4455 11.6532L14.0518 11.8173L13.9814 11.8782L13.9861 11.8454C13.808 11.8313 13.5971 11.8032 13.5643 11.7892C13.5408 11.7751 13.5033 11.747 12.6174 11.747C12.4486 11.747 12.0268 11.6532 11.9752 11.6345C11.9283 11.6204 11.5627 11.5079 11.4924 11.4892C11.4314 11.4282 11.0611 11.086 10.7658 10.9126L10.7189 10.997C11.0236 11.1751 11.4314 11.5595 11.4314 11.5642L11.4408 11.5735L11.4502 11.5782C11.4549 11.5782 11.8955 11.7095 11.9424 11.7235C11.9986 11.7423 12.4299 11.8407 12.6174 11.8407C13.3533 11.8407 13.4893 11.8595 13.5174 11.8688C13.5689 11.897 13.7658 11.9204 13.9158 11.9345L13.8643 11.9767L13.6486 12.3282H13.7611L13.9393 12.0376L14.108 11.897L14.5018 11.7329L14.7221 11.5313V11.3204L14.483 11.1657L14.3189 10.6501L13.9627 10.1767L13.5924 9.95635L12.6971 9.49229L12.008 9.42666L11.1924 9.51103L10.5643 9.7501L10.2174 10.1813L10.0064 10.2938L9.92207 10.2188L9.96426 9.96572L10.3627 9.58135L10.7143 9.29541L11.2064 9.20166L11.7596 9.1876H12.3502L12.833 9.20166L13.3346 9.47822C13.5502 9.59072 13.7986 9.73135 13.8221 9.76885C13.8549 9.83447 14.2205 10.1813 14.3377 10.2892L14.6705 10.7204L14.7174 11.0673L14.8111 11.0532L14.7596 10.6782L14.408 10.2235L14.4033 10.2188C14.1736 10.0079 13.9252 9.76416 13.9018 9.72197C13.8689 9.65166 13.5549 9.48291 13.3721 9.38916L13.0299 9.20166L13.8127 9.21572L14.0939 9.38916L14.4643 9.72666L14.6658 9.97978L14.7643 10.5095L14.858 10.4907L14.7549 9.9376L14.5346 9.66572L14.1502 9.31416L13.8361 9.12197L12.8377 9.10322L12.3455 9.08447H11.7502L11.1924 9.10322L10.6627 9.20635L10.2924 9.51103L9.86582 9.91885L9.80957 10.2563L9.98769 10.411L10.2502 10.2704ZM13.9064 10.2517L14.2393 10.697L14.408 11.2313L14.4268 11.2407L14.0939 11.3673L13.5408 11.4329C13.3299 11.4376 12.9689 11.4423 12.9033 11.4188C12.8096 11.386 12.1908 11.2548 12.1158 11.236C11.8205 11.0767 11.4971 10.8938 11.4643 10.8563C11.4268 10.8048 11.2018 10.6923 11.0705 10.6267L10.6486 10.3782L10.958 10.322C11.1502 10.2985 11.6564 10.2423 11.7221 10.2423C11.7502 10.2423 11.8533 10.2517 11.9611 10.261C12.2799 10.2892 12.4299 10.2985 12.4721 10.2892C12.5189 10.2798 12.9643 10.2329 13.2549 10.2095L13.7143 10.1767L13.7096 10.1298L13.9064 10.2517ZM10.6252 9.82978L11.2158 9.60478L12.0127 9.5251L12.6736 9.59072L13.5502 10.0454L13.6299 10.0923L13.2408 10.1204C13.1658 10.1251 12.5096 10.186 12.4439 10.2048C12.4018 10.2142 12.1299 10.186 11.9611 10.172C11.8393 10.1626 11.7455 10.1532 11.7127 10.1532C11.6283 10.1532 10.9627 10.2329 10.9346 10.2376L10.5127 10.3173L10.3205 10.2048L10.6252 9.82978Z" fill="black"/>
<path d="M13.6063 12.3985C13.4985 12.4594 13.3907 12.5063 13.2782 12.5532C13.2267 12.5532 12.936 12.6891 12.7017 12.8016C12.6595 12.8157 12.2751 12.9329 12.186 12.9469L12.2001 13.0407C12.2985 13.0219 12.7157 12.8954 12.7345 12.8907L12.7392 12.886C12.9735 12.7735 13.2407 12.6516 13.2782 12.6422C13.3345 12.6375 13.5407 12.5344 13.6579 12.4735L13.6673 12.4688L13.7563 12.3235H13.6438L13.6063 12.3985Z" fill="black"/>
<path d="M14.0561 8.55933L13.9951 8.60151C14.0232 8.59683 14.0514 8.59683 14.0795 8.59214L14.0561 8.55933Z" fill="black"/>
<path d="M14.2768 9.04224L14.3986 9.25317L14.3377 9.46411L14.4314 9.49224L14.5018 9.2438L14.3611 8.99536L14.0846 8.59692C14.0564 8.60161 14.0283 8.60161 14.0002 8.6063L13.9814 8.62036L14.2768 9.04224Z" fill="black"/>
<path d="M17.1451 8.92978L17.5623 8.8876C17.5623 8.8876 18.6029 9.19697 18.6451 9.23916C18.6873 9.28135 19.2123 9.51103 19.2123 9.51103L19.5217 9.53916L19.5639 9.25791L19.3342 8.92978L18.6732 8.44228L17.9186 8.07666L17.4451 7.9126L17.2764 5.52197L16.8779 4.92666L16.2826 4.43916L15.5139 4.05947L14.717 4.04541L13.217 4.23291L11.8389 4.50478L11.7592 4.27041C11.6514 4.24228 11.5436 4.22354 11.4357 4.20947C11.3561 4.20947 10.6248 4.43447 10.6248 4.43447L10.1795 4.66885L10.0857 4.94072L9.44824 5.29228L8.93262 5.93916L8.63731 6.5626C8.63731 6.5626 8.4873 7.18604 8.4873 7.22354C8.4873 7.26104 8.56699 7.60322 8.62324 7.62666C8.67949 7.6501 9.09668 7.7626 9.09668 7.7626L9.64512 8.03447L10.4373 8.49385L11.4217 8.81728C11.4217 8.81728 12.3545 8.75166 12.4482 8.75166C12.542 8.75166 13.9482 8.60166 14.0279 8.60166C14.1076 8.60166 15.6498 8.47978 15.692 8.47978C15.7342 8.47978 16.6529 8.46572 16.6529 8.46572L17.0186 8.78916L17.1451 8.92978Z" fill="#C82727"/>
<path d="M16.7797 10.2562L16.9016 10.514L16.9766 10.8093L16.9391 10.9968L16.7797 11.4046L16.2734 11.489L15.4578 11.3437L15.3594 11.0577L15.3969 10.7999L15.4813 10.3921L15.6922 10.1577L15.8281 10.2327L16.7281 10.2562" fill="black"/>
<path d="M13.0674 10.2187L13.2174 10.5046L13.2314 10.8515L13.1564 11.1608L12.9971 11.4093L12.7393 11.4233L11.7502 11.128L11.3564 10.7812L11.408 10.5608L11.5439 10.3499L11.7268 10.2046L12.4205 10.2233C12.4111 10.2187 13.0393 10.2702 13.0674 10.2187Z" fill="black"/>
<path d="M19.4373 8.96719L19.0529 8.62969L18.4998 8.25938L17.5904 7.92656L17.4639 7.875L17.4264 7.09219C17.3795 6.70781 17.3139 6.12656 17.3139 6.07969C17.3139 6.01406 17.2811 5.53594 17.2811 5.51719V5.50781L17.0092 5.01563L16.5545 4.54688L15.8561 4.14844L15.2748 3.98438H14.4779L13.6951 4.08281C13.3811 4.13437 12.8889 4.21406 12.8326 4.21406C12.7482 4.21406 12.092 4.36406 12.017 4.37813L11.7873 4.43906L11.8248 4.42031L11.7498 4.27031L11.5061 4.17656L11.1498 4.20938L10.5779 4.35L10.1467 4.62656L10.0576 4.85625L10.1186 4.87969L9.87949 4.94063H9.87012L9.36387 5.25937L9.01231 5.65781L8.69356 6.19219L8.44043 7.06406V7.37812L8.60449 7.66875L9.63106 8.03438L9.97324 8.34375L10.7373 8.69063L11.4123 8.85938L12.6732 8.775L14.4967 8.57813L15.7951 8.47969L16.8732 8.49375L18.0123 8.65781L18.9123 9.08438L18.9545 9L18.0451 8.56875L16.8873 8.40469L15.7951 8.38594L14.492 8.48438L12.6686 8.68125L11.4264 8.76094L10.7795 8.60156L10.0342 8.25938L9.6873 7.94531L8.6748 7.58438L8.54356 7.35V7.07344L8.78731 6.22969L9.09668 5.71406L9.43418 5.32969L9.91699 5.025L12.0451 4.46719C12.3217 4.40625 12.7857 4.30313 12.842 4.30313C12.9264 4.30313 13.6389 4.18594 13.7186 4.17188L14.4873 4.07344H15.2654L15.8139 4.23281L16.4936 4.62187L16.9295 5.07187L17.1826 5.53594C17.192 5.70938 17.2154 6.03281 17.2154 6.07969C17.2154 6.14531 17.3186 7.00781 17.3326 7.10156L17.3701 7.8375L16.817 7.62656L15.7248 7.50938L14.8998 7.425L14.0889 7.49063L13.1514 7.58906L12.0592 7.8375L11.2389 8.03438L10.6904 8.06719L9.9873 7.92656L10.3436 8.18438L10.6342 8.35313L11.2998 8.51719L11.9514 8.53594H11.9561L12.5373 8.47031L13.3576 8.33906L14.1592 8.20781L15.0592 8.14219L15.6826 8.10938L16.4326 8.15625L17.4498 8.2875L18.7623 8.53594L18.992 8.68594L19.3576 9.00469L19.4607 9.24375L19.4373 9.42188L19.2404 9.43594L18.8561 9.25781L18.1482 8.97656L17.5904 8.80781L17.1029 8.85938L17.1123 8.95313L17.5811 8.90625L18.1107 9.06563L18.8139 9.34219L19.2217 9.52969L19.517 9.51094L19.5592 9.22969L19.4373 8.96719ZM10.1561 4.86563L10.2264 4.6875L10.6154 4.43906L11.1639 4.30781L11.4967 4.275L11.6842 4.34531L11.7357 4.44844L10.1561 4.86563ZM17.4639 8.2125L16.4373 8.08125L15.6779 8.02969L15.0498 8.0625L14.1451 8.12813L13.3342 8.25938L12.5139 8.39063L11.942 8.45625L11.3092 8.44219L10.6623 8.28281L10.3904 8.12344H10.3857L10.6717 8.17969L11.2389 8.14688L12.0686 7.95L13.1514 7.70625L14.0842 7.60781L14.8857 7.54219L15.7014 7.62188L16.7795 7.73438L17.5482 8.02969L18.4482 8.35781L18.5514 8.42813L17.4639 8.2125Z" fill="black"/>
<path d="M12.7582 10.9958C12.9145 10.9493 13.0096 10.805 12.9704 10.6735C12.9313 10.542 12.7729 10.4731 12.6166 10.5196C12.4602 10.5661 12.3652 10.7104 12.4043 10.8419C12.4434 10.9734 12.6019 11.0423 12.7582 10.9958Z" fill="white"/>
<path d="M11.9939 10.9688C12.0613 10.9688 12.1158 10.9143 12.1158 10.847C12.1158 10.7797 12.0613 10.7251 11.9939 10.7251C11.9266 10.7251 11.8721 10.7797 11.8721 10.847C11.8721 10.9143 11.9266 10.9688 11.9939 10.9688Z" fill="white"/>
<path d="M11.9188 10.589C11.9861 10.589 12.0406 10.5344 12.0406 10.4671C12.0406 10.3998 11.9861 10.3452 11.9188 10.3452C11.8514 10.3452 11.7969 10.3998 11.7969 10.4671C11.7969 10.5344 11.8514 10.589 11.9188 10.589Z" fill="white"/>
<path d="M15.8889 11.1234C15.951 11.1234 16.0014 11.0731 16.0014 11.0109C16.0014 10.9488 15.951 10.8984 15.8889 10.8984C15.8267 10.8984 15.7764 10.9488 15.7764 11.0109C15.7764 11.0731 15.8267 11.1234 15.8889 11.1234Z" fill="white"/>
<path d="M15.8748 10.6969C15.9421 10.6969 15.9967 10.6423 15.9967 10.575C15.9967 10.5077 15.9421 10.4531 15.8748 10.4531C15.8075 10.4531 15.7529 10.5077 15.7529 10.575C15.7529 10.6423 15.8075 10.6969 15.8748 10.6969Z" fill="white"/>
<path d="M16.5455 11.0437C16.6672 11.0437 16.7658 10.945 16.7658 10.8233C16.7658 10.7017 16.6672 10.603 16.5455 10.603C16.4238 10.603 16.3252 10.7017 16.3252 10.8233C16.3252 10.945 16.4238 11.0437 16.5455 11.0437Z" fill="white"/>
</g>
<defs>
<clipPath id="clip0_2972_217">
<rect width="24" height="24" fill="white" transform="translate(0.5)"/>
</clipPath>
</defs>
</svg>
