<svg width="24" height="24" viewBox="0 0 24 24" fill="none" xmlns="http://www.w3.org/2000/svg">
    <title>Quant Icon</title>
    <circle cx="12" cy="12" r="12" fill="black"/>
    <path d="M9.08008 3.18708L14.0298 9.13877L17.3522 7.13304C17.3522 7.13304 13.3438 1.63161 12.2748 2.02048C11.2698 2.41344 9.08008 3.18708 9.08008 3.18708Z" fill="white"/>
    <path d="M17.4761 7.13302C17.4761 7.13302 18.2299 5.77404 18.6048 3.96069C18.6048 3.96069 22.3659 5.51206 20.9221 9.39663L17.4761 7.13302Z" fill="white"/>
    <path d="M20.9219 9.40072L21.237 13.4777L22.6768 13.2853C22.6768 13.2853 23.0517 13.1543 22.9919 12.4462C22.9281 11.6684 22.8044 10.0516 22.8044 10.0516C22.8044 10.0516 22.8683 9.6627 21.9908 9.5358C20.9219 9.33523 20.9219 9.40072 20.9219 9.40072Z" fill="white"/>
    <path d="M21.2333 13.4777L18.3496 15.8723L19.6658 18.5247C19.6658 18.5247 19.9809 19.5603 20.9182 18.3937C21.7957 17.2271 22.1706 17.0348 22.1068 16.3225C22.0509 15.6103 21.8595 13.9279 21.2333 13.4777Z" fill="white"/>
    <path d="M18.2898 15.8682L14.3412 14.0549L10.8951 21.2387C10.8951 21.2387 10.6439 21.7544 11.5213 21.8199C12.3988 21.9509 13.8386 22.2743 14.5925 21.4965C15.3463 20.7884 18.2898 15.8682 18.2898 15.8682Z" fill="white"/>
    <path d="M14.3412 13.9935L13.9662 9.20428L5.44287 9.78963C5.44287 9.78963 4.94032 9.85512 5.00414 10.8252C5.06795 12.1187 5.19159 13.5432 5.19159 13.5432C5.19159 13.5432 5.12778 14.1245 6.25652 14.19C7.38526 14.2514 14.2175 14.2514 14.3412 13.9935Z" fill="white"/>
</svg>
