<svg width="24" height="24" viewBox="0 0 24 24" fill="none" xmlns="http://www.w3.org/2000/svg">
<g clip-path="url(#clip0_4_13)">
<path fill-rule="evenodd" clip-rule="evenodd" d="M12 0C18.624 0 24 5.376 24 12C24 18.624 18.624 24 12 24C5.376 24 0 18.624 0 12C0 5.376 5.376 0 12 0Z" fill="#CF1011"/>
<path fill-rule="evenodd" clip-rule="evenodd" d="M12 9.1582C13.5648 9.1582 14.8416 10.4254 14.8416 11.9998C14.8416 13.5646 13.5744 14.8414 12 14.8414C10.4352 14.8414 9.15845 13.5742 9.15845 11.9998C9.15845 10.435 10.4256 9.1582 12 9.1582Z" fill="white"/>
<path fill-rule="evenodd" clip-rule="evenodd" d="M12.0672 4.56917C12.96 4.57877 13.8432 4.75157 14.6688 5.06837C15.4944 5.38517 16.2624 5.84597 16.9344 6.44117L16.9536 6.46037C18.48 7.82357 19.3152 9.66677 19.4208 11.558C19.536 13.4588 18.9216 15.398 17.568 16.934L17.5488 16.9532C16.1856 18.4796 14.3424 19.3148 12.4512 19.4204C10.5504 19.5356 8.61123 18.9212 7.07523 17.5676C5.53923 16.2044 4.69443 14.3516 4.58883 12.4508C4.47363 10.55 5.08803 8.61077 6.44163 7.07477L7.08483 7.64117C5.88483 8.99477 5.34723 10.7132 5.44323 12.3932C5.54883 14.0732 6.28803 15.7148 7.64163 16.9148C8.99523 18.1148 10.7136 18.6524 12.3936 18.5564C14.0736 18.4508 15.7152 17.7116 16.9152 16.358L16.9344 16.3388C18.1248 14.9852 18.6624 13.2764 18.5568 11.606C18.4512 9.92597 17.712 8.28437 16.3584 7.08437L16.3392 7.06517C15.7536 6.54677 15.0816 6.14357 14.3616 5.86517C13.632 5.58677 12.8544 5.43317 12.0672 5.42357L12.0768 4.55957L12.0672 4.56917Z" fill="white"/>
<path d="M7.77597 4.61719C8.29437 4.61719 8.75517 4.82839 9.09117 5.16439C9.42717 5.50039 9.63837 5.97079 9.63837 6.47959C9.63837 6.99799 9.42717 7.45879 9.09117 7.79479C8.75517 8.13079 8.28477 8.34199 7.77597 8.34199C7.25757 8.34199 6.79677 8.13079 6.46077 7.79479C6.12477 7.45879 5.91357 6.98839 5.91357 6.47959C5.91357 5.96119 6.12477 5.50039 6.46077 5.16439C6.79677 4.82839 7.26717 4.61719 7.77597 4.61719ZM8.48637 5.77879C8.30397 5.59639 8.05437 5.48119 7.77597 5.48119C7.49757 5.48119 7.24797 5.59639 7.06557 5.77879C6.88317 5.96119 6.76797 6.21079 6.76797 6.48919C6.76797 6.76759 6.88317 7.01719 7.06557 7.19959C7.24797 7.38199 7.49757 7.49719 7.77597 7.49719C8.05437 7.49719 8.30397 7.38199 8.48637 7.19959C8.66877 7.01719 8.78397 6.76759 8.78397 6.48919C8.78397 6.21079 8.66877 5.96119 8.48637 5.77879Z" fill="white"/>
</g>
<defs>
<clipPath id="clip0_4_13">
<rect width="24" height="24" fill="white"/>
</clipPath>
</defs>
</svg>
