<?xml version="1.0" encoding="UTF-8"?>
<svg width="24px" height="24px" viewBox="0 0 24 24" version="1.1" xmlns="http://www.w3.org/2000/svg" xmlns:xlink="http://www.w3.org/1999/xlink">
    <title>Singapore Dollar</title>
    <g id="🚙--Design---MVP" stroke="none" stroke-width="1" fill="none" fill-rule="evenodd">
        <g id="Assets-SVG" transform="translate(-126.000000, -174.000000)">
            <g id="Coin-Icon---Sig-Dollar" transform="translate(126.000000, 174.000000)">
                <path d="M12.0001058,0 C5.37265898,0 0,5.3725058 0,12 C0,18.6273884 5.37265898,24 12.0001058,24 C18.6275526,24 24,18.6273884 24,12 C24,5.3725058 18.6275526,0 12.0001058,0 Z" id="Path" fill="#1BB16B"></path>
                <path d="M7.78973568,16.619207 C7.10462213,16.619207 6.44700756,16.5282828 5.81687225,16.3464317 C5.18673694,16.1645806 4.66445141,15.9087241 4.25,15.5788546 L4.88436123,14.1578855 C5.75555502,14.7668753 6.72823251,15.0713656 7.80242291,15.0713656 C8.37757997,15.0713656 8.81951387,14.9804414 9.12823789,14.7985903 C9.4369619,14.6167392 9.59132159,14.3608827 9.59132159,14.0310132 C9.59132159,13.7434347 9.44964899,13.5171814 9.16629956,13.3522467 C8.88295013,13.187312 8.38603879,13.0287232 7.67555066,12.8764758 C6.88048061,12.7157701 6.24824023,12.5191201 5.77881057,12.2865198 C5.30938091,12.0539195 4.96682927,11.7705744 4.75114537,11.4364758 C4.53546148,11.1023772 4.42762115,10.6858175 4.42762115,10.1867841 C4.42762115,9.64545985 4.5777518,9.1591211 4.87801762,8.7277533 C5.17828344,8.29638551 5.59907218,7.96017742 6.14039648,7.71911894 C6.68172077,7.47806047 7.30761759,7.35753304 8.01810573,7.35753304 C8.66092832,7.35753304 9.27836708,7.45057176 9.87044053,7.63665198 C10.462514,7.82273221 10.9361656,8.07647416 11.2914097,8.39788546 L10.6570485,9.81885463 C9.8619784,9.2098648 8.98656866,8.90537445 8.03079295,8.90537445 C7.52330143,8.90537445 7.1173143,9.00687123 6.81281938,9.20986784 C6.50832447,9.41286445 6.3560793,9.68775157 6.3560793,10.0345374 C6.3560793,10.2375341 6.41317124,10.4066954 6.52735683,10.5420264 C6.64154242,10.6773575 6.8339634,10.7978849 7.10462555,10.9036123 C7.3752877,11.0093397 7.76012966,11.112951 8.259163,11.2144493 C9.41793531,11.4681951 10.2531692,11.7980596 10.7648899,12.2040529 C11.2766105,12.6100461 11.532467,13.1640494 11.532467,13.8660793 C11.532467,14.7118985 11.2026024,15.3822002 10.5428634,15.8770044 C9.88312445,16.3718086 8.96542438,16.619207 7.78973568,16.619207 Z M19.3985463,13.8787665 C19.3985463,14.5638801 19.1617204,15.1453721 18.6880617,15.6232599 C18.2144029,16.1011478 17.575819,16.4077526 16.7722907,16.5430837 L16.7722907,17.9767401 L15.2244493,17.9767401 L15.2244493,16.5938326 C14.0572188,16.4838761 13.1226026,16.1540116 12.4205727,15.6042291 L13.0676211,14.1832599 C13.7611929,14.6907514 14.5266478,14.9825547 15.3640088,15.0586784 L15.3640088,12.774978 C14.7888517,12.6227305 14.306742,12.4577982 13.9176652,12.2801762 C13.5285884,12.1025542 13.2008383,11.8424687 12.9344053,11.4999119 C12.6679722,11.1573551 12.5347577,10.7027341 12.5347577,10.1360352 C12.5347577,9.45092168 12.7821561,8.86097164 13.2769604,8.3661674 C13.7717646,7.87136316 14.4209211,7.55630024 15.2244493,7.42096916 L15.2244493,6 L16.7722907,6 L16.7722907,7.40828194 C17.2544077,7.47594747 17.7111432,7.59224587 18.142511,7.75718062 C18.5738788,7.92211536 18.9248885,8.12722344 19.1955507,8.37251101 L18.5485022,9.79348018 C17.9395124,9.35365419 17.3051575,9.07453804 16.6454185,8.95612335 L16.6454185,11.3159471 C17.2036592,11.4512782 17.6730818,11.6056379 18.0537004,11.7790308 C18.4343191,11.9524238 18.753611,12.2082802 19.0115859,12.5466079 C19.2695608,12.8849356 19.3985463,13.328984 19.3985463,13.8787665 Z M14.5139648,10.009163 C14.5139648,10.2375342 14.5879728,10.4257261 14.7359912,10.5737445 C14.8840096,10.7217629 15.0933467,10.8465193 15.3640088,10.9480176 L15.3640088,8.99418502 C15.0933467,9.07030875 14.8840096,9.19506521 14.7359912,9.36845815 C14.5879728,9.54185109 14.5139648,9.75541723 14.5139648,10.009163 Z M16.6454185,14.9571806 C17.1613682,14.8049332 17.4193392,14.4750686 17.4193392,13.9675771 C17.4193392,13.7730387 17.3537892,13.6102209 17.2226872,13.4791189 C17.0915852,13.348017 16.8991643,13.2317186 16.6454185,13.1302203 L16.6454185,14.9571806 Z" id="S$" fill="#FFFFFF" fill-rule="nonzero"></path>
            </g>
        </g>
    </g>
</svg>