<svg width="24" height="24" viewBox="0 0 24 24" fill="none" xmlns="http://www.w3.org/2000/svg">
    <title>Shiba Inu</title>
    <g clip-path="url(#clip0_1575_127)">
        <path d="M17.5726 2.11144C16.948 2.729 16.3758 3.39834 15.8672 4.11205L15.7063 4.06028C14.7788 3.76074 13.8176 3.57584 12.8489 3.51298C12.5572 3.49079 11.4688 3.49079 11.1135 3.51298C10.0401 3.58324 9.21733 3.74225 8.28231 4.06398C8.24491 4.07877 8.21125 4.08986 8.17759 4.10096C7.65024 3.39094 7.06305 2.7253 6.41602 2.11513C9.52027 0.543486 13.1519 0.354888 16.402 1.59372C16.7498 1.72315 17.0902 1.87476 17.423 2.03748L17.5726 2.11144Z" fill="#F00500"/>
        <path d="M23.3622 16.138C22.891 17.4655 22.1841 18.697 21.2678 19.7694C20.7704 20.3463 20.2206 20.8751 19.6296 21.3558C18.2458 22.4578 16.6301 23.2455 14.9059 23.6597C12.9985 24.1145 11.0088 24.1145 9.10136 23.6597C7.37345 23.2455 5.76149 22.4578 4.37766 21.3558C3.78673 20.8751 3.23694 20.3463 2.73951 19.7694C0.102766 16.689 -0.697608 12.4585 0.645075 8.64583C0.8994 7.93951 1.21731 7.25908 1.59879 6.61193C1.77457 6.31609 1.9915 5.98327 2.09622 5.84644C2.45527 7.37372 2.89659 8.71609 3.06116 9.20053C3.04994 9.22641 3.03498 9.256 3.02002 9.28188C2.14858 11.0273 1.67733 12.7099 1.56513 14.4998C1.56513 14.5219 1.56139 14.5478 1.56139 14.57C1.53147 15.1062 1.54643 15.3614 1.63619 15.6979C1.9167 16.7518 2.78065 17.913 4.13456 19.052C6.35242 20.9158 9.35943 22.2619 11.6371 22.4172C14.0121 22.5762 17.5165 21.2042 19.8503 19.1999C20.2168 18.8782 20.5609 18.538 20.8826 18.1756C21.1145 17.9093 21.4585 17.4508 21.4324 17.4508C21.4249 17.4508 21.4324 17.4434 21.4473 17.436C21.4585 17.4286 21.4698 17.4175 21.4623 17.4101C21.4585 17.4064 21.466 17.3953 21.4772 17.3916C21.4885 17.3879 21.4959 17.3805 21.4922 17.3731C21.4885 17.3657 21.4922 17.3583 21.5072 17.3546C21.5184 17.3509 21.5221 17.3398 21.5184 17.3324C21.5146 17.325 21.5184 17.3176 21.5259 17.3176C21.5333 17.3176 21.5408 17.3065 21.5408 17.2991C21.5408 17.2917 21.5483 17.2806 21.5558 17.2806C21.5633 17.2806 21.5707 17.2733 21.5707 17.2659C21.582 17.2363 21.6007 17.2067 21.6194 17.1808C21.6755 17.0957 21.8999 16.7001 21.9298 16.6335C22.143 16.1565 22.2776 15.7312 22.3412 15.3059C22.3711 15.1025 22.3898 14.729 22.3749 14.6403C22.3711 14.6255 22.3711 14.5996 22.3674 14.5589C22.3599 14.485 22.3562 14.374 22.3487 14.2631C22.3412 14.0967 22.3262 13.8637 22.315 13.7491C22.1542 12.0702 21.7203 10.6982 20.8975 9.2449C20.8639 9.18943 20.834 9.13396 20.8153 9.08959C20.8078 9.07849 20.804 9.0674 20.8003 9.06C20.9162 8.71609 21.3912 7.27757 21.769 5.63196L21.7764 5.63935L21.8325 5.71331C21.9298 5.84274 22.1879 6.22734 22.3038 6.41224C22.8311 7.26277 23.2425 8.17618 23.5343 9.13026C24.2112 11.4267 24.1551 13.8748 23.3622 16.138Z" fill="#F00500"/>
        <path d="M18.5074 11.7188C18.4962 11.778 18.3204 11.9555 18.1446 12.0849C17.6285 12.4584 16.7047 12.806 15.7659 12.9724C15.2311 13.0686 14.6963 13.0834 14.5354 13.0057C14.4307 12.9539 14.4158 12.9133 14.4532 12.7801C14.5317 12.5028 14.786 12.1996 15.1825 11.9148C15.3844 11.7706 16.2035 11.2788 16.585 11.0717C17.2133 10.7315 17.722 10.5281 18.0661 10.48C18.1745 10.4652 18.3054 10.4615 18.3466 10.48C18.4139 10.5059 18.4887 10.7019 18.5186 10.9385C18.5336 11.0643 18.5261 11.619 18.5074 11.7188Z" fill="black"/>
        <path d="M9.69579 12.9428C9.67335 12.9872 9.56115 13.0353 9.43399 13.0538C9.30683 13.0723 8.91786 13.0612 8.6972 13.0353C7.9043 12.9317 7.06279 12.6914 6.44942 12.3955C6.10533 12.2291 5.85849 12.0627 5.67522 11.8815L5.5705 11.7743L5.55928 11.6337C5.54058 11.3897 5.54432 11.0051 5.57424 10.8683C5.59294 10.7536 5.63408 10.6427 5.69018 10.5428C5.7201 10.5059 5.72011 10.5059 5.85475 10.5059C6.01931 10.5059 6.15769 10.5317 6.3821 10.602C6.84212 10.7425 7.52656 11.0827 8.36059 11.5783C9.04876 11.9851 9.30683 12.1848 9.50505 12.4584C9.63969 12.6285 9.72945 12.8689 9.69579 12.9428Z" fill="black"/>
        <path d="M14.9917 18.0905C14.9917 18.1016 14.9469 18.2791 14.8908 18.4898C14.8347 18.7006 14.7898 18.8707 14.7898 18.8781C14.7486 18.8818 14.7112 18.8855 14.6701 18.8818H14.5504L14.3859 19.2664C14.2961 19.4772 14.2138 19.6732 14.2026 19.7028L14.1802 19.7546L14.1016 19.6288L14.0231 19.5031V18.4788L13.9932 18.4861C13.9296 18.5009 13.477 18.5601 13.2788 18.5786C12.4597 18.66 11.6369 18.6415 10.8216 18.5268C10.6907 18.5083 10.5785 18.4935 10.5747 18.4972C10.571 18.5009 10.5747 18.7376 10.5822 19.0298L10.5934 19.5549L10.5299 19.651C10.4962 19.7028 10.4625 19.7472 10.4625 19.7509C10.4513 19.762 10.4139 19.7028 10.3279 19.5327C10.2344 19.3552 10.1671 19.1666 10.1184 18.9706L10.0923 18.8633L9.97632 18.8707L9.86038 18.8818L9.83046 18.745C9.81549 18.671 9.7968 18.5564 9.78932 18.4935L9.7781 18.3752L9.68085 18.2902C9.62475 18.2421 9.56865 18.194 9.55743 18.1866C9.53873 18.1718 9.53125 18.1459 9.53125 18.1237V18.0794L9.99876 18.0831L10.4663 18.0868L10.4812 18.1348L10.4962 18.1829L10.657 18.1903C10.7468 18.194 11.031 18.2014 11.2853 18.2088L11.7528 18.2199L11.8725 18.035L11.996 17.8501H12.153L12.1493 17.4655L12.1456 17.0809L11.9399 16.9922C11.2779 16.7037 10.8889 16.3746 10.743 15.9752C10.7131 15.8939 10.7131 15.8643 10.7056 15.4945C10.7019 15.1284 10.7019 15.0951 10.7281 15.0137C10.7804 14.8288 10.9263 14.6846 11.1133 14.6365C11.1769 14.618 11.3452 14.618 12.2278 14.618L13.2676 14.6217L13.3835 14.6772C13.5219 14.7438 13.5855 14.7918 13.664 14.8954C13.7538 15.0137 13.78 15.1062 13.78 15.3318C13.78 15.6535 13.7575 15.9308 13.7239 16.0418C13.6752 16.1934 13.6004 16.3376 13.5069 16.467C13.3199 16.7037 12.9796 16.9404 12.6692 17.0476L12.5794 17.0809L12.5831 17.4692L12.5869 17.8575L12.6692 17.8649L12.7515 17.8723L12.8637 18.0387L12.9721 18.2051H13.4733C13.75 18.2051 13.9931 18.2088 14.0156 18.2125C14.053 18.2199 14.0605 18.2162 14.0979 18.1533L14.1428 18.0868H14.5729C14.8945 18.072 14.9917 18.0794 14.9917 18.0905Z" fill="black"/>
        <path d="M13.017 19.1518C12.946 19.1925 12.8974 19.211 12.8861 19.2036C12.8749 19.1999 12.8225 19.1555 12.7664 19.1148L12.6655 19.0335L12.5607 19.1444C12.3326 19.3885 12.3251 19.3996 12.2578 19.4033C12.1531 19.4144 12.1306 19.3959 12.0035 19.2073C11.9362 19.1111 11.8838 19.0298 11.8838 19.0298C11.8838 19.0298 11.8352 19.0224 11.7791 19.0187L11.6744 19.0076L11.6257 19.1074L11.5771 19.2073L11.4911 19.1814C11.4238 19.1592 11.3564 19.1333 11.2929 19.1037L11.1807 19.0482V18.8375L12.1755 18.8412L13.1704 18.8449L13.1741 18.9447C13.1779 19.063 13.1816 19.0593 13.017 19.1518Z" fill="black"/>
        <path d="M22.3674 14.6402C22.3636 14.6254 22.3636 14.5996 22.3599 14.5589C21.4623 14.4627 18.9003 14.4036 16.5216 16.345C16.5216 16.345 15.7549 12.8689 12.1645 12.8689C8.57399 12.8689 7.24253 16.345 7.24253 16.345C5.23037 14.2039 2.53753 14.3592 1.56511 14.4997C1.56511 14.5219 1.56137 14.5478 1.56137 14.57C1.53145 15.1062 1.54641 15.3613 1.63617 15.6979C1.91667 16.7518 2.78063 17.913 4.13453 19.0519C6.35239 20.9157 9.3594 22.2618 11.6371 22.4171C14.012 22.5761 17.5165 21.2042 19.8503 19.1999C20.2168 18.8781 20.5609 18.5379 20.8825 18.1755C21.1144 17.9093 21.4585 17.4507 21.4323 17.4507C21.4249 17.4507 21.4323 17.4433 21.4473 17.4359C21.4585 17.4285 21.4697 17.4174 21.4623 17.41C21.4585 17.4063 21.466 17.3952 21.4772 17.3915C21.4884 17.3878 21.4959 17.3805 21.4922 17.3731C21.4884 17.3657 21.4922 17.3583 21.5071 17.3546C21.5184 17.3509 21.5221 17.3398 21.5184 17.3324C21.5146 17.325 21.5184 17.3176 21.5258 17.3176C21.5333 17.3176 21.5408 17.3065 21.5408 17.2991C21.5408 17.2917 21.5483 17.2806 21.5558 17.2806C21.5632 17.2806 21.5707 17.2732 21.5707 17.2658C21.5819 17.2362 21.6006 17.2066 21.6193 17.1808C21.6754 17.0957 21.8998 16.7 21.9298 16.6335C22.1429 16.1564 22.2776 15.7311 22.3412 15.3059C22.3636 15.1025 22.3823 14.729 22.3674 14.6402ZM13.0172 19.1518C12.9461 19.1925 12.8975 19.211 12.8863 19.2036C12.8751 19.1999 12.8227 19.1555 12.7666 19.1148L12.6656 19.0335L12.5609 19.1444C12.3328 19.3885 12.3253 19.3996 12.258 19.4033C12.1532 19.4144 12.1308 19.3959 12.0036 19.2073C11.9363 19.1111 11.8839 19.0298 11.8839 19.0298C11.8839 19.0298 11.8353 19.0224 11.7792 19.0187L11.6745 19.0076L11.6259 19.1074L11.5773 19.2073L11.4912 19.1814C11.4239 19.1592 11.3566 19.1333 11.293 19.1037L11.1808 19.0482V18.8375L12.1757 18.8412L13.1705 18.8449L13.1743 18.9447C13.178 19.063 13.1818 19.0593 13.0172 19.1518ZM14.8872 18.4862C14.8311 18.6969 14.7862 18.867 14.7862 18.8744C14.7451 18.8781 14.7077 18.8818 14.6666 18.8781H14.5469L14.3861 19.2664C14.2963 19.4772 14.214 19.6732 14.2028 19.7028L14.1803 19.7546L14.1018 19.6288L14.0233 19.5031V18.4788L13.9933 18.4862C13.9298 18.5009 13.4772 18.5601 13.279 18.5786C12.4599 18.66 11.6371 18.6415 10.8218 18.5268C10.6909 18.5083 10.5787 18.4936 10.5749 18.4972C10.5712 18.5009 10.5749 18.7376 10.5824 19.0298L10.5936 19.5549L10.53 19.651C10.4964 19.7028 10.4627 19.7472 10.4627 19.7509C10.4515 19.762 10.4141 19.7028 10.3281 19.5327C10.2346 19.3552 10.1673 19.1666 10.1186 18.9706L10.0925 18.8633L9.97651 18.8707L9.86057 18.8818L9.83065 18.745C9.81569 18.6711 9.79699 18.5564 9.78951 18.4935L9.77829 18.3752L9.68105 18.2902C9.62495 18.2421 9.56885 18.194 9.55763 18.1866C9.53893 18.1718 9.53145 18.1459 9.53145 18.1237V18.0794L9.99895 18.0831L10.4665 18.0868L10.4814 18.1348L10.4964 18.1829L10.6572 18.1903C10.747 18.194 11.0312 18.2014 11.2855 18.2088L11.753 18.2199L11.8727 18.035L11.9962 17.8501H12.1532L12.1495 17.4655L12.1458 17.0809L11.94 16.9922C11.2781 16.7037 10.8891 16.3746 10.7432 15.9752C10.7133 15.8939 10.7133 15.8643 10.7058 15.4945C10.7021 15.1284 10.7021 15.0951 10.7283 15.0137C10.7806 14.8288 10.9265 14.6846 11.1135 14.6365C11.1771 14.618 11.3454 14.618 12.228 14.618L13.2678 14.6217L13.3837 14.6772C13.5221 14.7438 13.5857 14.7919 13.6642 14.8954C13.754 15.0137 13.7802 15.1062 13.7802 15.3318C13.7802 15.6535 13.7577 15.9308 13.7241 16.0418C13.6754 16.1934 13.6006 16.3376 13.5071 16.467C13.3201 16.7037 12.9798 16.9404 12.6694 17.0476L12.5796 17.0809L12.5833 17.4692L12.5871 17.8575L12.6694 17.8649L12.7516 17.8723L12.8638 18.0387L12.9723 18.2051H13.4735C13.7502 18.2051 13.9933 18.2088 14.0158 18.2125C14.0532 18.2199 14.0607 18.2162 14.0981 18.1533L14.1429 18.0868H14.5731C14.9059 18.0868 15.0032 18.0905 15.0032 18.1016C14.9919 18.0979 14.9433 18.2791 14.8872 18.4862Z" fill="white"/>
        <path d="M22.3374 14.263C22.3299 14.0966 22.315 13.8636 22.3038 13.749C22.1429 12.0701 21.7091 10.6982 20.8863 9.24485C20.8526 9.18938 20.8227 9.13391 20.804 9.08953C20.7965 9.07844 20.7928 9.06735 20.789 9.05995C20.905 8.71604 21.38 7.27752 21.7577 5.63191C22.2701 3.39832 22.5955 0.787531 21.6006 0.00355607C21.6006 0.00355607 19.8802 -0.122176 17.5763 2.11141C16.9517 2.72898 16.3795 3.39832 15.8708 4.11203L15.71 4.06026C14.7825 3.76072 13.8213 3.57582 12.8526 3.51295C12.5609 3.49077 11.4725 3.49077 11.1172 3.51295C10.0438 3.58322 9.22101 3.74223 8.286 4.06396C8.24859 4.07875 8.21493 4.08984 8.18127 4.10094C7.65392 3.39092 7.06673 2.72528 6.4197 2.11511C4.02232 -0.129572 2.23831 -0.000142155 2.23831 -0.000142155C1.18361 0.809719 1.54266 3.53884 2.08871 5.84639C2.44775 7.37366 2.88908 8.71604 3.05364 9.20047C3.04242 9.22636 3.02746 9.25594 3.0125 9.28183C2.14107 11.0273 1.66982 12.7099 1.55762 14.4997C2.53377 14.3592 5.22288 14.2002 7.23878 16.345C7.23878 16.345 8.57024 12.8689 12.1607 12.8689C15.7512 12.8689 16.5179 16.345 16.5179 16.345C18.8966 14.4036 21.4585 14.4664 22.3561 14.5589C22.3524 14.4849 22.3449 14.374 22.3374 14.263ZM3.76052 7.80633C3.76052 7.80633 2.36173 4.3487 2.72078 2.37397C2.78062 2.04115 2.89282 1.74901 3.0686 1.52713C3.0686 1.52713 4.65439 1.68245 7.21259 4.49292C7.21259 4.49292 6.72639 4.7259 6.07562 5.22143C6.07562 5.22143 6.07188 5.22513 6.06813 5.22513C5.36126 5.76134 4.45617 6.61188 3.76052 7.80633ZM9.696 12.9428C9.67356 12.9872 9.56136 13.0353 9.43419 13.0538C9.30703 13.0723 8.91807 13.0612 8.6974 13.0353C7.90451 12.9318 7.06299 12.6914 6.44962 12.3955C6.10554 12.2291 5.85869 12.0627 5.67543 11.8815L5.57071 11.7743L5.55949 11.6338C5.54079 11.3897 5.54453 11.0051 5.57445 10.8683C5.59315 10.7536 5.63429 10.6427 5.69039 10.5428C5.72031 10.5059 5.72031 10.5059 5.85495 10.5059C6.01952 10.5059 6.1579 10.5318 6.3823 10.602C6.84233 10.7425 7.52676 11.0828 8.3608 11.5783C9.04897 11.9851 9.30703 12.1848 9.50526 12.4584C9.6399 12.6285 9.72966 12.8689 9.696 12.9428ZM18.5076 11.7188C18.4964 11.778 18.3206 11.9555 18.1448 12.0849C17.6287 12.4584 16.7049 12.806 15.7661 12.9724C15.2313 13.0686 14.6965 13.0834 14.5356 13.0057C14.4309 12.9539 14.416 12.9133 14.4534 12.7801C14.5319 12.5028 14.7862 12.1995 15.1827 11.9148C15.3846 11.7706 16.2037 11.2787 16.5852 11.0717C17.2135 10.7314 17.7222 10.5281 18.0663 10.48C18.1747 10.4652 18.3056 10.4615 18.3468 10.48C18.4141 10.5059 18.4889 10.7019 18.5188 10.9385C18.5338 11.0643 18.5263 11.619 18.5076 11.7188ZM17.8867 5.22143L17.8793 5.21773C17.2509 4.7222 16.7797 4.48923 16.7797 4.48923C19.2519 1.67875 20.7816 1.52343 20.7816 1.52343C20.9499 1.74901 21.0583 2.03745 21.1182 2.37027C21.466 4.345 20.1158 7.80633 20.1158 7.80633C19.5511 6.81157 18.7918 5.93145 17.8867 5.22143Z" fill="#FFA409"/>
        <path d="M21.122 2.37028C20.8303 2.3333 19.4502 2.3259 17.8868 5.22143L17.8794 5.21774C17.251 4.7222 16.7798 4.48923 16.7798 4.48923C19.252 1.67875 20.7817 1.52344 20.7817 1.52344C20.9537 1.74902 21.0622 2.03746 21.122 2.37028Z" fill="#FF9300"/>
        <path d="M20.1195 7.80632C19.5511 6.80786 18.7956 5.93143 17.8867 5.22142C19.4501 2.32589 20.8264 2.33328 21.1219 2.37026C21.4697 4.34869 20.1195 7.80632 20.1195 7.80632Z" fill="#FF8300"/>
        <path d="M21.1782 2.38152C21.1595 2.37778 21.1408 2.37404 21.1221 2.3703L21.1782 2.38152Z" fill="#FF8300"/>
        <path d="M7.21284 4.48923C7.21284 4.48923 6.72664 4.7222 6.07587 5.21774C6.07587 5.21774 6.07212 5.22143 6.06838 5.22143C4.44893 2.3222 3.02397 2.3333 2.71729 2.37028C2.77713 2.03746 2.88933 1.74532 3.06511 1.52344C3.06885 1.52344 4.65464 1.67875 7.21284 4.48923Z" fill="#FF9300"/>
        <path d="M6.07214 5.22142C5.36153 5.76132 4.45644 6.60817 3.76079 7.80632C3.76079 7.80632 2.362 4.34869 2.72105 2.37026C3.02399 2.33328 4.4527 2.32589 6.07214 5.22142Z" fill="#FF8300"/>
        <path d="M2.72097 2.3703C2.70227 2.37404 2.67983 2.37778 2.66113 2.38152L2.72097 2.3703Z" fill="#FF8300"/>
        <path d="M16.3346 9.7256C16.3346 9.7256 15.1378 9.79956 15.2874 8.87506C15.437 7.95056 16.372 7.83962 16.6338 7.8766C16.8956 7.91358 17.9428 8.28338 17.7558 9.05996C17.5688 9.83654 17.307 9.68862 17.1574 9.7256C17.0078 9.76258 16.3346 9.7256 16.3346 9.7256Z" fill="white"/>
        <path d="M7.50791 9.7256C7.50791 9.7256 6.31109 9.79956 6.4607 8.87506C6.6103 7.95056 7.54531 7.83962 7.80712 7.8766C8.06892 7.91358 9.11614 8.28338 8.92914 9.05996C8.74214 9.83654 8.48033 9.68862 8.33073 9.7256C8.18113 9.76258 7.50791 9.7256 7.50791 9.7256Z" fill="white"/>
    </g>
    <defs>
        <clipPath id="clip0_1575_127">
            <rect width="24" height="24" fill="white"/>
        </clipPath>
    </defs>
</svg>
