<svg width="24" height="24" viewBox="0 0 24 24" fill="none" xmlns="http://www.w3.org/2000/svg">
<g clip-path="url(#clip0_4_21)">
<path d="M12 24C18.6274 24 24 18.6274 24 12C24 5.37258 18.6274 0 12 0C5.37258 0 0 5.37258 0 12C0 18.6274 5.37258 24 12 24Z" fill="white"/>
<path d="M2.69997 15.0235C2.38317 14.0467 2.21997 13.0267 2.21997 11.9995L2.29197 11.9443L11.724 11.9635L12 11.9995L2.69997 15.0235Z" fill="url(#paint0_radial_4_21)"/>
<path d="M15.0215 21.3C13.5527 21.7776 11.9951 21.9 10.4687 21.6576L10.3967 21.5472L11.9663 12.1248L11.9975 12L15.0191 21.3H15.0215Z" fill="url(#paint1_radial_4_21)"/>
<path d="M21.78 12C21.78 13.0272 21.6192 14.0448 21.3024 15.0216H21.0912L12.0528 12.036L12.0024 12H21.7824L21.78 12Z" fill="url(#paint2_radial_4_21)"/>
<path d="M4.0896 6.25185C4.3896 5.83665 4.7232 5.44785 5.0856 5.08545L5.1672 5.10945L11.9544 11.923L12 11.9998L4.0896 6.25185Z" fill="url(#paint3_radial_4_21)"/>
<path d="M5.08545 5.08549C6.54465 3.62629 8.43105 2.66389 10.471 2.34229L10.5142 2.41429L11.9998 11.8439V11.9999L5.08545 5.08549Z" fill="url(#paint4_radial_4_21)"/>
<path d="M10.4688 2.34235C11.9928 2.09995 13.5528 2.22235 15.0216 2.69995L12 11.9999L10.4688 2.34235Z" fill="url(#paint5_radial_4_21)"/>
<path d="M2.21997 12.0001C2.21997 10.9729 2.38077 9.95532 2.69757 8.97852L11.9976 12.0001H2.21997Z" fill="url(#paint6_radial_4_21)"/>
<path d="M17.748 4.08936C19.4184 5.30376 20.6616 7.01496 21.3 8.97816L12 11.9998L17.748 4.08936Z" fill="url(#paint7_radial_4_21)"/>
<path d="M6.252 19.9104C5.4216 19.308 4.692 18.576 4.0896 17.748L12 12L6.252 19.9104Z" fill="url(#paint8_radial_4_21)"/>
<path d="M10.4711 21.6576C9.96467 21.5784 9.46547 21.4584 8.97827 21.3L11.9999 12L10.4711 21.6576Z" fill="url(#paint9_radial_4_21)"/>
<path d="M21.3 15.0216C20.6616 16.9848 19.4184 18.6984 17.748 19.9104L12 12L21.3 15.0216Z" fill="url(#paint10_radial_4_21)"/>
</g>
<defs>
<radialGradient id="paint0_radial_4_21" cx="0" cy="0" r="1" gradientUnits="userSpaceOnUse" gradientTransform="translate(12.2013 12.135) rotate(-180) scale(13.1294 13.1294)">
<stop stop-color="#6D28FF"/>
<stop offset="1" stop-color="#F7A7F9"/>
</radialGradient>
<radialGradient id="paint1_radial_4_21" cx="0" cy="0" r="1" gradientUnits="userSpaceOnUse" gradientTransform="translate(12.0702 12.3833) rotate(90) scale(10.0898 10.0898)">
<stop stop-color="#FFCD6B"/>
<stop offset="1" stop-color="#EB5EDF"/>
</radialGradient>
<radialGradient id="paint2_radial_4_21" cx="0" cy="0" r="1" gradientUnits="userSpaceOnUse" gradientTransform="translate(12 12) scale(10.0056)">
<stop stop-color="#A273FF"/>
<stop offset="0.5" stop-color="#9FAEFF"/>
<stop offset="1" stop-color="#AAF2E1"/>
</radialGradient>
<radialGradient id="paint3_radial_4_21" cx="0" cy="0" r="1" gradientUnits="userSpaceOnUse" gradientTransform="translate(12 11.9975) scale(10.7136)">
<stop stop-color="#FFD2B9"/>
<stop offset="0.3" stop-color="#C99BED"/>
<stop offset="1" stop-color="#0075FF"/>
</radialGradient>
<radialGradient id="paint4_radial_4_21" cx="0" cy="0" r="1" gradientUnits="userSpaceOnUse" gradientTransform="translate(12.0306 12.3719) rotate(-99) scale(10.0939)">
<stop stop-color="#F7A7F9"/>
<stop offset="1" stop-color="#00DDFB"/>
</radialGradient>
<radialGradient id="paint5_radial_4_21" cx="0" cy="0" r="1" gradientUnits="userSpaceOnUse" gradientTransform="translate(11.7308 12.0386) rotate(-90) scale(10.0817)">
<stop stop-color="#A273FF"/>
<stop offset="0.5" stop-color="#9FAEFF"/>
<stop offset="1" stop-color="#AAF2E1"/>
</radialGradient>
<radialGradient id="paint6_radial_4_21" cx="0" cy="0" r="1" gradientUnits="userSpaceOnUse" gradientTransform="translate(11.9927 11.9926) rotate(180) scale(10.1021)">
<stop stop-color="#FFF3D0"/>
<stop offset="1" stop-color="#FFC044"/>
</radialGradient>
<radialGradient id="paint7_radial_4_21" cx="0" cy="0" r="1" gradientUnits="userSpaceOnUse" gradientTransform="translate(12.0702 12.3831) rotate(90) scale(10.0898)">
<stop stop-color="#FFCD6B"/>
<stop offset="1" stop-color="#EB5EDF"/>
</radialGradient>
<radialGradient id="paint8_radial_4_21" cx="0" cy="0" r="1" gradientUnits="userSpaceOnUse" gradientTransform="translate(11.9208 11.754) rotate(114.2) scale(10.8038 10.8038)">
<stop stop-color="#FFD2B9"/>
<stop offset="0.3" stop-color="#C99BED"/>
<stop offset="1" stop-color="#0075FF"/>
</radialGradient>
<radialGradient id="paint9_radial_4_21" cx="0" cy="0" r="1" gradientUnits="userSpaceOnUse" gradientTransform="translate(12.5321 12.0671) rotate(90) scale(10.1143)">
<stop stop-color="#D4FAFF"/>
<stop offset="1" stop-color="#00DDFB"/>
</radialGradient>
<radialGradient id="paint10_radial_4_21" cx="0" cy="0" r="1" gradientUnits="userSpaceOnUse" gradientTransform="translate(12.0024 12.0012) rotate(36) scale(10.0535)">
<stop stop-color="#0075FF"/>
<stop offset="1" stop-color="#00DDFB"/>
</radialGradient>
<clipPath id="clip0_4_21">
<rect width="24" height="24" fill="white"/>
</clipPath>
</defs>
</svg>
