<svg width="24" height="24" viewBox="0 0 24 24" fill="none" xmlns="http://www.w3.org/2000/svg">
    <title>Uniswap Icon</title>
    <path d="M24 12C24 5.37258 18.6274 0 12 0C5.37258 0 0 5.37258 0 12C0 18.6274 5.37258 24 12 24C18.6274 24 24 18.6274 24 12Z" fill="#FF007A"/>
    <path d="M5 3V5.5L2.23943 0.438948C2.13154 0.241157 2.2747 0 2.5 0L5 3Z" fill="#FF007A"/>
    <path d="M8.23338 2.45848C7.97142 2.42134 7.95895 2.40897 8.08369 2.39659C8.3207 2.35946 8.86956 2.40897 9.25625 2.49561C10.1544 2.70603 10.9652 3.25064 11.8259 4.20371L12.0505 4.46363L12.3748 4.41412C13.7594 4.19133 15.1814 4.36461 16.3665 4.90922C16.6908 5.05775 17.2023 5.35481 17.2646 5.42908C17.2896 5.45383 17.327 5.61474 17.3519 5.77565C17.4393 6.35739 17.4018 6.79061 17.2147 7.1248C17.1149 7.31046 17.1149 7.35997 17.1773 7.52088C17.2272 7.64465 17.3769 7.7313 17.5141 7.7313C17.8135 7.7313 18.1253 7.26095 18.275 6.60494L18.3374 6.34502L18.4497 6.46879C19.0858 7.17431 19.5848 8.15213 19.6597 8.84527L19.6846 9.03094L19.5723 8.87003C19.3852 8.58535 19.2106 8.39968 18.9736 8.23878C18.5495 7.95409 18.1004 7.86745 16.9153 7.80556C15.8426 7.74368 15.2313 7.65703 14.6326 7.45899C13.6097 7.1248 13.0858 6.69159 11.8758 5.09489C11.3394 4.38937 11.0026 4.00567 10.6658 3.68385C9.92986 2.97833 9.19388 2.60701 8.23338 2.45848Z" fill="white"/>
    <path d="M17.5266 4.03042C17.5515 3.56008 17.6139 3.25064 17.7511 2.96596C17.801 2.85456 17.8509 2.75554 17.8634 2.75554C17.8759 2.75554 17.8509 2.84218 17.8135 2.9412C17.7137 3.21351 17.7012 3.59721 17.7636 4.03042C17.8509 4.58741 17.8883 4.66167 18.4871 5.26817C18.7615 5.55285 19.0858 5.9118 19.2106 6.06033L19.4226 6.33264L19.2106 6.1346C18.9486 5.88705 18.3499 5.4167 18.2127 5.35481C18.1253 5.3053 18.1129 5.3053 18.0505 5.36719C18.0006 5.4167 17.9881 5.49097 17.9881 5.84992C17.9756 6.4069 17.9008 6.75347 17.7137 7.11242C17.6139 7.29808 17.6014 7.26095 17.6887 7.05053C17.7511 6.88963 17.7636 6.81536 17.7636 6.28313C17.7636 5.20628 17.6388 4.94636 16.8779 4.51314C16.6908 4.40175 16.3665 4.24084 16.1794 4.1542C15.9798 4.06755 15.8301 3.99329 15.8426 3.99329C15.8675 3.96854 16.6035 4.17895 16.8904 4.30273C17.327 4.47601 17.4018 4.48839 17.4517 4.47601C17.4892 4.43888 17.5141 4.33986 17.5266 4.03042Z" fill="white"/>
    <path d="M8.74482 5.87467C8.2209 5.15677 7.8841 4.0428 7.95895 3.21351L7.9839 2.95358L8.10864 2.97833C8.33317 3.01547 8.71987 3.164 8.90698 3.2754C9.40594 3.57246 9.63048 3.98091 9.84254 4.99587C9.90491 5.29293 9.99223 5.6395 10.0296 5.75089C10.092 5.93656 10.329 6.36977 10.5286 6.64208C10.6658 6.84012 10.5785 6.93914 10.2667 6.91438C9.79264 6.86487 9.15646 6.43166 8.74482 5.87467Z" fill="white"/>
    <path d="M16.8904 11.2589C14.4205 10.2687 13.5473 9.41464 13.5473 7.96647C13.5473 7.75605 13.5598 7.58277 13.5598 7.58277C13.5723 7.58277 13.6596 7.65703 13.7719 7.74368C14.2708 8.13976 14.8322 8.31304 16.3914 8.53584C17.302 8.67199 17.826 8.77101 18.3 8.93192C19.8093 9.42702 20.7449 10.442 20.9694 11.8159C21.0318 12.212 20.9944 12.967 20.8946 13.3631C20.8073 13.6725 20.5578 14.2419 20.4954 14.2543C20.4829 14.2543 20.458 14.1924 20.458 14.0933C20.433 13.5735 20.1711 13.0784 19.7345 12.6947C19.2106 12.2491 18.537 11.9149 16.8904 11.2589Z" fill="white"/>
    <path d="M15.144 11.6673C15.1191 11.4817 15.0567 11.2465 15.0193 11.1475L14.9569 10.9618L15.0692 11.098C15.2313 11.2836 15.3561 11.5064 15.4684 11.8159C15.5557 12.0511 15.5557 12.1253 15.5557 12.509C15.5557 12.8803 15.5432 12.967 15.4684 13.1774C15.3436 13.5116 15.1939 13.7468 14.9444 14.0067C14.4954 14.4647 13.9091 14.7122 13.0733 14.8236C12.9236 14.836 12.4995 14.8731 12.1253 14.8979C11.1897 14.9474 10.566 15.0464 10.0047 15.2445C9.92985 15.2692 9.85501 15.294 9.84254 15.2816C9.81759 15.2568 10.2043 15.034 10.5161 14.8855C10.9527 14.6751 11.4018 14.5637 12.3873 14.3904C12.8737 14.3161 13.3727 14.2171 13.4974 14.1676C14.7324 13.7839 15.3436 12.8308 15.144 11.6673Z" fill="white"/>
    <path d="M16.2792 13.6601C15.9548 12.9546 15.88 12.2862 16.0546 11.655C16.0796 11.5931 16.1045 11.5312 16.1295 11.5312C16.1544 11.5312 16.2293 11.5683 16.3041 11.6178C16.4538 11.7169 16.7657 11.8901 17.564 12.3234C18.5744 12.868 19.1482 13.2888 19.5474 13.7715C19.8967 14.1924 20.1087 14.6751 20.2085 15.2692C20.2709 15.6034 20.2335 16.4079 20.1461 16.7421C19.8717 17.7942 19.248 18.6359 18.3374 19.1186C18.2002 19.1929 18.0879 19.2424 18.0754 19.2424C18.063 19.2424 18.1129 19.1186 18.1877 18.9701C18.4871 18.3388 18.5245 17.7323 18.3 17.0516C18.1628 16.6307 17.8759 16.1233 17.302 15.2692C16.616 14.279 16.4538 14.0191 16.2792 13.6601Z" fill="white"/>
    <path d="M6.98597 17.4477C7.90905 16.6802 9.04419 16.1356 10.092 15.9623C10.5411 15.8881 11.2895 15.9128 11.7012 16.0242C12.3623 16.1975 12.9611 16.5688 13.2729 17.0268C13.5723 17.4724 13.7095 17.8561 13.8467 18.7102C13.8966 19.0443 13.959 19.3909 13.9715 19.4652C14.0713 19.9108 14.2708 20.2573 14.5203 20.443C14.907 20.7277 15.5806 20.7401 16.2417 20.4925C16.354 20.4554 16.4538 20.4183 16.4538 20.4306C16.4788 20.4554 16.142 20.6782 15.9174 20.7896C15.6056 20.9505 15.3561 21 15.0193 21C14.4205 21 13.9091 20.6906 13.4974 20.0717C13.4101 19.9479 13.2355 19.589 13.0858 19.2548C12.6492 18.2522 12.4247 17.9551 11.9132 17.6209C11.4642 17.3363 10.8904 17.2744 10.4538 17.4848C9.87996 17.7571 9.73027 18.4874 10.1294 18.933C10.2916 19.1186 10.591 19.2671 10.8405 19.3043C11.302 19.3662 11.7012 19.0072 11.7012 18.5492C11.7012 18.2522 11.5889 18.0789 11.2895 17.9428C10.8904 17.7695 10.4538 17.9675 10.4662 18.3512C10.4662 18.5121 10.5411 18.6111 10.7032 18.6854C10.803 18.7349 10.803 18.7349 10.7282 18.7225C10.3664 18.6483 10.2791 18.2027 10.566 17.918C10.9153 17.5714 11.6513 17.72 11.9008 18.2027C12.0006 18.4007 12.013 18.7968 11.9257 19.0443C11.7136 19.589 11.1149 19.8736 10.5037 19.7127C10.092 19.6013 9.91738 19.4899 9.41842 18.9825C8.54523 18.0913 8.20843 17.918 6.96102 17.7323L6.72401 17.6952L6.98597 17.4477Z" fill="white"/>
    <path fill-rule="evenodd" clip-rule="evenodd" d="M2.5 0C2.5 0 7.80926 6.48117 8.03379 6.77823C8.2209 7.02578 8.14606 7.26095 7.83421 7.43424C7.65957 7.53326 7.29782 7.63228 7.12318 7.63228C6.9236 7.63228 6.68659 7.53326 6.52443 7.37235C6.41216 7.26095 5.92567 6.55543 4.82795 4.85971C3.99218 3.56008 3.28116 2.48323 3.26869 2.47085C3.21879 2.4461 3.21879 2.4461 4.74063 5.1444C5.70114 6.84012 6.01299 7.44661 6.01299 7.52088C6.01299 7.68179 5.96309 7.76843 5.76351 7.99123C5.42671 8.36255 5.27702 8.78339 5.16475 9.66219C5.04001 10.64 4.70321 11.3332 3.7427 12.509C3.18137 13.2022 3.09405 13.3259 2.95683 13.6106C2.7822 13.9572 2.7323 14.1552 2.70735 14.6008C2.6824 15.0712 2.7323 15.3682 2.86952 15.8138C2.99426 16.2099 3.13147 16.4698 3.46827 16.9773C3.75518 17.4229 3.92981 17.7571 3.92981 17.8809C3.92981 17.9799 3.95476 17.9799 4.40383 17.8809C5.4766 17.6333 6.36226 17.2125 6.84875 16.6926C7.14813 16.3708 7.22298 16.1975 7.22298 15.7519C7.22298 15.4672 7.2105 15.4054 7.13566 15.2321C7.01092 14.9598 6.77391 14.737 6.26247 14.3904C5.58887 13.9324 5.30196 13.5611 5.22712 13.066C5.16475 12.6452 5.23959 12.3605 5.61382 11.5807C6.00051 10.7762 6.10031 10.442 6.16268 9.62506C6.2001 9.1052 6.26247 8.89478 6.41216 8.73388C6.57432 8.56059 6.71154 8.4987 7.09824 8.44919C7.73441 8.36255 8.14606 8.20164 8.47039 7.89221C8.75729 7.63228 8.88203 7.37235 8.89451 6.98865L8.90698 6.70396L8.74482 6.53068C8.15853 5.86229 3 0 3 0H2.5ZM4.25414 15.1331C4.39136 14.8979 4.31651 14.6008 4.09198 14.4523C3.87992 14.3161 3.55559 14.378 3.55559 14.5637C3.55559 14.6132 3.58054 14.6627 3.65538 14.6875C3.76765 14.7494 3.78013 14.8112 3.69281 14.9474C3.60549 15.0835 3.60549 15.2073 3.71775 15.294C3.89239 15.4301 4.1294 15.3559 4.25414 15.1331Z" fill="white"/>
    <path fill-rule="evenodd" clip-rule="evenodd" d="M9.30615 8.62248C9.00677 8.70912 8.71987 9.03094 8.63255 9.35275C8.58265 9.55079 8.6076 9.90974 8.69492 10.0211C8.83213 10.1944 8.95687 10.2439 9.30615 10.2439C9.99222 10.2439 10.5785 9.94687 10.6409 9.58792C10.7032 9.29086 10.4413 8.88241 10.0795 8.69674C9.89243 8.59772 9.50573 8.56059 9.30615 8.62248ZM10.1045 9.24135C10.2043 9.09282 10.1669 8.93192 9.97975 8.82052C9.64295 8.6101 9.13151 8.78339 9.13151 9.1052C9.13151 9.26611 9.39347 9.43939 9.64295 9.43939C9.80511 9.43939 10.0296 9.34037 10.1045 9.24135Z" fill="white"/>
</svg>
