<?xml version="1.0" encoding="UTF-8"?>
<svg width="24px" height="24px" viewBox="0 0 24 24" version="1.1" xmlns="http://www.w3.org/2000/svg" xmlns:xlink="http://www.w3.org/1999/xlink">
    <title>US Dollar Icon</title>
    <g id="🚙--Design---MVP" stroke="none" stroke-width="1" fill="none" fill-rule="evenodd">
        <g id="Assets-SVG" transform="translate(-31.000000, -174.000000)">
            <g id="Coin-Icon---USD" transform="translate(31.000000, 174.000000)">
                <path d="M12.0001058,0 C5.37265898,0 0,5.3725058 0,12 C0,18.6273884 5.37265898,24 12.0001058,24 C18.6275526,24 24,18.6273884 24,12 C24,5.3725058 18.6275526,0 12.0001058,0 Z" id="Path" fill="#005222"></path>
                <path d="M16.472467,14.3484581 C16.472467,15.2048501 16.1764347,15.9317151 15.5843612,16.5290749 C14.9922878,17.1264347 14.1940579,17.5096908 13.1896476,17.6788546 L13.1896476,19.4709251 L11.2548458,19.4709251 L11.2548458,17.7422907 C9.79580768,17.6048451 8.62753743,17.1925144 7.75,16.5052863 L8.55881057,14.7290749 C9.42577526,15.3634393 10.3825939,15.7281934 11.4292952,15.823348 L11.4292952,12.9687225 C10.7103488,12.7784131 10.1077117,12.5722478 9.62136564,12.3502203 C9.13501959,12.1281927 8.72533206,11.8030858 8.39229075,11.3748899 C8.05924944,10.9466939 7.89273128,10.3784176 7.89273128,9.67004405 C7.89273128,8.81365211 8.20197929,8.07621455 8.82048458,7.45770925 C9.43898988,6.83920396 10.2504355,6.4453753 11.2548458,6.27621145 L11.2548458,4.5 L13.1896476,4.5 L13.1896476,6.26035242 C13.7922938,6.34493434 14.3632132,6.49030734 14.9024229,6.69647577 C15.4416327,6.9026442 15.8803948,7.1590293 16.2187225,7.46563877 L15.4099119,9.24185022 C14.6486746,8.69206774 13.855731,8.34317255 13.0310573,8.19515419 L13.0310573,11.1449339 C13.7288581,11.3140978 14.3156364,11.5070474 14.7914097,11.7237885 C15.267183,11.9405297 15.6662979,12.2603503 15.9887665,12.6832599 C16.3112351,13.1061695 16.472467,13.66123 16.472467,14.3484581 Z M10.3667401,9.51145374 C10.3667401,9.79691773 10.4592502,10.0321577 10.6442731,10.2171806 C10.8292961,10.4022036 11.0909675,10.5581491 11.4292952,10.685022 L11.4292952,8.24273128 C11.0909675,8.33788594 10.8292961,8.49383152 10.6442731,8.71057269 C10.4592502,8.92731386 10.3667401,9.19427154 10.3667401,9.51145374 Z M13.0310573,15.6964758 C13.6759944,15.5061664 13.9984581,15.0938358 13.9984581,14.4594714 C13.9984581,14.2162983 13.9165206,14.0127761 13.7526432,13.8488987 C13.5887657,13.6850212 13.3482395,13.5396482 13.0310573,13.4127753 L13.0310573,15.6964758 Z" id="$" fill="#FFFFFF" fill-rule="nonzero"></path>
            </g>
        </g>
    </g>
</svg>