<svg width="24" height="24" viewBox="0 0 24 24" fill="none" xmlns="http://www.w3.org/2000/svg">
<title>USDP Mono Icon</title>
<path fill-rule="evenodd" clip-rule="evenodd" d="M12 22C17.5228 22 22 17.5228 22 12C22 6.47715 17.5228 2 12 2C6.47715 2 2 6.47715 2 12C2 17.5228 6.47715 22 12 22ZM24 12C24 18.6274 18.6274 24 12 24C5.37258 24 0 18.6274 0 12C0 5.37258 5.37258 0 12 0C18.6274 0 24 5.37258 24 12Z" fill="white"/>
<path d="M14.166 11.0874H13.146V8.09519H17.592V6.25919H13.1484V3.38339H10.8546V6.25919V6.27059H9.88739C7.7964 6.27059 6.0528 7.32719 6.0528 9.63059C6.0528 11.6454 7.5816 12.9132 9.8328 12.9132H10.8528V15.9048H6.408V17.7408H10.8516V20.6172H13.1454V17.7294H14.1126C16.2036 17.7294 17.9472 16.6728 17.9472 14.3694C17.9472 12.3552 16.4184 11.0874 14.166 11.0874ZM10.8516 12.912V11.088H10.128C9.1566 11.088 8.36579 10.6788 8.36579 9.58799C8.36579 8.50799 9.1158 8.09759 10.176 8.09759H10.8546V11.0898H13.1454V12.912H10.8516ZM13.824 15.9048H13.1454V12.9126H13.872C14.8434 12.9126 15.6342 13.3218 15.6342 14.4126C15.6342 15.4968 14.8842 15.9048 13.824 15.9048Z" fill="white"/>
</svg>
