<svg width="24" height="25" viewBox="0 0 24 25" fill="none" xmlns="http://www.w3.org/2000/svg">
    <g clip-path="url(#clip0_2924_39)">
        <path
            d="M12 0.522217C5.37288 0.522217 0 5.8951 0 12.5222C0 19.1493 5.37312 24.5222 12 24.5222C18.6269 24.5222 24 19.1508 24 12.5222C24 5.89366 18.6278 0.522217 12 0.522217Z"
            fill="#53AE94" />
        <path
            d="M10.5189 10.9233V9.13819H6.43672V6.41827H17.5526V9.13819H13.4699V10.9219C16.7879 11.0743 19.2827 11.7314 19.2827 12.5186C19.2827 13.3058 16.7867 13.9629 13.4699 14.1163V19.8343H10.5179V14.1158C7.20592 13.9629 4.71616 13.3063 4.71616 12.5198C4.71616 11.7333 7.20592 11.0767 10.5179 10.9238M10.5179 13.6315V13.63C10.6012 13.6353 11.0291 13.661 11.9819 13.661C12.7437 13.661 13.2796 13.6394 13.4685 13.6296V13.632C16.3998 13.5021 18.5879 12.9916 18.5879 12.3808C18.5879 11.77 16.3996 11.2603 13.4685 11.1302V13.1234C13.2765 13.1366 12.7274 13.169 11.9694 13.169C11.0591 13.169 10.6014 13.1311 10.5174 13.1234V11.1302C7.59184 11.2605 5.4088 11.7715 5.4088 12.3801C5.4088 12.9888 7.59279 13.5 10.5174 13.6303"
            fill="white" />
    </g>
    <defs>
        <clipPath id="clip0_2924_39">
            <rect width="24" height="24" fill="white" transform="matrix(-1 0 0 1 24 0.522217)" />
        </clipPath>
    </defs>
</svg>
