<svg width="24" height="17" viewBox="0 0 24 17" fill="none" xmlns="http://www.w3.org/2000/svg">
<path fill-rule="evenodd" clip-rule="evenodd" d="M18.2507 9.13499C20.3737 8.40371 22.3673 7.16224 23.8948 5.81023C23.9552 5.75921 23.9897 5.68268 23.9984 5.59765C24.007 5.52112 23.9811 5.43609 23.9293 5.37656C23.8775 5.30854 23.8085 5.26602 23.7308 5.25752C23.6532 5.24051 23.5669 5.25752 23.4978 5.30004C21.9703 6.20138 20.2787 6.91565 18.5441 7.34931C18.5959 6.70307 18.5872 6.04832 18.5009 5.39357C18.3024 3.94802 17.8105 2.51098 16.7749 1.41406C15.6271 0.164091 13.7457 -0.303586 12.1232 0.198104C10.1728 0.76782 8.55032 2.50248 8.48991 4.56876C8.41223 7.28979 10.984 9.50062 13.599 9.75572C13.901 9.78973 14.2117 9.80674 14.5224 9.80674C14.0391 10.8441 13.4177 11.839 12.7446 12.7574C10.6906 9.41559 7.601 6.67756 3.94179 5.18099C3.07877 4.81535 2.19849 4.53475 1.29232 4.33917C0.981636 4.27965 0.688209 4.22013 0.368892 4.18611C0.29122 4.17761 0.213548 4.20312 0.144507 4.24564C0.0754653 4.28815 0.0323143 4.35618 0.0150539 4.43271C-0.0108366 4.50924 -0.00220645 4.58576 0.0323143 4.65379C0.0668351 4.72182 0.127246 4.78134 0.196288 4.80685C2.24164 5.80173 4.12303 7.10272 5.76276 8.66731C7.88579 10.6826 9.56005 13.1145 10.682 15.793C11.1739 16.9494 12.7187 17.3746 13.7543 16.6263C13.9097 16.5073 14.0564 16.3797 14.1858 16.2352C15.1093 15.2488 15.9291 14.1604 16.6195 12.9954C17.3272 11.822 17.9054 10.504 18.2507 9.13499ZM13.6594 14.4325L13.6853 14.4835C13.6767 14.4665 13.668 14.4495 13.6594 14.4325ZM15.2387 7.75746C15.4027 7.07721 15.4804 6.37994 15.4545 5.68268C15.3854 4.43271 14.8935 2.66404 13.3832 2.63853C12.0801 2.62152 10.8891 3.83748 11.2602 5.12147C11.8125 7.00068 13.4609 7.68094 15.2387 7.75746Z" fill="url(#paint0_linear_1_5)"/>
<defs>
<linearGradient id="paint0_linear_1_5" x1="0.103462" y1="-0.158844" x2="26.6226" y2="17.2057" gradientUnits="userSpaceOnUse">
<stop stop-color="#44BCC3"/>
<stop offset="1" stop-color="#236D66"/>
</linearGradient>
</defs>
</svg>
