<svg width="24" height="24" viewBox="0 0 24 24" fill="none" xmlns="http://www.w3.org/2000/svg">
    <title>Wrapped Bitcoin Icon</title>
    <g clip-path="url(#clip0_1575_95)">
        <path d="M19.5696 5.0368L18.9106 5.69578C20.4831 7.41534 21.3551 9.6611 21.3551 11.9912C21.3551 14.3213 20.4831 16.5671 18.9106 18.2867L19.5696 18.9456C21.3183 17.0488 22.2892 14.5634 22.2892 11.9835C22.2892 9.40364 21.3183 6.91822 19.5696 5.02142V5.0368Z" fill="#5A5564"/>
        <path d="M5.71098 5.09389C7.43054 3.52146 9.6763 2.64946 12.0064 2.64946C14.3365 2.64946 16.5823 3.52146 18.3019 5.09389L18.9608 4.43491C17.064 2.6862 14.5786 1.71533 11.9987 1.71533C9.41884 1.71533 6.93342 2.6862 5.03662 4.43491L5.71098 5.09389Z" fill="#5A5564"/>
        <path d="M5.09389 18.2933C3.52332 16.5741 2.65247 14.3297 2.65247 12.0011C2.65247 9.67254 3.52332 7.42815 5.09389 5.70897L4.43491 5.04999C2.6862 6.94679 1.71533 9.4322 1.71533 12.0121C1.71533 14.592 2.6862 17.0774 4.43491 18.9742L5.09389 18.2933Z" fill="#5A5564"/>
        <path d="M18.2933 18.9017C16.5738 20.4742 14.328 21.3462 11.9979 21.3462C9.66776 21.3462 7.422 20.4742 5.70244 18.9017L5.04346 19.5607C6.94026 21.3094 9.42567 22.2803 12.0056 22.2803C14.5855 22.2803 17.0709 21.3094 18.9677 19.5607L18.2933 18.9017Z" fill="#5A5564"/>
        <path d="M16.1605 9.80119C16.0287 8.42612 14.8426 7.96483 13.3423 7.82425V5.93079H12.1825V7.78911C11.8772 7.78911 11.5652 7.78911 11.2555 7.78911V5.93079H10.1045V7.83743H7.75195V9.07851C7.75195 9.07851 8.60863 9.06313 8.59545 9.07851C8.74991 9.06151 8.90494 9.10515 9.02787 9.20021C9.15079 9.29527 9.23202 9.43434 9.25442 9.58812V14.8072C9.25112 14.8615 9.23698 14.9145 9.21284 14.9631C9.18869 15.0118 9.15503 15.0552 9.11384 15.0906C9.07343 15.1267 9.02613 15.1543 8.9748 15.1716C8.92346 15.189 8.86914 15.1958 8.81511 15.1916C8.83048 15.2048 7.97161 15.1916 7.97161 15.1916L7.75195 16.5777H10.0825V18.5151H11.2423V16.6062H12.1693V18.5063H13.3313V16.5909C15.2907 16.4722 16.657 15.989 16.8283 14.1548C16.9667 12.6787 16.2725 12.0197 15.1633 11.754C15.8376 11.4223 16.255 10.8072 16.1605 9.80119ZM14.535 13.9264C14.535 15.3674 12.0661 15.2026 11.2797 15.2026V12.6458C12.0661 12.648 14.535 12.4217 14.535 13.9264ZM13.9969 10.324C13.9969 11.6419 11.9365 11.4816 11.2819 11.4816V9.15758C11.9365 9.15758 13.9969 8.9511 13.9969 10.324Z" fill="#F09242"/>
        <path d="M11.9978 24C9.62462 23.9996 7.30485 23.2955 5.33179 21.9767C3.35874 20.658 1.82101 18.7838 0.913031 16.5912C0.00505138 14.3986 -0.232403 11.986 0.230689 9.65838C0.693782 7.33082 1.83663 5.19282 3.51472 3.51472C5.19282 1.83663 7.33082 0.693782 9.65838 0.230689C11.986 -0.232403 14.3986 0.00505138 16.5912 0.913031C18.7838 1.82101 20.658 3.35874 21.9767 5.33179C23.2955 7.30485 23.9996 9.62462 24 11.9978C24.0003 13.574 23.69 15.1349 23.087 16.5912C22.4839 18.0475 21.5999 19.3707 20.4853 20.4853C19.3707 21.5999 18.0475 22.4839 16.5912 23.087C15.1349 23.69 13.574 24.0003 11.9978 24ZM11.9978 0.935755C9.81137 0.937492 7.67453 1.58738 5.85735 2.80327C4.04018 4.01916 2.62426 5.74648 1.78855 7.7669C0.952839 9.78732 0.734858 12.0101 1.16216 14.1544C1.58945 16.2987 2.64285 18.2682 4.1892 19.8139C5.73555 21.3596 7.70544 22.4123 9.84989 22.8387C11.9943 23.2652 14.2171 23.0463 16.2372 22.2098C18.2572 21.3733 19.984 19.9567 21.1992 18.139C22.4143 16.3214 23.0634 14.1842 23.0643 11.9978C23.0648 10.5446 22.779 9.1055 22.223 7.76285C21.667 6.42019 20.8518 5.20029 19.824 4.17291C18.7962 3.14553 17.576 2.33082 16.2331 1.77537C14.8902 1.21991 13.451 0.9346 11.9978 0.935755Z" fill="#282138"/>
    </g>
    <defs>
        <clipPath id="clip0_1575_95">
            <rect width="24" height="24" fill="white"/>
        </clipPath>
    </defs>
</svg>
