<svg width="24" height="24" viewBox="0 0 24 24" fill="none" xmlns="http://www.w3.org/2000/svg">
<g clip-path="url(#clip0_4_36)">
<path d="M12 0C5.372 0 0 5.372 0 12C0 18.628 5.372 24 12 24C18.628 24 24 18.628 24 12C24 5.372 18.628 0 12 0ZM17.96 13.88C17.44 12.72 15.52 10.16 12.72 10.44C9.8 10.76 6.48 12.4 5.52 14.8C4.04 13.64 5.32 11.64 6.2 10.72C6 9.84 6.56 7.92 6.88 7.12C7 6.44 7.56 5.96 7.84 5.84C7.8 5.36 8.64 5.12 9.04 5.04L9.08 4.96C9.2 4.6 9.32 4.16 10.36 3.84C11.24 3.52 12.04 4.32 12.36 4.76C12.44 4.52 12.76 4.16 13.08 4.44C15.96 4.88 16.92 8.04 17.08 9.52C17.64 9.92 18.8 10.96 19.08 11.92C19.36 13.08 19.04 13.32 18.64 13.64L18.56 13.72C18.36 13.96 18.12 13.96 17.96 13.88ZM17.4 15.12C16.772 17.752 14.66 19.772 12 20.28C10.32 20.28 7.64 17.64 6.88 16.4C5.32 16.28 5.68 15.48 6.04 15.12L5.84 15.04C6.56 13.36 8.6 11.36 12.6 10.88C14.8 10.6 16.48 12.16 17.48 13.76C17.52 14.28 17.48 14.84 17.4 15.12ZM8.64 13.12C8.88 13.72 9.6 14.68 10.64 13.56C10.56 13.24 10 12.68 8.64 13.12ZM10.24 18.8C10.08 18.56 11.04 18.44 11.52 18.4L12.16 18.24C12.28 17.72 12.04 17.68 11.92 17.72C10.96 17.8 11.04 16.68 11.28 16.32C11.56 16 12.16 16.12 12.36 16.16C12.56 16.24 12.88 16.16 13 16.12C13.6 16.08 13.56 16.8 13.44 17.16C13.4 17.64 12.72 17.8 12.4 17.8C12.36 18.16 12.44 18.32 12.52 18.32L13.88 18.64C14.4 18.84 14.12 18.88 13.88 18.92C13.2 18.48 12.72 18.64 12.4 18.72L12.16 18.8C11.6 18.6 11 18.64 10.76 18.72C10.64 18.84 10.36 19 10.24 18.8ZM13.8 13.76C13.84 13.28 14.32 12.48 15.72 13.2C15.52 13.68 14.84 14.44 13.8 13.76Z" fill="#EFBFA8"/>
</g>
<defs>
<clipPath id="clip0_4_36">
<rect width="24" height="24" fill="white"/>
</clipPath>
</defs>
</svg>
