<svg width="25" height="25" viewBox="0 0 25 25" fill="none" xmlns="http://www.w3.org/2000/svg">
<circle cx="12.3784" cy="12.5222" r="12" fill="black"/>
<path d="M17.7126 7.88024L15.9229 8.79204L7.28086 13.1939C7.25164 12.971 7.23694 12.7464 7.23684 12.5216C7.23803 11.6247 7.47351 10.7437 7.91996 9.9658C8.36641 9.1879 9.00834 8.54013 9.78217 8.08666C10.556 7.63319 11.4349 7.38975 12.3317 7.38046C13.2286 7.37116 14.1123 7.59633 14.8954 8.03367L15.9198 7.51174L16.0726 7.43376C15.1342 6.75267 14.0258 6.34429 12.8698 6.25376C11.7138 6.16323 10.5553 6.39407 9.52234 6.92077C8.48937 7.44748 7.62213 8.24954 7.01648 9.2383C6.41084 10.2271 6.09036 11.364 6.09048 12.5235C6.09048 12.6837 6.09656 12.8432 6.10872 13.0021C6.12575 13.2271 6.07584 13.4521 5.96529 13.6488C5.85474 13.8455 5.68848 14.0051 5.48743 14.1076L4.94727 14.383V15.6677L6.53758 14.8571L7.0526 14.5943L7.56006 14.3358L16.6706 9.69379L17.6943 9.17249L19.8103 8.09404V6.80996L17.7126 7.88024Z" fill="white"/>
<path d="M19.8103 9.37939L8.07759 15.3533L7.05385 15.8759L4.94727 16.9493V18.2327L7.03939 17.1669L8.82905 16.255L17.4799 11.8469C17.5091 12.0713 17.5238 12.2973 17.5239 12.5236C17.5234 13.4215 17.2879 14.3037 16.8411 15.0825C16.3942 15.8614 15.7513 16.5098 14.9764 16.9634C14.2015 17.417 13.3213 17.6601 12.4234 17.6684C11.5255 17.6767 10.641 17.4501 9.85782 17.0109L9.79493 17.0442L8.68442 17.6102C9.62259 18.2913 10.7308 18.6998 11.8866 18.7905C13.0424 18.8813 14.2007 18.6508 15.2337 18.1244C16.2667 17.5981 17.1341 16.7964 17.74 15.808C18.3459 14.8196 18.6668 13.6829 18.6671 12.5236C18.6671 12.3619 18.6608 12.2003 18.6489 12.0406C18.6319 11.8157 18.6817 11.5908 18.7922 11.3941C18.9026 11.1974 19.0687 11.0377 19.2695 10.9351L19.8103 10.6597V9.37939Z" fill="white"/>
</svg>
