<svg width="24" height="24" viewBox="0 0 24 24" fill="none" xmlns="http://www.w3.org/2000/svg">
    <title>Yearn Finance Icon</title>
    <path fill-rule="evenodd" clip-rule="evenodd" d="M24 12C24 10.44 23.688 8.856 23.088 7.416C22.488 5.976 21.6 4.632 20.496 3.504C19.368 2.4 18.048 1.512 16.584 0.912C15.12 0.312 13.56 0 12 0C10.44 0 8.856 0.312 7.416 0.912C5.976 1.512 4.632 2.4 3.504 3.504C2.4 4.632 1.512 5.952 0.912 7.416C0.312 8.88 0 10.44 0 12C0 13.56 0.312 15.144 0.912 16.584C1.512 18.024 2.4 19.368 3.504 20.496C4.608 21.6 5.952 22.488 7.392 23.088C8.832 23.688 10.44 24 12 24C13.56 24 15.144 23.688 16.584 23.088C18.024 22.488 19.368 21.6 20.496 20.496C21.6 19.392 22.488 18.048 23.088 16.608C23.688 15.168 24 13.56 24 12Z" fill="url(#paint0_linear_1575_94)"/>
    <path fill-rule="evenodd" clip-rule="evenodd" d="M11.376 6.57599H12.624V17.424H11.376V6.57599Z" fill="white"/>
    <path fill-rule="evenodd" clip-rule="evenodd" d="M10.6799 11.688V10.392C9.69588 9.91198 8.99988 8.87998 8.99988 7.70398C8.99988 6.04798 10.3439 4.70398 11.9999 4.70398C13.8719 4.70398 15.2159 6.04798 15.2159 7.70398C15.2159 8.11198 15.1199 8.51998 14.9279 8.99998L14.3999 7.27198L13.3439 7.60798L14.2799 11.184L17.9279 9.83998L17.4719 8.78398L16.1039 9.23998C16.3439 8.71198 16.3919 8.30398 16.3919 7.67998C16.3919 5.35198 14.5199 3.47998 11.9759 3.47998C9.64788 3.47998 7.77588 5.35198 7.77588 7.67998C7.79988 9.55198 8.99988 11.136 10.6799 11.688Z" fill="white"/>
    <path fill-rule="evenodd" clip-rule="evenodd" d="M13.3198 12.312V13.608C14.3038 14.088 14.9998 15.12 14.9998 16.296C14.9998 17.952 13.6558 19.296 11.9998 19.296C10.1278 19.296 8.78378 17.952 8.78378 16.296C8.78378 15.888 8.87978 15.48 9.07178 15L9.59978 16.728L10.6558 16.392L9.71978 12.816L6.07178 14.16L6.52778 15.216L7.89578 14.76C7.65578 15.288 7.60778 15.696 7.60778 16.32C7.60778 18.648 9.47978 20.52 12.0238 20.52C14.3518 20.52 16.2238 18.648 16.2238 16.32C16.1998 14.448 14.9998 12.864 13.3198 12.312Z" fill="white"/>
    <defs>
        <linearGradient id="paint0_linear_1575_94" x1="0" y1="0" x2="24" y2="24" gradientUnits="userSpaceOnUse">
            <stop stop-color="#0077FC"/>
            <stop offset="1" stop-color="#095EB5"/>
        </linearGradient>
    </defs>
</svg>
